<mxfile>
    <diagram id="YoQM0VQgEe_1ELtJyUfX" name="Page-1">
        <mxGraphModel dx="1234" dy="249" grid="1" gridSize="16" guides="1" tooltips="1" connect="1" arrows="1" fold="1" page="1" pageScale="1" pageWidth="256" pageHeight="256" background="#000000" math="1" shadow="1">
            <root>
                <mxCell id="0"/>
                <mxCell id="1" value="back" parent="0"/>
                <mxCell id="142" value="" style="shape=image;verticalLabelPosition=bottom;labelBackgroundColor=#ffffff;verticalAlign=top;aspect=fixed;imageAspect=0;image=https://imagizer.imageshack.us/v2/345x255q90/924/mzn3im.png;" parent="1" vertex="1">
                    <mxGeometry x="205.17" width="194.83" height="144" as="geometry"/>
                </mxCell>
                <mxCell id="143" value="" style="shape=image;verticalLabelPosition=bottom;labelBackgroundColor=#ffffff;verticalAlign=top;aspect=fixed;imageAspect=0;image=data:image/png,iVBORw0KGgoAAAANSUhEUgAAAMgAAAD7CAMAAAAYaCuvAAABblBMVEWLi4vGxsb///+Hh4eMjIyDg4PKysqPj4/8/PwAAAB+fn7Nzc3CwsK8vLy2trbw8PDh4eHX19cxMTFkZGQ6OjoeHh4mJiZEREQVFRXp6eltbW1VVVUNDQ2YmJgXCBQXCBccBTiurq4pBWEMABccCC7/AABCQkJ4eHhdXV3/t7f/7u5hYWGsdHQ2NjZYWFhqamqfn59NTU2bCgrpd3ceDx6rycijs7M9NT0JAAkACBSQx8Xk7+//EhLigYHnmpoZCxf3bGzRra0zKjMfGh/A8/F1BC+4zMuFr6zwKiqEkpJpeXnNvb3pl5f6Y2P/Q0PXn5/vdHT8WFjVtrYAGBgmBVgYCB/fAAC6ZGRPABVpCUclGSWkZmabAACsQEDaPT13ADvA3NvM9/UjBU2K3dqC0s2g6+d9t7QfBUAMBTlxABOYVFV8v7v6kZH/vr6ScXF2CgrGAAD2KyvXJiZZAACcHR23HBxMFRUTLi49UlJTZWWquGgFAAAR4ElEQVR4nO2djX/bNnrH+QoIhEiJLyIl0rTHu4XQHU8iubqxmrZ5c+Y0113be2m2Zd2utzS33W63a/fW9b/fA8p2LIBJlNiW5YTPJzHJH8CH+IokAIIAqIwI1d4C0xUy7F11Ii7CXIUMNG3gXnurOMjA7avX3JDJQYavx4EQuqTkvLkhvQFp1p01cewsy5Dq2G1h7eoG7AwITdK1fmiEvVmIUKm0xD718emmr9WzIPNqmQhEKaxQWPJtSpebzV8eyixKXWLHBkjL2CcLqrrTim98eve9927f+wVC793++G+uDASVnudTOrNZyCBp0WwWlNT1Zh6mTbBlQbQ+inEWzlyVWt6shkXsQTw3DzwdqegX946Qeu8uQh/f/vj2lYGotuNUhRskqZOWNMkyR/fVxHEcQ0enICqKI8vJEpWlDiyoX0GEDDmJAjcJ+kz91b1PrxyEYmbFuTszbGRXdKdPaVqoocWsefwcBNE4zhAao6KwGBvRymRMoSqdch8A8vkXX1wpCLdU13WWu57Dk4RMjHHsqyGIegPK7xFEFTXmV9oIFSUPQbSCvxgtfwz03sf03t1Pf6miu7+6EhAd8tWKxmmWpccgoLIynvuqD0FZowAorBb92ICtkWqmPATxP1WJkIUdvtftu1/cQ/e+uPs5uv35xkFQXIPllLKorudu1KRItfv9fhojF7TIWqJVeR1QxDBsBX2qQ0hAp1EdlXCKqKUvcwx08mdDdrZAbHJQepKT0qVGRqMxo6e58Em841SexkYnwVdV6J8FabUzAFttrwS5Lnb2Hrm+tgKCdFMyXMmamaYtYoVbxGwzLo0MnQWhXp2IZmWjuajVqeHJouPn0t5zdW2XSpvLos1lKLtktroKYmHBFHswFjWsD/uRLGq6L2oG1i7DpSm71PoCiKGsmu7AURVRdOGoomj2TF/cW+Ega7q0z+Wy94Yg5zvqFoG8NWekA9k2kO4e6UA6kA6kA+lAOpAOZHMgIROfIa1sQKRHS+bagSz2rLm0t65tyOUqCNIH8hvGntX22jFrEbO2V8Obcrl6RuoyFs1Kc0krsVnLYlVOJTHOZJfleV1GLS7FxgdfipKikeTKd6pAFt1YSkoZDzfjErtS44Oxagq/MwXNaFoKRNHkLQWi2DQ+iC7t9V2aa7p03vnGhw6kA+lAOpAOpAPpQDqQDqQDueSjbgJEOkDbUU3XzqUDWD2zkERDu3CXuNWlABIoqWj2IKxEDQ/7tSz29FjaO9Uu3GXV6lJofDBaOmT39LaWAqdFdNwWcUMuxSfE8Y5gJGehqO2QaTGSRVbL4tjcjMtAERofWlqMJiOpvcmiTi6LA6uQRF1b32V0HpcDKdcSGwVaGx/ctpaCntxSsMxi1nLZ2viwvst3vhzpQDqQDqQD6UA6kA7kbQLZ/ifEd+2MdCCbAmG6YKYz2DEk0bVzRRR5S4EkKtqGXAogSWaL5g6iviRO1FgSHS3FckztfC7xui6FxgfLnUg2ZANJG/TTFrGy5b0HG3I5Ed6zj0QbR1Yoi34piztWLYuh4UnipbjEQuODNA7AsHvjVBocsO7QApy2DC0w7MH6Lss1XXYdBjqQDqQDeTdAump8B9KBdCAdSAfSgVwHkOVjvamfLnhLgXKqHC8tPrTgNMZxiNUzp/pKTFM3FS1kZ93pz12uSNxlfrp5EnTsciVJS5dSKoVn9hINBXMng0LUhm6PKrKoVZkkDrXLcElllyKI3D7RVwu5IQNllixSJZU0292QSyo0PuSRYHlchaIW5YrpSWJQTQNJrJ3NuCwz9RWND+eb1wDj1nkNLsHlmzY+dNX4DqQDucyjbhHIW3NGOpAOpAPpQDqQDqQDuQZVlDXnNbDa5zUwp6Jmts5r4Kzv0lrTpThVgjXpiab1mCaLbtUiZqqk9bRNuRS6cFhiLw89rWqpO4hZ4aksZnEs7a07a7s05G4n67tsJrQ9e4/M/UIwpT+StGmWziRxrsa1JPruZlzqYivKueY16KZKuPhcqwPpQDqQDqQD6UA6kA6kA9kCkG1/1H3Xzoh58WfkvC4vcM4Hs2WCBv18cz60usStLoXGB7NlBsTB+pMqts1rcBku22ZfWAFR+23fkWgT1bYPY7SKm3K58sx+ze0syDHby2JvIEVvaGdAUJXi6qVJddb7GNyV2FkQK6r1l6UUVTXdULJe385eWpR/G2zZFUnl3ybp86UNa00XJBDSpN9sNOH9s9Gu3lbuEaYjh49uwjTzqIpik9pkRDKagkhsao6CMXXn4/HUpeN+uRNTlfRVhIttuOBEEDt0EbWYEwAIU6rapa6fpj5FtK5olVA6yyjNAnc2gs2IjjhIuZ0gQGBajse/DKhns6ROvDQtqEqTCnGQPEMoi9ww68PFhXZUStOtA6FMp8cgauVTC9tVxL/hZp+C1JQGyzMS2k3qqziO59sGgtKkqOwRgFiMqrwJHzlGU5dJpwBSV8hRdIoVXVdSOlp+CY5ijOOtAzEZw/0YARGUFzSG3xz1Y8biLFNg1YRryi4RVeLYoChefuS0AsN4y0CWJfvpV/PQqYbQWfG4FrTcnX9UCm9F4XLOutb2fNLuDAhtMdSmtYrr7n0pLldAaB6INpubkhbM4lgWPXMuiwHejMtEHHQcW4Kxyh2JmsXULJfEeMjmUkSrdy6Xk7VdisPApbnEXmO69XWnJ7sUl10H5g6kA+lAOpAOpAO5eBBJvA4gcn3iBd2cXqOKcgUgY3IZlq4efhOv3n78o8uw3dXjbwbkLy/efkSuAOQ3i93matjdhX+N7e+2WCMullEWy/gLIsbkwXfuLL68SBCxp6fpDH79SL4zAWSXKGla6YRUB7t73Pb3WoyLuzUmsFgkFexwn/jWYnclzkFFeMRdDrJy/NYZz5q3eVIqxS+LVZlo9CeP//Znot37/O8AZDAYDqlPhtOTNO9KHHv7oBGrx0FIqg2HE/1+5pKVKItEawQOIhxfw6aUoExrSSUS3yG2dA3+5Y1W+/sPyEAfjXyNPAnuPzk4ONjbv39wfx8WsDw42N8/OGjEvYODJ/B0ur+/v0gns2g2sSo33OOh9/d54MH9vUQL92Gx9+VviHh8SKGcopZU9sTJvVsmMv+HG4//amlffXWy8o//dOO3CzLAhwR+Tc0nlaZphLgaijSyIKjZ4m8sJ2QPXGd+L1zAGcH8reUBcdxwQWCtT5pFBj5CMqjILtx3wsHjSJpunexYbanUhcaHlo+p//TGe0fLFrqvvz5attapH/7pxm8/4CCLOYCwQ0LGRDtwKzwhGpkoxAO5Z4Yeg9CaONog5JcWnoy98YCfEaI9GYXVcE8jYWi7B/zHGHm7cEZWhxO/xiff13hmBxDeaNQ/evDgd7/7+oi/0ukPfnICws8II0pvMNBqN0sHoRZO0sM9ODM9/XAXLjwtPryfnoCEd8hAyThIfUjSYaB5h3fuH/harw7u39n98p8vNftdgrzPMcAefK32T0GUBal5UquM6ZaWuFnNcs0bpAty0ICQgocSwnonZ4QAveOO+Xki6SSHa4roVa2ZbrK7twmQ958+4xwPwBqUYxAX8otqrDHIWpyMgxwSTwuw44A+7imHxNfGFWyg5RlJezzAZ1lGMr6G82ZhTjXIrfzFBkC+efr02RKD4zz75ghA/voD4lDXtckIlQvmgtWZAel1I5K6rkpG/fhwUaMZ3Nuu25/xbDaG+G4U7hb9Bem7brrwCCj6IqEecaw7e1/+y2WD3Lr1zbNjjAcPnj58aDcge+QwDMNgl3hws/O1xaEHv3vwhCwaOQz3FiTfXcbiBcUy1uHeYhHwfT0eewSLBQnukNDb3b98kPffP0Z59vT3N2+egLQU4q0Foiwu2qoAmwFpUJ59AxinIK3VKklcyBpUq1rFvc2AAMrDhzefg/zrX1y8bQzk5nOQP/xYtA8kBWzRJrbF5Bphqwe/eJAjGeTffMEKp6hLUSzVcCpqvp7tSBGLSvFK8Zn/EkCOJJCfrTOJyQvqEy+cF0U4+GWAHEkg52gpuJpWlGMQQDkGeXh9Qd6/deYegayrf11BkHp069atP/6Rgzy8uaz9XlMQFVA4CJwN9VqAtExkDiBqH0w9+v3Dm3bTx6w/ARAx5pnpyZ7bi6Zbl2dWf8F0677kEkCYOFu71PhQ9Fdfw/OK66c3/v1DbtXww6XZ6MPen258fhrnZEVLK5eKpq26bCIMB3M54gBZLXtXkSjaqRb2FVtQh0LjQ7wKYpejqvqPG3/+iNufHzeLbz/66tuPbtx4DlKeOkszOSnDFZeukjU0pRzRdZSWvdMdUbLxZKSWjri3+FnzWTA7tSDcyaMgnH777SefPH783R/+87vHn3zy3X89/u//efzZZ4//dxR4hARBEAZhOJ7BUp97YTAaBTNQvDCElSAcV54XhLMZCGMPBG8GK0m6jAR78WjcTUgsButeANGDYMRDuCcrhyNAVH6QHdBg71lQ7QQQcbZi0+pl061PY/hTpt9//+jn//fDo8j84eePHj0Kf/gBNo6+j5PY8OYQYZYGRVJibCo4j9m8tqwoTVgdMSiuk8KZ1bClzP3I5zOaJcwKY39IUrif5kWZjsvI0sNCSeYVItM4SUvYLY6n03QHQkyjJLBTpCi1koA2U6wIpxoxa6G68PLGB5zEWMEl9gKcw45RpEO2ggN9XuIRCvw6whGP7uHcNHMISudjCLUiOBiAMKwYfpFaXmAWU+YX4Ae8JYxFaa4Sq2BND0PPiBPYaQo/ChrruDZ51mWUiQexy2KqGsRQjLiMS/hRvXQG3jEGkIgZr8i1zoIYVq1gy8feDNdMN/K45nS5OS+NEO1Y8SlIYFoAorvjGtcWm8JGDiA8BXDGvGLOykSflgYHqQEE5+ooSYypryvYUwAkN0tf91UAKWuf08YMQOBn8G0MIAqOaqUslByI4zcBUXBcRz6fws8wo7lSmwwydQzXSKzU6qj2ExwHigH+a9OqsWIOigLzDtDKPIlY0hxqng8DFihxjYvYCGDvObMSnKAQrkUliWoMYVNwaSSB2h/phs4TYLCoAFoD6HC0w0GmNY/NcBxNE6iH7piJ9VogirGsqqbNCn/JxOmgTns8hR/IXOAhsAIgPqxgo4myfPu0rP3yeLw3DI8MMfRmYH7jSWnC+FIfQoFomDVeHrYJ4WP9S345zxl3ahwHNAPzX1UgnqcYniTnLdkNtnrJHJfshv9qlxf6MlQ/dxXFaH/1tqJeBMjJca7v6+nlBW9YpXE9QYyTD3zyRgGD6ax5g8y/GWrzguP4bbOy/L98z34swN9l1rAVINhizHLcHax7cCqMoGA1FLYKY+YwDXUoZyxLhwJGYRZgMNbjuaLJTDhzEIWrWwJiQH0jsFhGLN2bwkFmCQtjKJPiaT00Q93AYRHMIcf3/QSqJWU8DGpm+nFuxvMoMouytoztAIG6FqtxrpA5lL1GUyrXKVQ9/Ho0tAPMayu8vpWGSZ6Y9VSf1BGcjCS0ElbO01ESFHhLQPzpXMdTOsJQ1zoGgT/z2AqHzgwSOQMQqKFEvJMGFM8anDOoCwVsOp0CJb/ErK0AMeK8Lo0UkxKXcG8bLIe6U2JBBSIf2juWgWt9ypQIW3VUWnnNhrOZpSdJYsF+MYb6bxwXWwGCp6U+M5bZ77LmYCyrI/g4+20qIjywEZedanilOomhNtyoxlaAKMo0Md+gv5ahzxPTeNlRNz7jGZ9E/TWmJ4OHpdP9LmzGs5aPaK8x41ksf3xsMCjlT5f1KJZFrXJaxA25FEAyV56m3W2Zun2I7BbRlqaIB9uUy9XxI60DWi5hlMvlDJx5K0dPX2t7k6FJ60Z8jaFJ53SprpYjoWS1JWsj328RrVoWQ6XNJbtwl9L3EFty6OFIzvSpk4uaySbyNJeWqZ3L5aDFpd7qcqCKJbvY6+/ixxFdistuesMOpAPpQDqQDqQD6UDeIpBu9HQH8q6CtHblEfvi6OYLuvLI44he1DvoHC6NVpfi0KTMEY0OclsSJ2opiZmGFUm0tQ25FBrocMugn4khf/OgR7MW0aEt4oZcrg5NUlHTxWzVVCRrvPPZmuKGXPbVt7Nd63obVRqQtukor5VRXCjEoo4p5mnXzZQi+X+cPkredHdcMAAAAABJRU5ErkJggg==;" parent="1" vertex="1">
                    <mxGeometry x="400" y="2" width="111.85" height="140.37" as="geometry"/>
                </mxCell>
                <mxCell id="144" value="" style="shape=image;verticalLabelPosition=bottom;labelBackgroundColor=#ffffff;verticalAlign=top;aspect=fixed;imageAspect=0;image=data:image/png,iVBORw0KGgoAAAANSUhEUgAAAggAAAFSCAYAAACXASdvAAAgAElEQVR4Xuy9B5Mc55UlerK87TLtvTdw3Wh4EIRIiqsZzY5iXLzZtxFvf+WLWM08GUqkAJDw6EZ7770p783GuV9mVXXDkZT0xCEzGQh2d2Vlfnkzq+657hzN728s4y+9aTwgD/v+Q2tl7qhBk/1K0LQyoPH/mry1VCpD06wALABsKJVLKGllaBYN5XJZ9qmc6i3XoFksKJdKKJXLaj99k+O/a1OnPrPVXgnfyd/5f66KW0n/m1VfT0kz/sZ1AhbNAotFk/XLK/ybfowPmOjdy+Q1aBpKpaLYqyy2es91/aXvsXk80wKmBUwL/FewgLgZ9W1dLpfEd9DVvLnRFymPVOu/ZNfv+N1q+Ah1DnXU/4qb9tcDCB82h3GTFECg46eTKwlg4Gs2m1Wcq2HcQrmEXKGgHL5mq7ppYoW33PA/ByAYN5gPU1mc8Zt4R60bCrQIhCEgsKCgWZCHBUWLDiHKfORKsJeLsJbLsMr1lb8vNlCPnAkQPvyAmXuYFjAtYFpAYin1XSxBmh5cvt0whiM/61C+a/D1JkD4r3kbtGCwpSzRuKCrsorM34atGKWee80w2rveQ68p+YGa90m0Kw6eobo6l+FomT0ACrBoZXS0tmFwoA+ZTFqcaxklWB0ORKJxzM4vIpcrwaIxq8CTKBDBKLp2E4AgiFH378b5vk0GQd+nVCop9GgxUgs8mHFNut2Y/UAZdlhRKluR0xzQvD409/TA6fUim07j9GAPmZND2PI5OEtlWJllkKyCDhRq1mbYyyLrL0PWcH7T18cMCTMqzLZYviXKrb1vH7yH584r948AR0fExs9iiXc8O/81Pxrmqk0LmBb4sViAvkC+okr0JSr7/K033Y996/1rsszf5T0/xH21O3c+LZ+enqJQLCAeTyCRSFSAgs1Kh1eGy+WC1+OR17LZrPzNbrPB5/fLvvFYTOxNB0UHUizReSsnarVa9VR4CXa7DW6XC6l0Bh63G9lMBvl8vgYgFFEuF+By2HFxZBhNDWHs727BZisjl0vB7a2D1eHC1PQyYrEsNKtdnKfH64fL7UI0EkUun6vcfDpYu90Ol9st50mnUigWVUq+FhEabt5ILvFhCtWH5T28Zl6v2+Op2sVmQyaTQbGoP2woyDVYNTuyBQ0lTwg9l8fR0NOLnNRKCsjGT7E++RKZwz34y2W0NNTD5fcinkigUCwimUjIOj0eD1KplNi5pblZ1rB/sI9MJivnN+wqP1sVgJD8hAAZdQVcv5UfCClBECCVYLFYxYHzWvw+H+wOB5LJBOx2h5Qp0umMOr7xQdKBiSTHDHtpGtxut3zICEp4afI8vA3A/BCfdnNNpgVMC/wkLWAChO9327W///t/LhdZx4aGg4MD7B8c6A7AAofdDofTiUI+L46FDsbr9SIWjyEWjcHn88HhdMh7bXYbMukMsrmsOB0CCKfTiePjY3GmdCJenxf9ff3itBPJJDbX12sAAiNzAoQSPC4nLl4YhtdlQ+zkCJevDGN/bwM7+0fw+EOYn99CJmNDuL4eJZTEsQaCQWzv7IijpaNzOBzibGuzIjabTc7HNdHB0WlyndyXazUcYTqbQXtHB+LxOLa2tpEvFlBXV4eWlhb4/X55/87OLnK5vIqaNQIEgiIH8poTvo5BdF6+hpLbhxyTD7YyPJYidmcmsfP6FVrdbvR3deAkFkE6k0YgEMDxyQlCwaD8THsVCgVZ62kkgkw6LfeBzjuXy4mTJlCgTQkuCLR8fp+UYwiAuA9fc7pcyOWysNnscp3JZFKuu6e7R46/vr4u981hdygwUSwincmo+69pYj/+n3bgWgik6sNhtLa2ir12dndxdHgox3pbCeb7PZLmu0wLmBYwLfCXtYAJEL6fPbV//pf/WY5GIpIlIAhgNoFRPx2K1WYTZ5TLZsVBMIqmM41GI5idmRWHSZBAh9/Q0IDTyKlE8TyWxWpFV2cnJl9PYnlpWaJdt8uNkZERNDc3Y3l5WRxUsaCibxX2MyIvwuNy4cKFYdi0Mo72dvHJJ7extj6P5ZUtNLV0Ym5uG3WBDgwNDyKdS8iV09HFYjFxrlw/gYvX4xXHRwdKcMB10pktLCzI3wOBOvlbOBwWJ0mnx+g9k83C6XZhY2MDW1tb4nTdbg8uXryA1rY2zM7MYGNjC/l8Qbd6HmyasGh2FG1eBPquoG3kKiK5IqxuN+wuC5yWHI6XZ7D5+BE6GxrQXh9GLBFDMBgQJ7+/v4+G+nqEQiE5HyPz1dVVxOJx1NfXo62tDflCXuxPmxO0EZtksxkUC0XUBQLI5wkMykinU8hlc/I+I7qnTXhtvP5QOIzTkxOsra3JPrzHBCa02dHRMfK5nGSBwqEQPF4P5ucXcHx0JNdKgDQ6Ngqfz4/Xk5PY3duTut77mkW/36Npvsu0gGkB0wJ/GQuYAOH72VEyCLNzc+LM6Xjophk5MkKlQ6FhCRboxOiRmGWgg9nd2RGnFAwEJIJntoEOv6mpSe0TCqGxqQlzc3OYnp6W9/K4HR0d4vzojOl8mfZXVW2mylWvgVsyCCOwlItYnJ/F8HAvDg63kMmW0Nk9gMWFXQQCHegf6EUyHYXT5ZB1ZrI5WavdYUee0b0G+d1oGGHkT9DDLANT+/39/crRoiylhEBdQEAOnR/B0PLykqyRTpbXWh+uFyszS3J0eIRczgAIBZSlUdGGLBxwtPRh+MY9FBxuJAt5ON02OLUCNqaf4WTmNVrDYYz09OD05AgtzU0SofP8ErFb1MQDt0gkimg0ivqGBslg8H4wg8NyUCqZhNPugNVmhdPhRDqdRjaXA8tCzDbwWLQxyweR04g4fJYWCH4IigiaaA9eF8tH6rhFyVYQKPL/wWAQHq8XMzPT2N7ekexOc3ML6vx+sXE0GsPB0aGeBfoefbrfpQ74/Z5v812mBUwLmBaQ71VuZg/Cd3sYtJ7ekfLx0bFE9YxOg6GQOPuTkxOJKrt7egQMHOoRJLMHwUBQHE5jQ4NqsuP4YamMDQKE5mbs7e6ivb1dQMLm5qaULRjpMkVOZ0YHZ7fZ9Tp+QY03Sq1bNUnabVYBCN1d7VhfW4TLaUO+kIHb44fV6sbE5DzCoWYMj1zA/sGhZD0IBugQmQ1IplKSZm9va5M+AQIWnj8Wi4tz5H5M7Xe0tyORUM6ZjpP9Ebl8XmVALBoikQjiiaRkORiB0xnzAWP2IU9woDdFljWOX3KagdMLVpQdXrT0DSLc0wWbxw1LuYyTvR3sLi4gd3yEgNOFlvowvG4XMtmMrC0cDiGVSss5mW3hxqwMHX8ikURTc5MAFWZJmPYnALKyN8CiwWqxSmaAr9PGfD+zJwQ5tAMBEV/j+pkp4d8JMPgeAg/1GktEaVkPO34J4pjRsNnt2NzYEKBCIOVwOFU1gddbKknPBzMIlkrb4rd9AN8yT/pt32ruZ1rAtIBpAdMCf3ULaD5fA0cKVPMbIM1t4qQddowMD6O5pRUTr16Jk2d0yvQ3nSXBw+DgoKSp6YD5N+M1Oh6m9CXrUDt7anS+V7rd9RCS0bdE4GqckGuoD4fQ09OBUilbnUktW3F8GsPG+hbq65sQDNVjfX1bgAbfaDhHXgvr5D09Pdjb28P6+gYKhXylQZGOjQ65rb0Nu7u7AoaE18BieYMzwehhOD+USA4HFeer+UcChIKmgTkFXonF7YY15IfT5wXyJUQPj6Clc7AVirBrGmwW/mPPQEH+cQBBegqE18AiiJdjnrQlQQ4zIZykqE6AvCtiL6tpDt5T2V89QwQVxj3miunUm5qaEQoFpZ+CwE8aSuWGqYkWvqfCIVEdOlF9HZLt4QioPuWrczt8uydWnws2MwjfzlzmXqYFTAuYFvgbWEABBH2TVDwdVbEkDt5f55folFErexAYgfI1bnzd6/NJ4xujVKP7nR6Jr9HZne9uN0bkqiMmhvfSa9gyr6omDOhCnE678CLQY6keSQsKxTLyOeVErVb2FBTF8XNTY4HKZ3NKgk16rKczGjYmDnhcZj+YLXG5nMhlM1LbZwaE5xGgU9AnHSyMi5WzrN0M2guLED0ZEIEgQQNXwpbPokVD0WqBxcbpAQ2lXEH4D2xlTREsSSMgkC+wLGARIGBMfCggoA4swERToE2BrXeQPtQsUE07Vok5KtOPAhIMeidINoX3ilkKsWEN10PtiCWBhjFHXH1WDHoo9ReLCRD+Bh9f85SmBUwLmBb461lAqws0VcZCa1kHxUlL3UZnLNQ0cSiceKADlfl8Pco0xhvFeenjjSparc6bvp0roQoQxKXpPs0Y1WNkrTb5i+4oNXH2dHTnxxUNByrRL6cUJBKvprLlevSSiHLARnOkPuDIXUs1XBBvI7/SORUMkED2RHGO+qWQVEmyCAZJkgAeC4rkKQBgt6qsAEEVMwS8RivXqpcV1OWqsJzvyxXyFfBljGa+l7SjhldBJk/ObcKVUMOXcJZnQaUJFIZQGQd1j6tEI9XDKUYysbnOKmlYs1zLGfHWZ9fMIPz1PtLmkU0LmBYwLfCXsYBWV9ck3/JGL4HhnKXWbjD26ZGrZAbogPTXjDT0WU6BGlBQs8ZKcHrGadUChFpnxlUwajYi1wqVknLwtfFxTfu8Im1WKXauSUXkNQyI+s9VsGLwGOiZC53U6UMch1UGSMBWBhzFMpxlDQbVMpkUpcxQuX62XxpYRzlh6fyXtZ8lQVK8A6rIL1xS+sihAZS+/W1/X/6+FvlUMxMGiZXApTfA0fn3VMEByyt5/rNAxjqLkgE6S299dt064Psz6EffSc717Q1k7mlawLSAaQHTAu+xgAAEcar06+cIb2ojdJYLVOngvOM59/t5x3Lu5Te/2BmSVyP5iiMs070a/1REq5zp2dT2mWurZRdkOt2oqZ8zQCVN/7YMgqz3w8VxrsaqWWEtlVBvd6PR4xOQwEOyF4Hu0QAMhquUo54BLAY4OHv9tQDkbUmMv+wT/SZY+C5ghCsvakCsmMduPIIEiqq08j728UqV5PtfnQkQ/rJPgXk00wKmBUwLnLeAKjFUaJardLlq3M6i+gh0CmZG5GcxhOFIaxyq3j9gnEg/uPxqRKiVL3fZ16DuNUYdjeS94U0NkQ2+vyg8CdWom/vqrkiqG8rhSFe93uh3JtugL+ptAKG6vm8HEOQ8hSLcVht6gg3oDjXCy/6CMqNpizQtVurylV4FQoUqTfG3EbT66z+y7wIIhv3fvoLKnZeMAXCUy2B2ewORYg45Sxk2i1UmG9R2FnCpZ8K4rx8GY29bgQkQ/vpPhnkG0wKmBX7aFtACwRYjx6zoikiPLOBAjfUZrHzydwKEs71s4gWrX9bKHVcaFmXutFoSUOJJqndBat06QFCuSAEEgwPAcCIibSQqiDyx+r86n6p8K7VHndBQat+sjevNeNJyoIMFqXwoB80kiKzUKE8YVRGJ7nkOBVKMOQWFbqqwhPwMPJUFVtjLVnjLgBcWuEoarCVNUu3qKMYxdGBQZvuiWKjGcUouojqpUSGNMtyqAZgU02TV1xp/r3m95r1VvUjDAdcCL10QS5+4UBmO82Cvdv93gATd/xMgpCxApJBD1gYU2FNhaKK9U9tD18/4PvoNf6bQ1U/7I29evWkB0wKmBb6dBbRAsLUawkmmQE0ocP6dAIF8/cY0gs1ik9o4eRLIFyDyy3S7FsCqd+IbI5PKQSlnLN6SoEOPKFmmYDmDXAhljvUJWCAo4fn10UjZ14Fy2YmylgcspABWHf1Sw+f7OGUgTZEqa6DkootAkVoEpA8uokQa5JIGu5UTEcxAFJAvaSiWuRrO73OBNgEVpEwWjFEmkFFNmVaNkxN5aFYLciWeh1mDIpycUshbqbgESykPS5ETCnZx/wWtoLtbqxJSQl4pVdJaAsDskuHgNZRKvB6XDlioS0GbKgeuQIxV/8fr5ahmQY++ycnAvRRIKpVycDgtMp1RLOZBSYpikeCKExm8AVS/pN6kAlk2/dopdsWmyiLtZ+G5jBtGO+gzjDV6DKp4YOAJHVtKmYHXLaaX7AnvaVW8qRakGJkJhS6+pb7Um0/z90s8fLtPhbmXaQHTAqYFTAtACwbb9K9aFUWqTIENNocCCCJWVCpKRkErW9AQrkc4GMbG5qaAhCIdEMfyxLEa1XbVXCiOmw2DMi5YjUiFzarMGr6SQRZRJSudNKWcSSGsYn2AAMKBkpYBNFIqc7TRIfvTUSohIkivATMFGsEA8/olAhkHCjwenX6pjNbGJrjdGg72t5DKlgCrS0SUVMaBjtGOrq4WOcb29gHS6TzCoSDa29uwt7uDSDyBosUhYOFSfzusxQK2d05QLttgt5WEjpoOmWqOtAXXqFnY1FlAsZxEW3uLkFCR9CiZSKK5pRkrK8tIJqjn4FYkTGVeJ7MTBD20OSdJmLXh/0vw+Wyor2+AzebC0dEpjg4jiruCtivl0dhUj/HxUcRiUTx/9hp5pjIoJCUAwQ6UbZKFISSwlAsCjsqaHTmOjzLrIgCB5y8KsFN0CqphUU2RGDmRmnTKuQ+RqqYo8iwBCW9senZGkMH370EwP7umBUwLmBYwLfDXtYAWDneUa6cQOA9PR6EAAgV+EsJ9QIfvcrrR2tQmWYSd7R2leWBnlK9S+WQjJLcAxZrIPkitAgIE0vVyNJHsfXRmDoddL0OUhMAoEAygp7cHBwe72NxaE9EgVVYog4RETncJPq9SiUwmFCMjz0PAQCCRTfNvGvx+N9weB1KpEo5P0kgXSyhqZVhLeVy9NIiO5jpsrs6JY88XmCWxolDMQtNISQzcvDWGQiGD2ZklZDN5NDWHMTp2CVNTMzg+jSKVU5MVIz2tyKbi2Nw+htXpwK1bl5HPZzE7s4F4rABKNDjsXF8ZhWISre1+3Lp1HZl0EdFoHJHoEa5eHcXjx99gb/dY1ssMTCDgFoBExke324HLV0YkOzDxaoYJGFy5cgGtre04Pophe3sPK8urworIfeOJuACLq1evIBiqwx/+8ADZLOB2UU+DWQULkokc7A7ajtkHdW9iqRIKmgdOtx+5QhEFaluUdUVMXRFSXHkl1NczCG9RoK4kFowUg9zD81stQPjrPtzm0U0LmBYwLWBa4PtboCaDoA5SzSAonn8SIUkmoFhCS3M7bl6/hd2tXSzOL2JokJLMjeIMuR91FwYHBwRg0GHPzs4Lxz8ZDZlS39zaFOZCih6FwiHEEzGsb66hvrEB4+NXMTU9iampCeRyaWh0LuU8HDagf6AVw8PtQm+8uLCCaCyGa+PjCIYasbd/iN2tLQTrfOjr64TNbsGrySVMzqwiU7JK6ttWzuD6lUFcv9QLSymFnZ0INtYPEG4MYm9/F03NbTg6jqCjoxFOpxX5XBmHB8dIZ+MYu3oJkdMYyhY7Xs+uo1Ao49M740hET/Hw6Su4/T780z9/LsyCX/7hOXa2I0gnS1LisFrLsFlzuPPRBSkBvHq5KNoPjU0B/Ou//hO2d7aRyxbwzTcvxWFfHb8It8eNZ89eIptJ4R9/9XfQNBt+99uvxEETZExNzWFtbUcIrBob6zE6dgVWawnr65t4/XoGw8ND6OpqxcNHj1HIA4ODvejt7UQ+DyzMryKRiOL6zTGhwd7ZPcTjV4soWPy4NHodq6vr2FiZh8Om+CdqBxWr/RhGI+iHov+zkxnvAgrf/9E132lawLSAaQHTAn9NC2jBUHtND4LKBKgSg0NkgpOpJEpFpowt8Hn9uHntJk6OItja2MKNazfgtLkUoU6xjLXVNfT19eLx4ye4cfO6aDM0NjaKGJHDaRfe/0cPHuL6jRvw1XkxtziH02gEDU316BvoxeMnXyOZiKLEmj+T56UMGuo9uDY+hGzmRHoQXC4vnj9/jrt3P4I/0Ig/PXqKsM+Dod52lAppKTHMrRzg9fw28pqd9QfYyllcvdCH7lY/4ic7aG8bxPFpGj6/E+sby+js6sPGJsWnXLh16xqODyL4j//4DRxO4Ff/9I+SEfnyq4eYXdpGOl3AJ7evoiEUwG//9BixdAo///wO4vEIXrxYRCnvglZ2S5+A1VKC3Z7HL395G+vrK3j1cklq/Cxl/P3f/zdMTLzC0PAwnhMQZFMYG78oUsxfP3qOicnXuHnjupQ//viHR+jt7cHH9+/iD198hfX1XQSDdRi7ehEerw0nJ3vo7RnGl398iubmenR0NuPBg4cIBsMYH7+C0whpst2w2z0CwAg0HE4vXkzMYP0ghTQ8aGnvxfHJKWKH27AjpzMnVnsQzpcD2Lvw/u19AMF474eO8dd89M1jmxYwLWBawLTA+ywgAKF2GI39AbUAISU0vCoiDgXCuHf3Huam55GMp3Bx5KI0ILKvkM47Fo1KZDo1PYUrly9jZWUJw8PDWF5ZEdVCyhFTu+Hy6BWRe97a3QJsGvoG+tDc0ohnzx4jk01Bk25/AyB4cfP6CFKpA+TzRbhdXrx+/RpXr15FoezAF19+jeagD5/eHUdLcxDLq0t4NrmGneMCmju6pD/iYHsDYyP96Gypw+nhNppbe3B8nES43ov9gy10dPRiZXUDPr8Dly4NIxHP4MFXD1Es5/GLX3wujX8vJ6YwMbOCeDyFz+9dQzhYhz88eomjaByffnYHuVwGE68WkUnzkpzo7uwRiupU6hg3bwzBbtfwenIB+UIB4bAPd+/ewfPnTzE+Po6ZmVl0dbXBai3A463D6souXr6ckNdcTi/+9KcnqK8P4d69W1heXsHiwqooWI6MDMDnt2NvfwOdHUN49HAKbe1N6OlpxTfffCMyzpcvDyMWP4bd5oHF4sT09GvpU0hnSnjw9UvES044gi0IN7bh5DSC9Mk+7CUCBMVc+a6NpZb39wl+qIvQBAfmV5NpAdMCpgV+yBb4IEBgIyJ1GOw2F8bHruHq6DhevZiQFHxrc6tMIhRy+YriYW9PL1LJBLa2tzAzO41PfvaJTAOwRj419RptbW0YuzqGBw8fYm19DVaHDYPDA+jt7cbM7BQ21ldl7IHdBaViDk6nhqtjQxgb7UMmncXE5DSOjg7x+eefI54u4H//5+/hthTw6e0xdHQ0YHp2Cq9mdxDPu/HLf/ilNB3+/j9/g96OLnx0ZxxetxUb2wd4NTmD3p4WBAIuNDd14OnTV3C6gEIxjXCoCShbsb29hc6ODnH0/YNDePRsQuSg//Hzu2huCON//+ZrzC1t4dLlAQwODGBtbQ+zM4so5nP4X//P/8LS4iqePvkagaANn3xyT+wQiZxiZ2dbpKYnJydx+fJlzM3PorW1CS2tVNJ0Y35uE8+evcCFC8MYG7smpYG5+Sl0dTfiypVLSCay2NzcQSKRxp0712S6ge958NUUevs6cPeja9jb28Hs7Cw6Opqll4E9CK9eTiEWj+C/ff4Zjk9S+M1vH+IglUPP5THc//QzyczMPHsKjxoUqQ4hvOUJlgkHczMtYFrAtIBpgR+tBc6WGIQGoASLzSZpdY47MoPAUJHCSA31jfB6fMgkM0jEU7Ba2D2veAacdgeuXLmCyOkpDo8OpZOefQnMKHi9HikzxOMx+P1+6eY/ODxALBGXjn+3x4W6Oj+y2TSi0ZOa6jdTEwV43FY0N9fp0s3H0t9AKedssYzN7V0EPFZcHGhHOOQVgam51SM8n1xFMByUNH/k6BQehwdNjSHpMTg8jeIkEkMo6IbP55QJBk4FWDieKF38dslUUMTIZrWJHLPH50c8k5O1dbUE4LBasLufxPFpShr/mpoapXfh+PhEpiOolFjIlXB8fARoedTXBxEI+pHJUNI5Co/bI1LTXp9Xmjd5jEDAg0IBSCYKku73ed1obmpFvlDG/v42bPY8GhsbYLe7cHISQyZTkGuy2ks43E8gEafAlRX1DZTFtsh9sFhLaGgIoVyy4ODgBHa7Fa0tzcjlgP2DKE4zBbQNDGBwZATz87PYWlqCS9dheB9Z8oczCO//zFThxYcyDT/az555YaYFTAuYFvhBW0AL1PYgiMigolQ2lP6SqVRlRFENFtTQBwk9s/qbx+VGb28ftjY3kUgmZDSOTorb21jvZNpeM1QPjHp1dQaf71Osgwa9MvkRaoshiimgUMwhHHLh2viIROGJZBJT02tYWdtHkQP5pDwmV4DicBJaZ6ouqjOqYxvixdU7pXfa1/guoQTQ30eiJBFZhBr9rJIMKWEoIYoyGKR5BRVK51o+AEWepLZz/y8r2WklrKQs8SbFdG2Kn7Yh2RK5Dgwb1h6zcvHqdLw3mk1GKHPFMurqG+Byu3B8fIhcKgObLoT1vieXPQjfN4lQpZI+f/0/6M+KuTjTAqYFTAv8pCzwJkDQmxRJhkSgwCZFYSuo6Tnj6GHFqQlgUMyFLDdwtFFm4EUi+A2W3YpxhTfhzMtvajKokfp3x7FlrYRiMQdoOfjrnHC7Xcjl8kiliigUSERkiCbp9D508JXzKubGKjwQNqcPzOZXHTydnOz9lgC4wqAor/Gcb0vHn1FoOPvQnecVqgCI2rj7Q1MCH36OCXjkvuqql0JSxesSgPDu9xvZg+8b+5sA4cP3xtzDtIBpAdMCf2sLfCuAIKrNZ0hvDLU/ihPx5xpJZSHW0aT0IA5El4B+24VWIlAlcPgONPG+Wrfh4knsU9KFkIQ6SKczVg6f1NG1tMmKiOnsf3IJOjFQrUx17bqraoeVQPxM8sBIBhhUyjpX4DtBhxAVGcX+cx7ZwFYGUZEQTtUspnwm+/KOx8i4qHMvCyaoSDnrola6fLeRrziPECokWPoxDZCglq2v7BxiMNQ+hWNJV8rUIZOsqKpx+X2hxt/642Oe37SAaQHTAj9eC3wvgGCABWFLLHKUz15x8OLIKp5MublaIqZaU6oAW+0sx3yrQ3sHQNCZGytFCb2GwPS+qFIa4k2SqtcjYt0PGeuX/IEOfFT5QO3LDIjoReibAYCEMVLkrqW+oJQWhPWw+nsVOqi/n+cPUJesAJSVNMzCBqk7f2x06TUAACAASURBVN0WVaerSgOkfz4vomnAG0lhnKlc6L/orIdCQW2sUwds6r26moVOV33+EVeXpN8T/f4oLKBfrz7FUKunoY6h6LqNe2rYTLFDqjFa9R79+B+YhfjxfvTMKzMtYFrAtMAP2wLfCiCoKFc5cdIa88u9UCwoQiRDkkh3rByJtNmsICNj7ey8lNMZtbKpkTV65WF1N0FtBZYl9Pb5is2U46111MZalCuqqczrmQvhZOCxdGfFn0V8ynBsupM0nJnSXlDYROlBWFAoqDIJt8padcfH6+IaWH7he2gD0j5XouUKpXRNh4FeajCAEsdIOfJps+qZFl24qhZ4GUkZ6UPQtwqw0QGJARIMPYpq2YeiV+xjUE2nvB/cR9auO3uyUvJn9VptH4W6J+fPaTj+ahZFAQVFz2z8rCi21b1XQMq45yTdKhaY6dHFwM6pfv6wPybm6kwLmBYwLfDTs8B7AYKiWiaTYjUKdblc8Hm9iESjypGyEVCmHKgloEJHOh32ApDtjxGsOAoq/ImGgq4xIBG7rnaoYwVx+DrFsqo4lGCxKl5/vo9OmZtE3aI7bQANHl8HE5IqV3KKPAMbJemkvB6P6qlIpmQkU0XtCjwYUXwwGJR9o9EICpRydrvR0NCAk5MTmWTgdZDHgORPfD91KgynawAThQV4zmqDZqHIxRjCUuSZUCBL7/BUehUUPNK1tLlmxV5JW1l0nYYqwJKsDLMZFL/WARDBFa+L1yL3yOcT3QeuW0COOHE1ccLXydjIEVZOqRSKFI0y7rGCGRLh64CNr9GxK6EpdSyb1S5KnyILrgMEAyQpsc3qs8BJFtqdDaQCKgUcnC37/PQ+euYVmxYwLWBa4IdtgQ8CBI7gqXS7BofNjqbGBrhdLqFNZh3aZnPoqoJlAQzSrOiwi3PL0oGAqogUCdLkdTUlQWVFNf3AqNLldqKtrVVGIQ+PDhSoUO4PFotSaeR4Hr0WORn4VoIPyi0zw57NJ2G1FeH1uuXY6VRRGA/piJghKJaKGB4ZQX04jNW1NRweHoozddltKPJ4srY8xsevyQjl/PyCrKWttRVjV69icnICpyenyFFkoVySY6UzaWxs0AZlDAwMyP9pk1QqI8qVcoHidC2gtiOZKTk6ms/lxA5Opx0uh1MyCZlMRmwmY6Msb0h0X5amT0MRs5AvwGqzyNglszQUjbJYKV7Fc9EuBXHYXEdnZ6fQWy8vL2Fzc0vew30JZgh4hgYHEQgFcXR8gvmFBZk6USqQRTk2AZ7e0CFr4T+WkQxwxnPRzgRcvJZMJisKn9TYYHYkm8mIfe0OBwKBgDBn0oY7O7twutzCuskRUJEBNTfTAqYFTAuYFvhBWuDDACGVkoUX8iW0tbbh8oVL2N7axub6Btra2tHS3Cqv0zmtLK+gpaVFZvvpVObn5+F0OtE/MCDAgcRDjMbpUN1uD3L5HHb399BQX4/bd29jYWEeDx49EIfO/gCrVoDdUkR9vR8jF/pQLJQwO7sgmYGBgV54vQGkM3nsbC7B5SgLsZDfH8Tk9DJeT6+IfoRN05DLZ0R06er4ZaTSCSzOL4vYUWN9PWLRCELBoJAhDQ4OSvQci8aEs4HO7sqVy1haWhQHuba2JaOBY6MXcHh0hJmZZfjrAvi//v1fRCXxt7/9IzY2tsRZcz86dbvNAofbJmsLh+uFCfFg/xC9PV1oa65XehRra+jt6RF+CAIIcinQBq2tbZK1oAjWEvkJnE709vbKWunYqWfR29cnapvb2zvY39+X14eGBmF3efHgm6fCWEnbiwy3RRNn3dzcjOcvXiAaj0r2oq29DZ2d7Tg6PsDh4YH87PcHpERxenwiGYbWlhYpLxHMzMzMCB9G/8AgopEIJl9PoqW5WZ4Hv8+H9fV17O7uob+vH51d7ejo7MSvf/0brK1vY2z0JjLpPFaWFgUcvqs/5Qf5aTEXZVrAtIBpgZ+QBd4JECSitXLMMaX6D0pAnS+Ij+7cx8H2IdaXlnHz2nUEAnUScabTKQEEBhdC/0A/FhcWhSiJkaaq2Vvw6tVLXLt2HXXBADa2N7G1t41gKIiRi8N4+vwptvd2UCqxBFCEtZhFU50LV8f64fYWUSpakEoWsLAwg9t3biDU2IKJ6QVouSR6moPwe32wWJ14MbOG59MrQnnMWLhQSGLs6jCGRtqRTJ3CZa/D3k4EdYE6bGyuo6urS6JbXstA/wCy2SwePnwoWfJPPvkZoBWwvLyK6ak1ZNI53P/kKixWDQ8fzonc83//1cdIpKP4+tEE4tGMJM+ly589DdYihig2NdSDhYVFRCNx2CwOfHr/I2xvzqOnux2rKyuyBhkttduRiCclHR8KhqXMkU5nKlmNsdFReH0+PPr6a1FyHBwckoyIzW7D+to6LlwYEbAGVxBfv5rFyuqa2N4oPdy+c0ec8pcPvkI6m0F3dxfGrl5BNpuA3aEhk4nD7/eivr4ZxaImmRSb1SrrcjpdApSePH4s97KvfwD19fX49a9/jb7ePjQ3N6mMQjqL3Z19Yczc2d1Af/8Afvu7P2FrK4Lr458hGklgbuaFiHGJLPZ7KJ1/Qp9F81JNC5gWMC3wg7LAewGCxWpDPJ6QCJTpb4/Lh3t3fobF2UWkogmMXros6X+iB9bCjw4O0dBITYWnuHP7jig3MqJ9PfUa9fUN0gcwPTON8WvXsLe/j5X1VWg2C9o729HS1oLHT79BvpRHscRUfhHWUgZdjQHcuD6E3b05lEo2NNZ34MXLpxi5OChaDF89eobuliDuX7+EUNCP45MYnr5ewfz6EUKBRjg0XsMhRscGEQzbsLW9hOGBMaRTgMvjxsbGuqTkNzc3JR1+584dbG9v4z/+4z/gcrnxb//2rwIQfvub32Ft9RCpdA43bw6jobEeTx4vI5rI4ue/uI5I9BBPn0wDZaeUDjxknMwy5Z/DrRtDcLk0fPnHlwJ+Bvt78PNPPsbvf/P/4trVy8ikU6J6yZ4Bsk6yvs/egHwuD5/fj1wmi3Q2C4/Hg0CdAmSTU9MiUc1eg909Rut9ODo6QnNrK5aWltHQ3ovZ1R2sb2zB7fXqEtpl3Lx1C1a7TaiuU5k0Ll2+iN6+HiwuzaC7uxUulx3JZBw+X1BYHbkWlgqYVbE7bPB5fdjY3EB7e4f0GTAb8Z//+Z/o6OxAiv0dxSLa29pxfHiK/v4+PHn6COM3buDrbyawsX4Mv68TpYKGZPwQNivLDOwdIaQyN9MCpgVMC5gW+CFZ4IMAIZlIcvgPLqcbPd29uDl2E5MvJxE9jaKnu1uiXqbFmc5n3byhvkEiWm6LS4u4Nn5dKIXZmMcavcPuwMXLl/B6akr0Giw2C/oG+tHa1oLJqUkcnR6JEwWK0EopBL0W0WFobHAily3jYD+Kzc113Ll7E6msFV/88QmC3hJ+dvsiWlvCmJtfwKu5TcTSdty+cU8YEZ49fYie3hYMDbUjX0yiXHRga/MYDY0NMoFAJzc3OwuX2y2Kk2zi29vbQzQWFa2EfJ5005qIMcViSXz08Sh8dT48ejiLnd0jjI73obE5iMWFLWxtHEj9/pNPPsHO9i5WVxfQ1RXEhYtD2Nnex/4e+x+K+PijO0hEjhEOBrC+uormlibQ1g4nKa6t0mvBaJzU1MlkQn4nOODG5tH1jU1J/Xs8XhwfH1dAztDwCGCxoWix45tnE0IpPX7thpQpXr58ia7uLgwMDiKWSAjdNUsZLAO4XMwyZHFyeixZAr8/hFKRZQmV+UmlUpKJ8HjcUobo6OhAIhGTnoavv36I1rZ2ATq8Nj4Dezv7GB29gtPoERqbW/DHLx9jby+BT+7/I+KxNJ49eYAyRaH0EUwTIPyQvhbMtZgWMC1gWgB4f4mBcs/JlAR5DocLI0MXEA6Esb+7j5PjE7iZcrZaVRObzYY+1sNRRiIWx8IinWkMvX29CIfC2NnZwcGBcixNTU3Y3NrC/sG+1PzD9WE0NTfhOHKM3f1tNclARcdyDlbk0NTgxchwp0S0szPLkvK+eOkSUukSJqbm4LJlcGGwCe1tpAx2Y2ZxG69nNjE0cAl2qx2Li/Nwuazo728TxsWd7SNsbR2hoaEezU2N0iDI/gmm0QkYmIIPBgKIxePS7c86O/sBjg4TkhIfHumC3WnHwvwO1tZ34PICQ0N9yOc0LC6uStPelSujODo8wv7+Fqy2HAaH+lFf34r11Q3s7e6itbkJ3V3tiJ6cYnd3W7QcWBqQ5ksOYVQmN6zSQMnXfH4fWltaEYlEcHBwiKKMW9pFM4Lg4eDwEK3tHWhr70Q0lsTC8goyuQL6Boakd2B5aUkmIjq7uqQvgAJai0tL8Nf5MNDfg739Hezt7cLr9cn95oSKVRolNWQzWQF5Hq9bAEljQz2CoQDyedUfwbWxOZE31OvxInJ8iq7ubtQ3hASMzM2vIV+w41/++X9ie3MXD/70O5RLatKldpTT/FCaFjAtYFrAtMAPwwLvAQgOEWgi1TIb2QgSnA6XjKlJtqCouAZkWFEDQsEQuru7Jf3MVDcb9NgZr2bldfKhkuJRkBl9dszLWJ8af5QRSBRRKOelQVENQZahlcqwWdjsp7reCwWZ3ofN5pR1cYwvHHZgeKgVdQE3nE4H1tYPMD2zhjIcQNkuctQkJeKkg8XK0UxyF1j1KQA1akleB0XfoyiEZIywMsfP99tREm2HMmx2ji1y5NGGYoG9BgXhNODrhQK7/rkPI3JeY17Emhh9Wy1uKQuUi0VZj91mRZn7CKdELRdBDbOgruNgjBByaoHHN2wnd4AjmzKuyakPGzQrpyGoU0HeAV43f2cvBsEP5B4YY6ly3TK2aJFsAo/BjIEwHyoSbXWXDdInC/kNyGXBygBHXFleUs2G/Lui3daJoDjOSf6FsoZMvgSHw4ux0RtS1jnc35AxUxMc/DC+CMxVmBYwLWBa4LwFvhVAUPwGFUok3WHoAEFIfsh9YFMjeKWSNPkZZEKKNEdtb6SRDUekz8yXLCWUyWegAwSd1YfuW4YFCRDKUjSwyz/uVyzlYLMXRSq5PhwUfoa9vWNkM2rNdMgWjc7ZDljyAPKi1mgIG709tW3wDCrGQY0iSGW2OxoXQhAjUEFfk6qlG27dYGFUfyGYoA1oPxc0jU6T+5dg1Y/Chsw3tQ+MoxlrOXvrWPbRIdQ5imrl2NXGFSgYd2arEZDQOZd0bsUKseV7NClqwIsclNdncGWr13h4g0FSVk8SLdpKs8Hr9UspolTIQEP12TA/mqYFTAuYFjAt8MOywIcBAnkQJGKkY65xNHpEqSJA5UaFvKiWOrmGdlfIcRRd4TlPV/29pJVQEmdK7gODbIeusCjRpnKKFmglByxlh0TuxXIWhVJBESJJdkNlBLhm1SXPtTtg0RywWMiCSOfOa1EcCm8FCIrFSPogVOTu1AECf9b5CwkIxDHqZE+69JPwE1akKQzbsKeC53Tr16Cux8rrYnpDz8IYZ61wFVcsdR4kGPkVQoxaVccqElPmUxmas1dpEC0bBzdokQzHf+Yuy/hmlcu59taR9ZLHVhoYFYZLTbEnKgxSyQNJFkGBI5V14PW/ZeVnno3alf21exSqkOqH9QE1V2NawLSAaYG/lQW0Oso913w7svbNTACJfTjmSLZAUfizKKZErVajgOlrnUGRM/aKzMemswJyLFHRFQuLoq4YeNYDGC5CX4CFxYWChKCGILOoOepgoaJ5UOY56BzLKNCJyzlUWl2olYX2uQwUc7BaVXmA+ytiZu5PJ8XxOsIN+j89jc6IVqPjMuiHdYZBAQhkcVSkTYrIiUkBFTlbeCwWRrSiLu1sRPG1bscCS1k59JI4xxIoG20h4BB9AmUZQ7TqbJx+Pmrn8blmdbxKpkA0qcnBQACiRi1VeaCmeKIzVSqxCv18lZMrrQWjcbCSDnjb06kvyaCkNtQdeEY+Czy8TgwpGQQyU3IqpvK63Isa7HEeAQi7tw4RdCpqYefWOair+Rp9cToVuKH9IJfHdbxls9ToVLNqZChz6vkeddl/q0+keV7TAqYFTAv8QCyg1YXbz+g0ioiQ1SajbQogxNWXujhdwCr15Wq0+ed+ldJ5GVS9Mg7PMoMRtRoOnzX1Ehv3WKvXQQc1F5ikFtEgqzihUikvY4U21uEJCNg8qVMB12oCqQtmRFtiEUJ3/vwpC02j03ZKtCsshqyvw4mylBiUIy8W86CaIvRav0MccAlFSwlFCZ3lQvQIWzlplZQwomYFCoTrQYr54t2q/rKmXPHmc6KyMGUBJYoASUoaBDn8Z8lA4z/JttBuah3sKyCwUX0KitZZ1iDLU68b2QYlbqWoodXfauWfVTaDAEy0NEu67oK+fkUiqZ4R+adTNldpmKs9Kca1qet480rlHPo/HtPoVeGekiGq2QzGRwVYq70t1XNU+bzl7pTV80OAYBGQB/lZ2kz0MskP5DNqLsO0gGkB0wJ/Ewu8ARAUFbJNaIGZSUgk43qwqdjzPW63jDbG4iqz8OcBBD1PID5H6SnQT5Fi2XBCbLJTjoqxclE5dP2sJQEJdAhKmEgDRwMz4twddo8uMEUnTH0Cjg9aRCMin1MOVWO0LedSgMLjZRYij2yGVMbsqyDPgAfpFGmMVb2czicQ8ElZI5rMQCtb4LTQwRSRZ0OeOFqqW6qsgg5FZP1cuyZKkapngXwPnMhQ2guGCuL5bMHZ58JI96j/EwTIqtT5NBvKSMFqS8Pl8iGTJg1yEVarSwd4dNicHCjD7iQItCNfLCKVzsj7mZEgYjCyGAZgEJ9pOE49X2E4bsObGjkKZg8EgLAhUm+85DNFUiqOwxZLZXjcHgEgpOImqdK7NiMjZLAtqhKVyjqcZ2BUFNXKGob2hNEAeUYjgveBthJAwPsFWMuATQcI/F1g0ftvw9/kw2qe1LSAaQHTAv9/WuA9AEFx7ZP8xqgv2yxWoScOBUJYW9uQ2fw3Ur3fafUqFc9sRTAQRDaXRjwRlSkGRtdGJM7MAZ21jZlrdt2LuJG04wvJjoTBFBKy8R+QyzNCJnAAitIAmEV3TzPq/D7hN4icplEq2GDR2LTI/gDVxHjxUj8KhSxWVzaRTGbQ1BzCyIUhzM7MIxKJy9gfNRBGhvtQKBWxvLEvQKOzOYhiLouDSBy5Ep20S4/oOSGgmjmZ7XZwsqFYQLGQk34N8g0odciSjFjWNjp+GzOqQgx7IRjJQwiImEFobPKgs7Mb21v72No6hkXzyOSC8vwZhOq96OxsQyAUQCSWwNLSKtLpPGxWl9BEU49BKVvqwOyNDkrqbjATwVIMMyoKPKkoX0lREPyQz4LHoIbEtWvXsLW5JRTbXZ3dyGTz2Ns7EK2IQl4BQmPjuanrQGChlDUhUyFiHxHjMtRFq9kkp8slo54k9iKrJzeCXJkk4dQIHyA9USMllLJFsj08s7VUhrXIEhEEMJgA4ds8feY+pgVMC/zYLfBOgCC0vwQIqZRKFRdLqPPVob+3H5lUVoSKwqGQzMwz2uK43MnpqfxNxhoB4QGw2a0yAknnQV4B9jQ0NjQKv0A2n8NpNIZAICi0vJtbG5ienpDRRUPImVmF+rAHHe310v+wu7mNTCqN5qZm+OqCSGXziJ+SPtmG1pYGeP0urG4cYHVzX6iCVTScxuXRPgwO9uL4+Aib6wcCEnwecgjE4XL5kcvmcWV0WDIQ+3sniMXJaujA2NglLCwsSAbh4CAijv3CxV7EknHML+/D7fbjV7/4GIVcGl998wr7xwmU2UDJ6L6YFTVKl9OB9rZW+DxunJ4c4eT4CA3kfmgMIx6LyZpIU0zAQAdIXgP2b5BbgLYkBwJHR+kwSW1Mh3d0dCxUy+GGMPLFAmLRBI6PI2hs8qNvsAUNDe14+nQaCwtbsNvrKj0kDmcRIxd6EAqHcXh8gngiiViM9Mp1QsrE85AzgRwRLpdTAE08mRBNDZIkcV2pVBrbOzsC6qhsyft+fHSEpqZmuD0uGd/c3tlGOp1EZ0eHaEb09HTj66+/wcjIRSkXra5s4DQSE2BDFklyPRCcxGJROQ6VNTkNs7m5AbvNgfaONgEttBV7XQgIotEogsEAotEYRkZGcOXyZbx89QoL1ABxOYU8ilkFalTwmtrb2+Hx+pBKZXF6HIfV6YDFZsPB9g4s+aLkpkpS7vnz8mI/9i8N8/pMC5gW+GlY4L0AgeRH6VRanCK/1JsbmnHv7n1sbexgfnYe18bHhUmPqVw6tZnpGVy8eFG+uMPhMKamphAIBtDU2CTNjKeRU8zNzeHmzVvCYrizv4ellRUE6+tx7fo1vJp4iaXFOcTjET09n4fXa8XVsT50dQVQzhexs7GPzfV13Lv3EZraujC3uIrj3R20N4TQ3t4o0eqziXk8mVhAueSAViJYSeHKWD9GR0ckM5FOFrC5vouGhhC2tzfQ2tKJvd0DhOt9aGwMolyyY3Z2HplsEjdvXpVomA54cnIB+VwRn352E4lMEl88eA23uw7/97/8AsVcGr/98ik2to9Fn0Hq/eWcqFD2dHfh2vhVRE4Osbm+hmQihvsf34FWLsDttGNxaV6oklm+YfgaOY2IQ2tta4XT4RRiJAokkZPi9u07AiK+/uZrBENhXKC9Y1Ekk2khaRodH4bHz74ELx48eI2llT1YrX4BSsxUtLaFMHp1BBsb25h8PSOR9fDIEHr7OhEIeESwKZtJCeOi1+dBIZ/H3u6eUD6T4IpOm2Dgm8dP0NHeges3rot419NnT3Hvo3sCDKkh8eTpEwE05MYgOyVf+OOXX+Kzz36OtdUNzMzMIx5LCnHWnTt3EU8kRJMiEoni1u1bQrxFQPDw0UN0tLcLyCBpFwm3CChIi72ysoxLFy/hxYsXuHXrFvr6+/HFF19gf28ffX29AhAIctc31jE7O4e/+7u/Q1NLCxaXNrC4uAWPzw+v34dXT55BIy22DkvNBsWfxpefeZWmBUwLvN8C7wcIFGtKJuXL3aZZ4XS48dGdj7GxtoWTwxOhURbPIw1pJexs74hs84sXL3HjxnXRN6AI0frGhqR/PV4vXk9OioQydQAWV1cQTyfR1tEmioJPnj5GTmiN2RjInr4MGhv8uH1zAMeH85L/bQy3Y+LlC1ynNLPbhy8fPUFD0I9rFwZht5URiZ9idmkXy5un8HmDsJY1JJLHGBsbRlNzELu7myIeFI/ERdtgY30dXR29Ii5UV+fEjZtXcXQYFfVBh8OGX/3qv8PhtOAPX/wRiws7UtO/fXcEgXAQXzyaRjpTxj98dgvJeARfPX6NokZZZxs8XhfyhZzY58b1awj4ffjDF3+AVs6is6MNP7v/Eb5++BXGx64genos5Y9sNidROw1ONkZmD1ivJ/iiumS+UBBFTX9dHV5NTKJQKksmgFoMvb2DAnJaOsLY2JpDY/MgZucOsLqxA7cnIE0EbDjt7+/C4FAfpqZnsLa+gUCwDrfu3EI0eiT9F41N9VIOkckTC+WklaQzr4PCUVxDKpUUEEjxppGRYWxtbYpQ19Wxq8LMSAGplZVV+f/y0rKUFUgfzb999vPP5TlZWlrB5ua2gIf/8e//Q9gZf//F73Hp0iUMDAxic2NDSk9UhiRl84MHD+U8zCxQlpvPJW3CbNSTJ08wOjYm5/jii6/Q39+NWzdviZIlgQ3tOTn5GhSqosbFxOQicjkbnB4PbE4nogeHsObVNIy5mRYwLWBawLSAssAHAQJ7EOis7VYHWprbcPfOXbx+NY14JIXhwREpHWSSSWm2Y+qf2YK19TXh45+ZnZHaM0sN/jq/aDSwZHH5yhW8np7C6tY6NLsFfUP9aO9ox6uJF4icHkscx+7+Qj6FYNCDG9d64LZFUcwDuRSwvLCIO7dvIVnS8Osv/oQ6tw2/uH8H3V3Uc5jAi6l1xNI2XL0yBrtWwsTEcykv9A90IpWKwOt1YXNjDU2NLUinsuho7cL8zAK8fjtaWxuF82BubgnpVAY3bl6X0cGT4wgmXi4hkUzj3sejCDaE8JuvXuHgOI5P747D43Lg2eslHJ5Gpefh9p3r2N8/xtbmpsgv9/V0YXZmGtEIKartuH/vLtbXVtDZ3oq9rQ00NzaKgiOdMB0zqY3JUEiBK6o5MhonJTWb+kR6emMb6VwedXVBEb4aHBjGzs4BOrobkcgcwe1rxbMXqzg8Osaly5eRy+cxMfEKba0tuDJ6Gcenx9ja3pR+jyujV2T8M5fLSIaAbJTUeMjm2JegGlbzeY6Mqp6D09MTifxj8Sjq68OSFSLNMqW+19c3MDo6hpkZZopuimYEnwkCCAINOvfp6SkRxGLD6PDwiIBIXvPvfv9bjF8dR0dHJ7a2tsTBc6Oi5vNnz7GzuyMljo/u3ZPniOukrPTEq1e4/8nP5JlhGaO5qQl3P/oI+3t70ohJoMryxejYKJ4/f4HZuXW4PY3oHRyEy+vF0vQsyu9pljS/LEwLmBYwLfBTtMD7exCsLDGkoJU1iRbZf9DR1on1tU1ETmMI1gXAxkU6FaZyW1tbhF6ZKXIKATE1PTAwIP0GFCLa2dlGIBhEW3s7VtbovA7BKTzqMDCdvre/i8PDfRQL7LS3oFjIgL1p7e1BDPY3ywza3OwK8tksxq6MIlMo4/GLV3Dbi7gxNoTmpjBS6RTmlvextHaMyxcvwmHRMDX9GoE6H4ZH+iWyPzrYw9r6KlqbW6X/we32YnFhCQ4HpyEKsNtdonEQi8YllZ3NJkWlcn1tD9lMHpdHh+D1ezExvYLN7T20Nqoa+2k0jZX1deTzKdy4eU014W1sSu3+4oUR6UXY3tqUaxzo60Od34t8LoutzQ1xaiwr2G12AV2syTOiZS8IMwukY2bPgd/nlyh+f/9Q+iLoyJmeJ1A4OYmgs6sVgbAHqXQZkzOryBUKuHjxghyDJR/W5vt7+1AX9COeiIk+RjAcRGtLi9T/2cTpdrukt4TNilyDMGSymVJnXWDJg+JS3I/NhIYjyR8MUgAAIABJREFUZ58C7zN1KyR7RDEvh1PKJDw3wQ8zBFzv9tYWMumMAENmD9ra2jA9PS19EAQfzFCsrq4KKLl0+ZJkMg7290VvgiJh3I/byuqqHGtoaEhEt1bX1hCPxTE4NCDZCWqGrK2toaW1BT09PZiZmcXyyha8/gZ89PF9uDwu/OH/+x0KnOQQyKxPSfwUvw3MazYtYFrAtECNBd4/xWBVUwzsMaCojsPmkPn6ougNFFV5QZ+Hd3s9uHDpokSG+wcHMuHAOjK3MyNx58wvVL+cm68wMLLfgfwE/LJmqUERJ9Gx0UmwS53ZCjpOriWbzaM+aMPIQCvq6jyoC4Swun6EZy8XpM+Rmgfyra9B5Ip5Lhm3KyqtCF5brpBHgX0WlSSzYgM01q7a38kYqPgBGMEz4i0US1IK4PU5nC41OkenKiyL+oVysECmGDQ5HzMBjMZpNztHLkgwJZMM3zHBbdAZS4VHdffzHDKi6rDL9WTz+YqqhdJUUKOUnCzgCKKaUtDvj5R01NrF9DWzjXJ/hJPCIHXSYLEq/ooPb8rj8hoJ+ggiKBjF7AGbDTnp8L4rF20Hvs9F8aiSNGxyf4IOPoPMjJSEhMkiKpwEMulMRkZH3S6XnJfZGE6JOB0Omb5IZbNwef0YGhxCMZ/H/NycTMbItK05xfDhW2ruYVrAtMBPwgIfBAiJeFK+2BnJUcq3NswyaHToTewuh0RssXhMGhu50ZFyo1N8qxMQumbDG6mRPfUtreh7yXKgphkUC4IR3RmBnhD6lAGf24quzgYEA3XSlb+1fSTRvM4JiLLuCJWrUmyLhkPlAehgz66Q3AvqLMbofe3TwHF75Uj1q6oQChmUSMpxKtI//RqFWZCcBPr4ZbEoQId7UpXxuwIE49qMNRj4QsYKrTa5HrlWg9dAyJCMdRtXo69Tt0uF0KkirVC9a0J4JLeglkno24OaitiTgSl0pkSDo+CNT5txaJ09sQJSyM5J0CUcC2rE0rAdnwf1rCiAp0TCdMrpCjOjtMzAanfA5XahkMsjl80JWKo5pcmD8JP4+jMv0rSAaYH3WeCDAIEpYzoFOjZGX8YXuhFgGtS3QmsrNL3KZVX8gMEK+NYI2XCw+hLf2KfWCVcvQ/EK6PTNErVTgEk5WZmbhxVWZjvEYahzkN5YOQ8DZxjshQQLxoJ196c7Gu6vWAWla6+yAJUlUBoFlbR0BeicGek/Y3udJVinrGbqXtFXizLjd8wgnCcKMk5kOE5xjEYWpHYVVQNU/irOt2qCKhPiOVgn1qkhTKrlLnjXQ6asr+6N8f4KnbTOZ6AOqwPEiqamDhb1Z0oJYFUBSeX6axx/FfacWWSFyVKBNZWtMshAlc6IwRqpjmDyIJhfmqYFTAuYFnhPkyKjf9aeU0lOFVRT7rWOqTbiMsCBYVR57YNOT+ksKGZBFd2edXy6U3hLJpspcxGAIotiiSUP3cnyb8x4yJe+8X7D+ag0unGOUtmIPmsjYRWbVyJyEgzRZVTYkPUUPCNOoUuWGonuOPX3Va77/EC9EpHiy0yBs/xhsAW+z1TVbH/VEDUVjBrkVBVaogMUSFSrSVBJeJxzoLqTNRy4AKu3LMhw9rVY6IMfIr0EVSldGNLR4qTVfa8CBAPCGYBR/39lueoHkQs3npmaBRgZEnUuA6waQKPKvlhVwXxz9UqHwmRS/OB9NXcwLWBa4EdvgQ8yKaaT5EE4CxAYzTGjUKph0PteltLFHaX2XRtlVg72DoCgixBJTwCplgUbGEqRfE9JzyiQyVBx/1e0DgzHJ76mqoHA35iuVrV5HlOPeqU8ocDIGz7TosCNKDHo4KZ6eJFvqol6db2DijPW0/0iTFUFMO+y4zmNxUqGpgIU9JS7onAme2BZiSO9pU/AEDESMa2alI8CCOpMRlbhTJZA97Uqyiby+HCJ4Xz/CY9LkFTN7ujlnJpMQAUoniszqApUWYAribne2PT9jV6S8zargFfJmLy9f0KUKE2q5e/1cTbfZFrAtMCPywIfBAiZVEYXZ1JfqEyLM7vAsTE2jFWc7/uchXxxV1P0FROKP9LjUonEDZ59I5J8q5hxJaxUX/KqU+FsjwJVJ1VGgc103IsZBdWNX5C1k57Y0HA0eg0IDCRZwIyE7vh5rSyt0OlKdGnRKpMEbFAkMJAeghoQJccTRcNq+aLaM2D0N+gM0UbfxXd8ruSaahBLpeZOF0pwQ2BAoGP8fo4UW2VSuItFgJGk2pk5EAdZq/HwLhBwNuX/zuXrGQI2EBKQ0LEb2hpG6UHutn4tBqAQR10Dbvh3NmBK9qBUqtA762pTcvoz5R4DAJyrYlWerHPAqfZcJkD4jg+jubtpAdMCP0oLfAAg2IXbQKk3MrK2yFw+KXY5DsfxRgtVDwU7nOXTP2utWnXDmld0FUP6ZZIWcbSP43iV0gDd/gdy7wY9rlJRVIllS4mlB5U0oAYBmwPbW5rh83ixt7eLaDwmezLFT1doKBf29fWJA9ve3pK5/lAoKEyAG5vrQkEsTlizoLe3D/lCSaY1OGro9vrEPQkttfQmqJq2ZBAE+DDTodYka1QVC+H+/3AMbtjrbDxMBUKqPlRwmR4QizBSMIDGphbsHxwiEo2IDZTzVNE7pylaWppQ3xAW0iOOJMZiMVmzksXWG/YqGYM3V8l7ZPQSfOiTwWwTqZBPT07lWSGNMzkMyGK5t7ev6yuoTEwVJKqflYqoaiwlOyffu7a2LoBNaXAYKpQG4NKfgpqMT8Xu+kIF2pxLIJgA4UN30XzdtIBpgZ+aBbS6UPuZbCu/iNkFTyfCiE1RLUvHG/y+OmHy4+/rq+vi1MnhT4fI0ceDwyNdn8GLHMWLDg+kFBEKhWC1ajg9PZURQxL+8NjcookY/H4vRoaHsH+wj5WVJXHOKifAqL0Ir8+K1taQaCvs7Z7KscKhIGxOG/KFPE5PTuC02ZSegcOB/YMIdvZOURBfrQmfwtiVYfT3tOFodwsb6ztIxDLCZZDOpuFyUqQoL3oQPPeWDhB8Pr/8bWrqlZAVRSNpKT+MXOjDyckx1jeP4HC6ce/j66LuODGxgOOjODQLyy+qP6FYyotEdXtbC/xeDyInJ4hETkRDgNdAbYpELCaEQ8aEA5kTGdWTo0EEi6i9cHwsmRvqWqQzaZwcncDn86GhPiTg7OQkilgsg2DIg4GhTtQ3tOL5i2msbuzCZveqfgSON2oF9PV1orO7W+4tOQ0I9jgayesljXImm0Y4HBInzo3ggWvj/SZIJOXxyfGxkF/x/pOzgPsQUJE/gVkmsjuS7ZD6B6RJHhwYwOvXU8K8yFFV/tvd3cXu3i7aWlqFZZO/k9q5uaVZ+BPIC8G/kT+BHBttbe1SPvrqqz+hpaUNdXV+7O/vKUbFxiZ4fV5Ri4xGksjmNNT5Azg6OkQ+lz+Xv6o2W56BX9XO2ncUIH5qXw/m9ZoWMC3wU7aAFiBAqNmYWheAYHfAarMjmUioqNxiQzgQFnrl/d19LM4v4tLFy/LFbLFQ9KiIqdczEinSyfrrfFhcWoTb5UZjYxhAHqenR0Kde3X8qogOUeRndWNNnOPVcbLvTWF+YQ6JeFR9QZczcDk1jFxoQ29vEJm0hs31CI6O9nH9xhjqm+qxsbmG4919hL1+tLU2w+V24/X8Bp5OLEPcgvRKJDF+pU/+lbIRxI4y2N04Qai5Htv7O8IASPEjag34fBQOKmJza0vG365dH0cifiqz9TOvN1AsabhxawjR6AlevFyF21OHf/v3T5ErpvGHL15jbzcp9X9DephqkS2tfoxfvYxUMobtjQ0kYlFcHx+F02oRYLO2uozB/gFJ9zObQSltlm+ampsl6k8kkpiemdHXc032efrsJQLBMIYvDCCZOsbJSQpb68e4cLkLoQYrLDY/HjycxMraIWDxsStDJjlC9W6MX7uASCSGVxNT0rvR1d2J7q5uAS0Hh7uIx6Po6GwT4MZtf29XKKB5zwqFEk5OTvHy5Su0tLbh4oULQrZEIqQbN2/Ks0I6ZLI2ZjJpdHf3IBQKC9h49OgR7t27J+JQU1NzODw4QkdnBzo7u+D3+YT06GB/D/fufSy6EySNevLkKXp7eYyQAMCl5WUhVLp6dVyIp45PD/Dq5Utcv34Ng8Nkk9zB2toBErESenoGMTExgUQ8rje0VjM47+pPUHt8y/LJT/mbw7x20wKmBX70Fng/QLDaJMIV6V/NCpfDjXt37ok4z+72Hq5fuwmX0w2rxYZcriRc+6TJnZycEC0GMic2Njbg4GAPbg/pe93yhT0+Pi4ZhOXVFZxGTyVi7O7uwouXz5BMxpDNpiXiKxZiaKj34KO7F5FIbiOftcHnacKryZe4dfMaPHV1+PqbJ/C7nRju60Kd341MNoeJ6Q1ML+zC6nQCWgm5bBzjVwbR0xHE6eEG2pv6EI/k4Qv6sba1LqI+pPZlhDx+bVzY93772y/gdNrxy3/4ezjsFnzz+DHmZjaRShVw7/4lYeB78GAWmVwZv/zHu4jFI3jymHTCTuTzJWFiZNQNC+mFh9HUGMDjR0+QTsbR3BTCZ5/cx8SLZxi7chEHexSOahBQQCIhZg1y2aywFPJ3Rud7+3sywjk8PCyR/uMnLwDNjrb2ZhwebqOhoQ072xF09zZge38OwXAnpqa3sLpxCKu9DjkSNBXy6B1ox6XL/Xg9NYv5+SXU+f24fee2kBZxsoLArkwRKY8LDjvHRa0in0zAxiif/RvxWELsRfZGsjRSLZHZgTt37wirIks1y0tLwqhIh02SK2Zpnj17JmWCoaFhBINhoT2+f/++aE0w28J9SeNMLQYCSbJwzsxM48qVUREC6x/ol/KP3e5ET2+fZC6o/Pmnr74UcEJGzidPnyGRKKKQcyAQbJAMRC6TgaVmoORt3BZnP+kmQPjRf/OZF2hawLTABy3w4QyCLtbEan1DqBH3793HzNQMkvE0RkYuwAIr8hS6KQGRyCkaG5uxuDiPvv4+0R64ShnnzU0EQ3WSjSBV7ujoKBaXl0WzQbNqGBjsR0dHO56/eIpY7BQoF2Ajw2A+gsYGJ27dvIB89gjFghU2WwBTryeFyjhT0PCb33+FxrAPn3x8XRzvzOw0Xk1uIZqw4sKlS4CWw/zMJC4O96KvpwHJyD7CoXYc7EURaggjGosItS+1Akjf29PbK6ntp0+fSrPi/Z/dh2YpYWN9E5MTS4hG47j/6XXUBerw5ZfTOImk8ennN8kViOfPF5BMFFAolDF2dRynkQj2D7Zx6XIPOjua8PzJc9GtCAR8+OxnH2Nm6hUujgxhe3sTwYBfZJSp6EhFSmZhyDLo9bqRjCekP4POlbVyOuqZ6UVkc2WVZj/YRn//CHZ2TtDd24jjyDrqgu14ObGGrd0IBoavIJnNYmZ+Dl3dLbh67RK2traxtrYhZYvr129IL4IicrKI6JHP5xGxKQpPsd+A5QgH5ZE1K05OI5I5Injs6uwS2zEb1N3VJdLYpEZemF/A3bt3MTM7i1AwKD0c1E1gjwcB2djYVTx98gyff/5z0W8gMCDAJLgwhJio0bCzs4vbt28LuLhw4YKILg0MDkkpY3NzS67j+OQEH3/8sfz89ePHsNl8aG3uRSjUKDTL6VQSlrLikuSmAML7uj9MgPDBbw5zB9MCpgV+9BZ4D0CwixQwnYAFFik5DA2OYHhgGMuLK4hGogiF6qX0QDY6timwVMC6+cHBvtR+l5eXRMaZjY3R6Kl8obP/gPXoqZkZiRjZZd/Z1YGuni6sra1gc2NVHJKdvQPFFNwuC/r7WtDb04R8rozl5U05952PPkImV8IfHzyC3VLA9fEhtLfV4/B4HzOzu9g7LODWzdvQtCKeP32K5sZ6XLrQLayLJ8cJLC9torm1GcFwQKYSKCxF+l7W6UnRWywUpD7PqJTOurm5FYuLG4jH47hx+zLqAgE8fTqLtfVddHQ3oau7A4dHMZFczmZy+OTTz7C/f4TFpTkEgnaMjV5EOV/G9uYWopFTXLp4AR43yZzKWFpaRFtrq65pYZXmSZ6fmQSnwy56DYz+vW6PZA+okbC5tYtsrgSvz4/I6Yk0Je7tHKB/qB2BkB3JVBETk8uIxNO4MnYDmUIez1++gMvjwNBwP8JhVeLZ2tySPgFqIcTicexsbwnDYDDoR6GY00ceIT0azPowM7K/f4DOzm7JLDHrsrAwL42NpNam9DRloJdXVnDlyhX5G7MgtC/BSEtzi4yS8h5ubG5i9MqoNCPSuZOm+/Llyzg8OJAeGD5/JycnuHXzpug3MCPz8sUrdHR2/R/23vu9rSPbFlw4yAAB5pyjSAUqB8tJdnc/9+3uuX3ffHO/+zfO/DTfffPefZ3bqWVbwZQoiTnnTBA5HGC+tasOAFKkgiVZcvugm59F8IQ6u+rUXrVr77VQ39Ao42d2bh71dXW4eu2aSDp/P/IALpcPZ85cxEDfIP70l78gsrsPJxNMbYDwTz+h2Q9oW8C2wOuzwAkAwSnhbU7I3P9mgiL3g2uqquF1+5FOpsUJWuyCokXg8YgSHyME6+urIvzDKgfSL1dVVmJvf1dW5kys4w+dkcr6L8DtdaMiGEQmm0IksiNywy6ngbyZEz4DjweoqQlKlIKCRA6HG7W1DcjmgY3tbVSG3Dh3mvvUPgQqPJic3sT9kXlUhWu4wyCrfgKccIUbAb8T8VgGkYO47KuHK0PioCgwxdJEiyGRZXkM+dMpZtI5hEIUbcpK8mBVdRBenwe7+3Hs7R2IZkR1bTUMl1Pax1VyTQ23DAqSQFdAAtXhCoQCVTiIHEhlCJ1wdVWlrNwJwiTBjrwSwjioCYSKDk3JaXPfPFxZJdsoyWQa+bzKDWHOA/tK5X544A8YSCRTiMUzyJkFVISrQKmlvUgEZiEveRqsRCGDY2R/X56xqrpK+iMej+m+py10ZYpwNcjaW5w7yzu9HiXoxP5jX4r6ppaFZqIotw0IHoLBoAAdbpMQIFD8isft7OwJ6KCcNSWZ2XbenzkglGRmm3gexxDzD/i7ah//5kZFOCz9w2gD78PniRxEsR85gMvlRf/AKYlm3f7HN8hQOlvVlugIwkksCNaLZUcQXt8UY1/JtoBtgZ+qBZ4LEJixLmV6LGQw83A6nKLuqErcDHGqdIgUw2lubhZlPm4luFwlrnwRe3Kqmj7yELDsjuJPRAKKc0Dx5SuHZMqqmpnwLGXjsbkcpY9ZUkkH5RQ55kLeQN7BYwqoCvkx2NeBqko3Mrk45pe2sbC8h4KUO9KJesSR5k2G7dMwDC8Mh1uUG8mmyMx8+XEohj62UdHyaoKoggtgOacwIFJpkdLHtIH+kYJG8grk4XSzTBDIEb04fJJ4iEJCqjeMPNkpPfC43AKGaCPyMUjtvw55Cx/Akei3ErPSJZxC+qTFraRskbb1wDSzYrdCnrwVSXk+l9On1CxEa4L5/0qbQTFPUtzJkKoPaS91NkhS7XRCbkFIwVJCTYjE4wkChPK4oEoP+aejNMVa8EGABKsvSKZVFIdyGOLUJadFjwGLHlvpdqjqAlbJECwx/0GNGdUO3ptRHo4L9gE/1jGifukw4PHQ5i6pYOCz7GzvKo6KMiYOOwfhpzpd2e22LWBb4Me0wHMBQiye0PXxDNE64GRdupT3KwYcOjh+hDBIT+qK5pgaCTlFK6xpjwkCWP4nyXuaHMdBwKGFhMQxC/1xXvbhyTVAsh8lqKRUHRU1rwtOOnhm5ufyYMFkOOhDwO9AMn2Ag3ga2YJSe+SeuWHQUbLdjHqwdNKFAimaBZAoLv4i3S/bSNpmAQd08g4UTBL0eAQGKN0nJbRUMJlvwDbT4dG5ZSUpUsibSHIAv4qyONJKcTDvgdvJbQX+jY6TJEsEKfkS3488omqPVgVQOfWaD4KO1VLQVOyTBDdsG5kFTRiOHIxCVkCUE14BcMKsSLvKdRS5lFpPWxoEmt1QYhfsH16TjrocICj2Q8UwqSSgRd1RU1db3A5WpEF4HvhcWjdDcVIwKqRsKtwTekVvMSdaxwqA0VTKFjGSRa8sCpIEQuTdEFEvBeIUVwexk+JFYNsUW6O24qEkxWfXMNhVDD/mFGTfy7aAbYF31QIn5iBQGpnljgzhCrUynbwmIVISeZqESCZoltAV9GqRyo8qmEuHL9Q7TjoW5fh5LaWyJzrFwitgkdopQhw6srw4kyzFoYSgSVERS+hdPBDpjYTiSFbTstIXRUSu/OmwGWlgcp1iT3QaXjD6TedHB6/kkamiqKiY6Ucs0R6lCaRYBnld2sDM8nkYRbCok7n1IQTLWsDKoVayDtV29SE5kVvJA4kONP9sKIAltlO0kQQ+BTp0w9J91A7cQa0GRki0KJSwI2qBJ1GkNLUD1s6ewMdgVEACMygUnDAEOqnoDMGQinLo9Lw8gQZtZAlP0ZOqflFVK5a6pgq3F5U2raczXGInOnyx1RHSp3IOTE2mWARhymtbQKXERs17s68FeKiGC8Ap9Y2l/inwQ7dVE2TpRihNDisF0dpUsKBWOVPn817JF6ewet6V7L/bFrAtYFvgp2iBZwAE5iCUAIKEiemaNUuhRJ7p+Mspa7WcsJLm1VTHli/QTqZckKm4ry0rYWU+SwDJcHFPmytYFW1QPsVyVopGSbEDappl7WfkWzpgzZTIZ2BInFFq+g5xQFqJMc9VqEQJCBoIYJQGgfWsBB2MQBRMyjLT2aoVKx06wQiBDh04tzIIEFjtoFybReJMkMDtGeUMHeZhwmmJNQjoYGTDEpxWK3s50qGSFQVgaQOpkHpeogLyHEUqRS2NLREZghUVmVFkjgQXhAd8XgI5Rj6ccDq8cLlUNEOZUt9Xp/MpAHZ4P77MretzrJ5QIKLkVrXegZa81siu7B2xrqSAkup8YhQdDSiSFmkRLy3ZXTywyFVwnCMvvzYf+WjEwM4x+ClOVnabbQvYFvhxLfBcgBDTZY6WvDJdpcpBOOIQlJSe9uT8j0q0U/M8V6U6BKzFD60DS+7B+rt2sZLJr8L1RSHgYthduwm9aj3qIpR70JEM2eqwtBIUcODqm8ts5WAVyBDXrvUJRKOAOQkabORNrqhJbMwIhAMuN7P6U4rrUYs6Kc6DUm6GRBAEPBEgqJWsYQVAtHOTaANRA38sYacCAZFbg5VSdINt40XkPhIBYZBdq0lqV23BD95XcgO0bgHLJU2CGlhljG44DQ/yWUj7rV6yfLKKnVghgdK3CkRYK3a1wme7y3y57u3SNY9SGpeGt4r+PPU5erHiVlTZsZZKp4Uqjr2IPl7f4/Cd7OjAjzvN2HezLWBb4KdogecCBCYp0hlxi4EJiqFgCFXhSqyvKS2G4z9HV53W79bEXEZ1q0PDKhBRggt0xOLIxQmpvXC1wqUDVUqC1lWV07JC+1x4q5W7XI9AwMyitroSPq8bO1tbkoUvwky8IrdDDDr/gugTmGYGW9s7MHMmQhVBNDU2iF4As+ctB9zV3YxMNo2trX2k0lmm+CnH7XBJEqBqI39XbVAYpADqJ5Tq71VCJlf2BArcrlCAhNsSPgEvPj+JkJqwuLAgREYqBK/Ahg6yFyMLzDkAPCqiQtuIPVXkoL6hFs0tDUJCtbm5hWAwJMyNW5s7mJiYEwprZX8VSVA9Ya3CS1oHGpbJdSUXoAhQ1LaEym8oqVQWccvRrMtiHsQxAOHYAVUCHMU2PFMc7Gic46f4atptti1gW8C2wNu1wDMBAvfvmYNAl8TJvyJQgYbaRlkRk02Re+SscacT574+S9uYoe/xeSR5j1S7dGhkUOTeMEvoGEL2+Zi8p5wd6/tJ/NPW3iqENyvLy7r2nsmBVEtMwuXMo6oqKM7zIJIGdw0CAbes0Hm9TDIGl8NEVSgErz+A/YMENveiMJmoaLilemHoVBdaGuuxvDCP9bUNUC2Y+gN0xG53ALksyY1OIZNNYHJyDplMDrU1VRg+fxajow8RjcWRSTOy4ERPb7MwJ66tHcBwenH2XK9wBkxOLSIWo46EAgh5SSDkTw6hCh+8Lgdi0QMwIhH0e+F0mciYGcTSWVSHQzjT14ONjT3ML+9LUmFDfVj4CGamZwTAsEqEnAWLC4tCDW1IKWAOmWwGfq+ios4xh8NhwnQwByQPf9CF4YtDaGrW4GdzB0tLa7hwflhKLr/9ZgR5042KkA8ud0HKERlxYR9xi0clcJK4KS0liywNjUT25doVoQpBKixxjcdTUilCZFIUrSqu9JWkdTHUICjiFZ24DRDe7sxh3922gG2Bf3oLPJMoSWrPrS0GONHY0IILZy8KIc/ExCT6evvQ3NQskz+jCWNPnqC/f0AqEDj9j0+Mw+vzobunS5wDQQXVFM+cPYva+hoBDBNTE6itqxVCpdHRUeHwl3A8y/EKLJdMo7OjHqeHemDmXJgcX0Y0tosLF4dQU1ePre1drC1OoyboQU9XB5xuD75/PIWRsVkUjCAK8CKTjuDCuR5cv3QejnwGC3MrWF5YQ01tlfAz1Ne1YWc7gvbOWhjOLLJZF3Z2DpBMxXD23BC2dtbhdvswPrYoUYRr109jc2sdDx8swRcI49/++6fI5lP4+9+/w9LippRtqiRFxUJYXePD8Lk++D0OrC6tYGcrips3ryOTOUCuUMCd0SeoCVfit7c+wPj4PP5xbwpZM4sLwwOoqqrA119/hXQmg+tXr+Hc8DncvXtPNAnq60k6lMfW9hra24Yw/mQN8WQMJohknMITUdcQwpnhXkRj+whXUkjJj/v3RnHm9CBSyQTu3n0Mr6cSAwMd6OhqxPTUjERGyGJIdkPyFiTiCSlPbGtvFxGnifFJLK+u4tr160KZ7HJSM+F71NU2CEfBw4cPhb2wGNkRZ16SubZiFE/nJbym9+1VwcdraoZ9GdsCtgVsC/yULfAcgOBELBqTenlSKocqqnDzxkdYW9nAzPQsLl24JFEFIckxc5icnMKpgQERFhocOoWlpUVhHExHX4A6AAAgAElEQVRn0rLyZLIdRX6u37gmkYeZuWlsbK2jqalRjr99+7aSVZZQPAMTUdTWGLhwsR+OQhxm1oNCvgLj4w9w4+YFVFY34Ns7o/Aji4GORgR9Xilz+358Dt+PzSFvUMWQVQgHuHKxD32dzUhEdlETrsfeVgThqgCWV+bR1jaApaUNhELAufMDiBxk8eUX30l0419++5liY7x/H1OTa0KjfOP9s+Lbvv56Aibc+NVnV5FIRXD7H6NIxPPC1UCCIqYN+P1OXL06hFP9bYhHtyUaM/Z4FjeuX8fU5Cg6evvw12/uI3FwgP/j4/dx//44JuYjyDvy6OtuwJnTAyJytLW9LdoE54eHcefuXSGk6untRXtHk2gxVARacPsfE6JOmc0nAKcHWdNAT18LLl8/jWTyQLgDlpY2sb+bxMBAHxYW5zE3u4rOjl6cG+5DX38bvr8/JmyVg0N9yOVUiev21ja6ursQDASFHGl6ehbf3rmPX3/2O8lh2FjfwuzsAgL+sOQ9kJ2R95ItE53YKdsW5QmtxS2MN/D62ADhDRjVvqRtAdsCPzcLnAwQPCTacSEuTIqAy3AjGAjh/ZufYHJiGgf7Bzh75pxKoteEOVT1q2+oF0Gm8+eHRZ2vf6BP+PlbWltkFUoxn3PDZ7G0vITFxXk4XUqLgUp93377rYjvSL4BKwPzEdTXGXjvxjns7S4jkzJQGW7ByIM7uHT5NEz48Pcv7qK5KoiPr5yVPIPZ+QXcezKL1UgaDU2MXLiwtjKFC8O9aG+qwe7GCrrbehHbT6Ai7MHS6jw6OwaxsLCGQDCPc+f6kUw68Kc/fyFVBJ/9+jN4vIaIAD15vIBYLImrN06LFsOXX4+LWNOHt4YRT+zh3p0JFArkHnChsalJ6IFz2Tg+fP88+vtaMTf9WFgotzYPcPXKVdy7dxvnLlzGF3dHsbGygt/d+gAj349jaTONXCGPxvoArl29KDoEzB1ob2/DmdOn5fftnV00tTTg/Q+uiVLmk0dLGHu8gYrKICprgtjei2FnL4HhC/04d6EPy8vzInS0srKNzo4BdHd14vuR+4gepHD9xnsIBh2oqQ1iYmIJk+OLuPn+ZYl8jIyMiCjSxx9/LMyHZI6cnZnH5tYBPvr4Vxgfn8Ds7LwQM9XVNcr7s7G+LtUXUkJaBAhHIwgW8fFrfuWs0pZD+xmv+R725WwL2BawLfAzsIAjTLnnsszxotyzxyMAgeFl1qUHvEGcPn0Gw2fP4+HoY1lVknOfBEDMLxDKZLcbba2t2N3bFUbFyakpEezhqjIWi4pwDqWAB4cGcf/+PVnBkpGwf6BXRHrGx8cwP79QXFsW8jH4fSbOD59Cb3cbUskspqcXsbW1jk9/+THiqSz+6w9/RsDI4uOrw+jt6cL0zBy+G53EVjSH99//WMoUv/v2S3S2N+P88Bn43E7sbu9hamIa7e0t8PncqK1rwsOHj+H1klnQgaA/LDoHW9tb6O7uRjR2IEJJDx+MgcRRH3/yvlAT//HPX2NpZQ0Dg53o7ukUkDExPo1UJoPf/MtvML+4gJnpCbS1NOD6tYuIxyKYm51D9CCBy5cuY/Th9zg1dBp3R0axub6Bzz79GB5PEPcfjGNndxtXLp/H6dODIqV87+49BIIBvHfjPQFRI9+PCI3zr371KdramvH//N//L/b30ugd6MPpc2fw4OEYpmaWcO7CEMKVATwcfSBbOtmMif7+IVy8dB7TM1OYm5vHtWvXUV0dRL6QxsOH45iZXsDvf/9bBAI+/OEP/1tyCj755BPRgZiZmcPExBR6egdx6dJ1fPnV13jyeAxOw41Pf/ErUW7821/+qnJXdKKkpB8cykd80eTEk9/AZ6UgvLGti5/BhGA/om0B2wK2BSwLOMI1rVZxonxHZ8/cA7ebAMEtEQTmGLhdXhHaoXrg3t6+fO/1ejTpXEGolgcHT4lj2Nrcws7ujnDq19TWSnLb3t6ebFeQV7+6Wgk6xeJRARbk32ceAnUBuO9dKo/MwnBkEarwo6mhXtrG8+gAOjrakTazmF2YRbXfibP9baipqoTPH8DEwjruP55FU0MTXA6HtIfaB7U1NfB6PCJSRO2FqqpKVASCwmFAUSCGwC1SHobSqZNADQeWelJPInJwINUKza0tAoYWV1bkPK/fj4aGemSyWQFOqXRKVCEp7MQtE6/bLWJMZF9kImY6nRGFQyb7iU7F3j4SyQSam5pQW1Mr8sm8Z2tri4T0KRq1vr4ubWttaRHdCiZzMjn0xvUbor74l7/8VRIHg+FK1NY3YGcngt39KEKVDPtD7G99aO+GxnokkjHs7u6grr4OwaBPgMfu7p7c8+rVa6K+yHwC9lFjYyOoT3EQiWFvL4KGxhZU1dRibXVDzmES62ef/VqSGblVxIRViwvpMDh49ZdP0hvtSsVXN6R9BdsCtgVsCzzDAkWAYM23FkCgYyRQ4KpTERg6NLser1amF6ArGKiA2NnZJSqOdIzMgFfXJJUx9+RJBWzV8QM5Mw+PmyV9kHC00ixQnH3W+lLC0wbZ+rJFlkZVuWgREZEWOYfG6gAune1Hc0M94skURifmMT63IiWHcqSQPFFDQbVB9sLJKSB0v9QhUKRHdP5C2cu/keFRk/awQoPH8He30yWiTHTGJHUivbSk4GmCJbGUaBaoqAr/zvNdBpMWFVETNQqoa0GlQ+sYfq8S+VRbeW2hVbaKP7VtpJ0OEjSZomLY3NwiiZ/cglDsjAQ5BHoFyQ9gmzU/dZGiWa6pzK3ZCGkP8lYoGuyurh54vD4sLi5JkqpiXxTBjOK1DadbyJiED6MAuF0edHR2InoQxfbOjnBKWF7cBgj2HGRbwLaAbYGfngUOAQRJKSvkZWuBzttNNUe9yhf6YZ2JXl6ypuiRFUWu38/SOCVTLHS5mk9fOWRrD7pEwENRHWFcFrpeRb4kx1l2pGN3KDEoiwJYnL2QH+VFFhl5Ez4jh/qqCgT9PiRTaexEk4hlSAuk8ugtjgXFq0DnqIBBcWdFCJKU8JSQJRkEQ0qnQIkTlah/i9cTtkb9sfihtCdUdACKx4HqiRYfg/AYaKpjroBFkErEjAyt/6AImgSC6XuqNirAYIEHMifwVgRxBBFc+ROwKOEk6UTNG6HIrHgvxfrI7SBNdV2EHpaNLDIrh2wl8P7JBMtMFb+E0qcgOFMkSkVmC16PwktOMjdSa0FtOVmiTWXhoNf2dtgRhNdmSvtCtgVsC9gWONECzwAILrhdlHtW2wAO7aDUSvfwR/lQJZqjMtUVaCgKDIlT187LIuArCvDSOR7OcLdiCHS05DoQJ62drnaX4rRFH4ntymfhFDigPqbDpX6Ek187dy3yYwU/itK/hx6lRORkPUc5OaS0QwMLKcXU1E3F77TzVwyNzOFXq2slaFWymxUlIfEUHSojNVmJbqhoi8ZJeuGv7EniJmmTtr9y0GXXJ52wVnwUu8g9VVRA2qoBmOhU6Nh/SbiJUQ82VNE9S9xFhxgs0KZksC3wptQl5Q5U3GT0xEk6a0W0JNoZb3ALQAGEN3gDe8KwLWBbwLaAbQE8BRBESdHpVBEEAgRuMdDJCACgxbQLEQEmy6GUSHBUeJwAQekSyGSuV+NWmZua2y0X69QAoZTVXlydEhxYTP2HcIleFVvshEVxJR02p8qj5M9r6STViCJTowVcVDBffZS70QDA0mRwKgdOYGApToqflAgJIy0s/9QaFZoIyGq7qEDq7QsCAGo2WDkOYgcmdfJ7U+V8iFyxvo9YR0cj1KFKkdGKPvBWFm+klnLST8HIh1aCcPB+UgqiZK00cFN2Zx8p2Wjr9yKgsGIr3MYw1XOyjNVSY7K2CyyCZRXZ0IqKZWyWpXervOOeBpfl1j/+nOPeUtX/JVZK+022LWBbwLaAbYHXbYFDSYriHhkG1wCByW8CELiXrVehIh0sTo2aAKo51p5+sc5d5yVoLKG3JrR4kEXFqx2RuNcjnPzW6lStgUvApLS+V87cCjUf5yisY4vyQVZ0Q9p2aHGu1uJWFMSCLtoTcstEyVNT30CBnVyWzlzJF0vugXZWEinQQESkhnXggI6dJZ7Mb3C5SZ6kpLMlJJ/XEYQsKZtLkQZrG8faYuDqXOUTaBCkQYKyVVnkQ2MhoXYWYSkLpJUAkAXO9F/0bZW4VilGorYV5Dm1kqfubbV9YglSWcCxqCdRPkSPAgLr9xJYsyCddZYlmHVY1urpYV8En4foqy3g+bpfE/t6tgVsC9gW+PlZoAgQVARfrf7pEEifq5IU4+LYBCAYTvi8XlRUVEg2viTula12i+bTCXWlFTGdIWWe1DaDJfRkBSREOlmH5K29bsvxKUEjpVSo3MrhNT998mENQZWBp3YltENlXoWb8skUgMrK9ocFSuQ+EtJwIBwOyyqdLIDZTEay9lmWeRCJSFWBy2AkoICGhjo4WJGwtyfcAG5JgswjJ3slSi+COQxiSy33zAoKXm91dVXyJ7jyZq4HozBUnFQJlKU4Rsmuso9SytPQPlDiM7IToBIilZaTto3ealD5ibSOjibItoOV4KlojNRGibqHUtJU8hc+nwcVoaAqdU0kEU/EJZoi2xLSVwRNWh5a2qQEpw5vphx9oVQ/cxxZpbFFkSrr6bXctBXZKKLQYtZIKQfisL5F+Z1PilT8/F5w+4ltC9gWsC3wQy0gREnWAt5ah5IuNxQKwe1yS0UCaX6prMjM/qpwFcIVYayvrcn35DHgpG+aJMZhYp4ONxdYsaActeX0+QuvLYl5TpUIyPNYO19f34BkMoEdlswpbUUtBkQQkoHTyCrXVjDg0kmGrB/IG6wwoCyhkkUWbQj4kc5Qp0ADj0IK/f0dqKr0YHZmDJHdOAo5l/KVToo5KaVElgwyIfLJk8dSvdHS0oTLly/j+++/x8baBgoFDwoFJ3q625HJZ7C6uSPMhf1dTSiYGSyv7SJnumAYHridXuSyzBvgc2TR1FQn5ZzkgiAXAZ/b47KEkAgoWNmRFhuKeJLestC4TWylKkEYhXDCzOfg9XsErDCRdHNzTzQlaGMyQPJ82pr353VVZIjRC/6ojI1sTrE+UkNBkkTzqkqBcLCjoxkffngdHo9bCKympqeFTpvHMHJiGEoLQ+cwSnQlm8sUy2StnIXSwHRIaSjLTFl5sba+JmWkEqHQ0R0rIVKdQ4SnNopU2xQocYD6GVqMi+NJWmvJZJZHKH7oK2GfZ1vAtoBtAdsC4nsEIOhVKf/LcHrAH1AywAWIw6X6YTyWRH1dI4ZODWF3axdzszMiHtTU1CTOhyvMxcVFtDS3IBiqQC6TE6IkrprJ2sfw+ML8gnAEdHZ2IFhRISvS1dUVVFZV4tKlS5icmcZ3d+9ocMB95ixcjhyaGkMYPNUGh1nA1Pg08rkcBvp64QtVYC8Rw9LCHEIBP/r7uuHxejExvYHJqU3kcio3Im/GceFCH86e6UAiuo3F2XWsL++jurYK+9EIwqEQDqJRDA4Oyio6Et0XgJAvmBg+d07YH8kUuLa6D4fDg/PnB7GxvY4HY9MIVYbwf/3rpyIs9dcv72NxaRsFk6JFKr/A4cgjGHTj0uVzSKcTuH//PoL+EE4PDcLnVYl9U5NzwiS5sbEkDjNUUS0cBH19PUJVvba2JlwO3T3dqKmpQi6bwdjEGMKVIXzy6UeIHOzhb3/9GtFIVnQvmprrsLG+jYWFFbS01KGtvVFW/bvb+4jGksjkTBzEU6isqsP27h72I1GJYjAkYWqK6KoaPz7+6DoiB/tCalVXVyc8GCRrmp2dRSqdQUUoBLJnkiNhXws4dXa0wx+gbsW4RDd6unsl4kRFTI6PS5cuYph00Xfu4NHjRyIMde7cOYnePH78WEi2hs+dhT9AMJbD4uKCnL+1tY286URFsB7rG3voHzqL5fl57G9vqa2UQ7ELO4JgT2+2BWwL2BZ4VQscolpmJIEkORJmT6nVosfthdftQzQaRzhUiWuXr2FzfRNTk1O4cvkKQqGwgAqGoaenp9Hf1y80yp0dHZidn0OoIgS/z6uz3HPiFLgqr62twdLyMubmZ1FdUy0iRN/e+Q4LK8u6hK4AVz6B+koD58/2IBTkgt9APJLA1MQ4PvzgA1Q1NuH+4zFkU0k01FbC73ML6dHj8RU8GluC00X5Y3IRJET46FR/M1LJXXgcIayt7KG6uhIrK0toaeGKdl2IlNo7OpDJpXH37h2JTNz65GOJikxPz2HsyTySySw+/PCKqCt/fntERJF+/+sPkIxF8MXtEURjOQEmhsMjzparYKczhytXzovs8p//9EfU1TTit7/5DCuLk2hpbsQ339xDc3MDspk4UqkUPJ4KUWu8fPmiiEn5fX4BWwP9/ZKsyG2J6dkFbG7u45e//BS7e5v4+qtv0NTYhsGhfsQT+/B6AhgfmwWFM2++fxGxWAYT4wtwug34KwKIpwtweoIYn5jB7v6BRBUYcWE0hSv52rpKXL48jPn5GSwtLeCTTz4VJ0yiK0ZB9vb30NLaip2dbQEPCwsLArC4VULA8PDhKEIVFQiFK5HNkmfCgdu3vxFwwL9/+eUXSKdS+OCDD2X7hhErkjZRiOqzz36FQMCLtbVVrK5uYHBwAOvri3C7K7C7k8HC4hbOnL+MmclJ7G2sQ1FoWKWVVn7Dq74a9vm2BWwL2Bb4eVvgEEBgKJcre4sQh6tKbi24nZRZjiHgDeD9mx9gbnoOe7t7uHTpioAItVJ2YntrCzW1NaIVcOPGdSwsLqCnuwdjY0+EaZDh6pEHD3Dx0kXs7+9hcWkRqUwKHV0dwoz49be3kWICoN6PduYiaK/34ub1M1hdngByebQ0tuL+vbs4d+YM4Avi89v3UF9XhWsXh1FXVykqi/dGpjG7sAu3z0tZSGTScZwfHkRDjQ8ba/Po7T6NdBII+H1YmJ8Rgic6o0AggOvXb2B1fQ3/9b//C36/F7//t99LFOR//M//wuz0CrLZAq5eO4NQVRif336IVNrEbz99Dwf72/j6u0coGG4G9+H3VyCXyyObzaBQSGHgVDf6+3vwxz/9Cc2NLfjFJx9h5N5XOHN6CPfvPpDtlIuXTiOdoiOfRSgcxkcff4C5uTkpceRKmgqLKysrAuL29hOYnVnFzQ/ew87OOkZGnuD88Dm0tTfhyZP76OrqFwGqWHwX5851Y2ZmFfPz1MqowZlzpxCsasDEzApGRsdEltrt8SGbNZHNqGTJ3r4udHe348GD75HJpHDr1i3pr472DokEbGxt4OKlCyKZzS0Zbkd99tlnEu0gMHr0aFSUPZeWVsSuzDsg6Lp69QoOIlHcuXtHpKv/4z/+A//zf/0vdHV2IhaLiY7Hr371C8zMTmF+jhoPXtz65CMYzjSYx/nNPyZwEMvBV1GNZCyGQjoJA7LZpCstrG2bn/eLbT+9bQHbArYFXtUCTwEEruSYM5BMpuB00tkBfq9fthi6O3tw7co1PPz+oTDm9fT0SrJfRpwK985N1NfXC1UwJZ8p0nT9+nWhFPa4XbLKpPMfHj4nQkEra6uywh88PYiOrk7cHxnB6sZaMVhsFBKoC7tw+UI/qkIGssk0opEY5qancfPmDSRNA3/4y5cIBb344MYVNDVV4cmTUTwaX8RBwoEr792gVhO+uX0bfd1dODPUDeRTKJhuLM2vo7mpQVQH21pb8HD0EYLBACqrqsSZrayuIHIQEdEpJiIyTeH7+49kK+Kjj68iFA7hr1+OYGNjHx9eOYf6mjBGHk9hfnlV2B1/8YtfYnVtB5MT43C5TFy5cgF9/V34+9/+joLpwI1rV/HgwV2cHjot193aXMd//z9/IzkAf/jDX1BdXYMPP3xfQvi0JwHV4OAQlpeXJeQei6Xx5Mk0Pvjopmxh3L//Pfy+Cgyd7kPOTEiuxOPRCVSE3Bg+fwoPH0xjYnwR/qALH3x8Dc3tPfjL377Bk4lptHV04fz5S5idmZM+o87Ezfeuy6r+y6/+Jtsu1OEgzXV7ezsmJiawsbmBf/23f0U8HsWf//RnOefXv/4XYXTklszO9jZuvv8Bnjx+gpaWVmxtbWFmdgY3b96UsXLv3l3JSfj3f/93TE1NCR039SYYAWLffvXV56Ia6fOFcOvWh+jqbsTf/voVFhcOUFndgvOXr+Lxw4fYXFqQLYY8mCRplc7aWwyvOjHY59sWsC1gW+CwmqPDgUDAL4yIAg6YPFaArCpTyRQ627vRUMu98g1sb24jGKiQSZmheJ8vgIGBASnno3YAV5kHBxF0dXWiproG6xukA94UANHU3CSrUQoSSTi7vlZWkxvbm6JvoFMimEYHl5FBXY0f/T2NKGRMzE/PS2ng2dODSJsGRp9MwW0UcKqvDfX1IfgDbswubGJ0fBHNnR1MqhBHEwpUoK+rDVVhHzY3drC8tIG62mqJbLjdLiwtLso+PKMhpELm1gkBAp3xQfQATU3N2N6JSBXEqVNt8Pq9GJ/ewuryFuoqvOhqa0EiV8DE9BRMM4XTZ85KWH9lZQ3BoBODg72id0BFxc2NXTQQSK2voampFWtr2zg42Edff7uAk/HxGekDqjdWhsOi90CbUjBqPxKRSpJ0JovV1U109XSgpbUe6+ubct3WtkbU11dic2MLq2ubaG1pRGtbExYXNjE/vwanM4ubH1xGbUMz/vb321hZ30ZjYwva2juxvrYhfcstl/7+PtkWmJqaQDIZlygAk1L5X9HVSMTRP9CPWPRAwBQTWAcG+hEIBLGwsCjVL9xK2NnZRWVlleQoHEQOJArC72kHajh0dnaisrJSAMXyyjLa2tvR3NyE2dkpLC0uIRiswo0bVxCocOH/+x9/hFGoREt7D9776CN88be/YnOJWw+qXLRU+WADBHtqsy1gW8C2wKta4Cm5Z5Y48scfCEiJWzKRQDqTln14r9cHg4kKpmLQo1OQEjvTlLD3qVOnRFSIToZaDCxpdJEOWDLzuQ1Bf82MeUjondfIS5Y64PF6kMubSDMkX6Q0YuY6NRIy8HlzlGVAJkEBJyZPEsC4kU7lUBMO4NyZXlRX++B05THJ0PnjOTg8PpiGE9kMixVccBt5uAwT+Rwz/VlR4RReAu7pExRYmfw0KoWq2GbmV5hmVp5ViAIdBXh9WUm6TGd9yGUc8ObT8LoMZGAgxycqpGR1bMCvoytp+HzMvM/JHn8my2PUQ6rQPqQqwc2UCQCplKJNZoUIKzP4oT35u8oopcaCgUwuB5eL1yA3gwPZjCHlnKSoyJlZOcfHPnO6kUlz+8BEbV0I/f2dIpw1NTWDTJYVJaz8YB+xAsWQ7QJuHbAt2VxaqhOkCoKlCqxKIWgkP4SbiY36e6ku5b2dItREu1oVFbyeVcnCCAFJuChsReDJ4zgmGKVge3k+qzS4rcEyUUYsCDInJyewtLgOj6cSlTX1aGxtxvjjUSCdlghCiajSzkF41UnBPt+2gG0B2wKyUGcVQ7kpOMlzsuYKlmVyB5F95Ty14BHpgYV3XxPoMHpAp8dJXfj+pVZeEQoJg6BoDTglTM9SPaU1wLp+UyZ1OmmW/NEZECA4tENkm/IsaXN4kM+nACSEh4Dl9opciSVwTFt0wusCmhoqUVXtRySyja3dGBIZA6bhhin1+i4YcEtVhKOggIuwBBYZEpUWgmIFNFRJYc4UpkOqWgp3gmgdsHQyhwLiij7ZCMKAB558FoVcFikCCi8dHjUfWAWiHK/DkYXDQbvk5J45PgMplcl66GIyIyv6+Tw5TbSkyg5R4DmKKIo2FD4ELa3NMlGlUUHUwvt54HBwr58OnKWhbC+dJTkWFP8Bf/X5PXA6TKSScaUlwZJHkahgWSSfT40GixHT6WLpak4DPIuJQjFcWl65xJBZ5MBUnBpyMa0HUVa2KWdaolSETeTTcDgEhBEQiZ4HeSJc1PfwybPHYwk4nV6YJjMOFOMCRby81M14mgnDfrttC9gWsC1gW+AVLfAUQLDmfWbO02Fwz50rfUtnQQk2KSJ+i/SITo9RAouJz+L6lxW5dsKWgI8cJ8yFFsNf6TwhUCqLDjN6wB9FpkOnp++rH1oRA7FigLTFBlipR8CSY6keywyEqlkR+5A/QZEtaTIiUSFUy3irnRaTYXm7FeGRkAMop6cIlHULCD6ccCr+ZbBoQcSmGOqgfQolEiKLEEhcaPFamvZQa0aok3hpi3a6nNfQ6mnF+iiCVRYRtRymCJqk7UX3rYBBidqaQENBL6pJSl/wOtro6lmLxj3UxyWVzRKbY9myvWwY6mcows4ygHAIiZb9YvFGi4aEGjOWOJXWrtJ03NSpUFEUpQyh9DgOszHa2wuvOCfYp9sWsC1gW0BBgaMRBMsuJC9imDwajanJWhxtmdLiazJg+XR+KJTxmq5vrVbFjfzIAj/Pc1Wv9rzlZz/vTscbU0G1d/1TjljK26oiUT+FJ3jXLWy3z7aAbQHbAsdZ4JkAgVsMLD17kwBBHLhu2RtzVm/RE57kul/Ps1rZGv/sg/u453zjo+af3aj289kWsC1gW+CZFngnAILdR7YFbAvYFrAtYFvAtsC7ZQEbILxb/WG3xraAbQHbArYFbAu8ExawAcI70Q12I2wL2BawLWBbwLbAu2UBGyC8W/1ht8a2gG0B2wK2BWwLvBMWsAHCO9ENdiNsC9gWsC1gW8C2wLtlARsgvFv9YbfGtoBtAdsCtgVsC7wTFrABwjvRDXYjbAvYFrAtYFvAtsC7ZQEbILxb/WG3xraAbQHbArYFbAu8ExZ48wDhKFPQ62EIemvG+7lQE701A78rN/4xKD5f9Fk10derc2e+6A3t42wL2BawLfAcquXXwaRoCflYxv6x6Y5fppOlbWV00kp/oOQpRIfB0lt4mQvbx/60LCASFeX9bglovJ3H4DtEvZOSUIbW/Hg7zbHvalvAtsDPxAIvFUE46uxfxEZHJ9qnF2bHhxSOY0d+rcGIE+iXLRBAVUtBA6d5wpoAACAASURBVIeWbVqoSE/WT9ujTDfgrdA7l276RomI39iz6fiMBdK0EFNRQuNNRJ/kHnqUlhntrQNZsbGSFiPVuQhpUYYrr6TAf5j6xou8sfYxtgVsC9gWUBZ4YYCgdAkdh9QWX8iIMqmXprPDTlUp/R39HBfdtb5TolEl4aUf4jMOyxOX7s7vzbySWKb0sDRb30CpJCrAIJLL1JmUifqoK7acnHF4xfdCxnqVg9gO1WBLsbIYtSnvgh9isCPNKqlfvkp7j55rCS9ZSpb8O7+zpB75/Zt1iyXTHAWGhyMKr/OpT7qWsrEGL/rfSuWS486yzY/REvsetgVsC/xcLfAcgOBCXMSaKLqsAYJ2Nsqx87vShJ7PU3bZBa6+KbvMv7udbvh9PuRyOSRTSSUVDcDj8SBfyCOdTgGGcmyWjHHJySlXp+5ctjp2OERp0uv1IZPldVPPVPWTeVZkp3VbHUqSmM/F0K1qUgGOQh5OSgg7DQEB/J4rN4IGAgZLathJlWcHV3MGTMomGwW43C4U8g55zlzOhJPa00V/piSMxXRlQIMrQyV6Teuqid+SoC7JULNllpNUstpOl1val8uxjdZNlAMVCWTDgMftlnZk2Q96lWzZWGND+Z5nOJ1O+Hw++TqZTMI0TXm+k5QSLbnv4nWKb4+Ge0Wb8rl1+6zr8fdDfl7dh89oyYfzcuxfp9OBTCYjz0obGQ72gSXKXUI9lglUGD5v6ZBrW+tWlkc9LHvo/md/G4YTppkTW7hdbumHTDaLvGnCIeOzhPfEynqwKvly1Sb+WyCvlgfneBNp6gLlwdX44/tivTulIa2/keN5HI9SY1Vuw7bl8wiGwvD5vNjf2UYhnyuTKf+5Tl/2c9sWsC3wJi3wbLlnlwvxRBwFk47TKT5DJms6MoPOzYCz4Ck6gWw2i6amJpnc19c3pN11dXUYGOjHQSSC8YkxEERw5d3c3IxsNoPl5SXlXJEXwOBwOVDIm+KsZULlT0FuKKtJh2ECcKK+vhE9Pb3Y3dvDxNSUXFc5VyuN0Jp0eT3lYOkExAnxfw5ezUS+QGfI/xfgNfJoa6hDqMKP3e1NcbDBgB87e3uoqa5FOpNH3iygrb0ebrcL8wubiERiqKz0oq6uBpkssLq6iYNoTBy04dRO23AKcODzuZxO3da8ikQUHDAMNxwOggzAzNGZEIHwh0CFEQ0FQthyOvL6+nrEE2msbWzB7fFKKFqBDzrQAgK+ABrq63GwH8He/q44OCvSoVahDu08HQKAKiqC6OvrE1DDPooc7BdBk3S6FbFxAE6HoCO1sKczs8Ld3Cc35UvkTBMuF/vMAZfLJ32YM5PivAUwSLhcAZ98IQvDSYebB4GXaWYQrAjIOPL7/VhbXcPW1g4MwwWXyyN9wvuz3cqBFmA4ndLHBHKWBDTHA9tgATOCADpZsQS3MNheAVk5GaOBQADRaBTV1TWorqlCPBbH2tqafMfxKiNEbFcCJvzO5XIpMKlBDfs4l8vIWDUcHpj5AnK5BHx+N48GTcR70m58BgE1tISZh8vthmkSBBKwqHHP8UbkmIMD5y5fQlVlCHe//hpZgm0LWOdfQ1joTc4y9rVtC9gW+Ela4NkAwe1GIhHnEghG3kCFrwJet1ccbDyVkMnScLhh5grweL1IxOO4fPkyzEIe83NziMai8Pq8GD4/LGDg/v37MjEHgwE0NDRgb3cP21ub8Hq98Af9KBgFJFNxJJIJWT+pxRlXXS543X4EAl6Y+RQSiRT8vgqcPn0WuayJ+yMj4rMYlSA4SafSyGQz4kz5wwk5kUjIvQPBAAzDgWQqgVQ2AbOQFedMB3yquw2n+7qQScWwtDAPn9eDtrZWPBwdxdmzw9jaOsDK8gpufXpdrvH553eRL7hw4fwQcmYWyUQeY2NTiER3EQ4Hkc9nEY/HUFERgtPlUo4BvHdSnJ9aiRpIJLhKziIU8onjjMfS4uwrKsICEFKpJJKpGDweF9rb2tA/cAqLK1v47v4YXB6/SpUQkOAQB15XW49wKIztzS2kkkkEg0G4nC7kzBxSyZQYNhioUP0Yj8sq+fSZ0wiHw3j48CG2trcFNAQCtJ0p7aVt+SNtzhfExvyIfXndVEr+TcdGp5lMJiQS0d83BJ/fj5mZcSQSMbhcXnh9AZiFHKKJCDLZpAIJBptlwu934vzFYYQqKpFKprG8soyFhUXU1NTI8x1EDqSPgxUVMj7S6TSSiYTY0+ki+MojnUohnckgFKqQ9kQPDgSchUIhuF0eZLJpxGJxeZ7Kykr09fYKqNna2sLpoSFksznML8xjfX1dATsNMGkL/oRDlRJpODg4QM7MI+Dn2AyoKFkyCbfHiWyGz+RBNmvC4cjgxo0riMXSGJ+YlrHn83sRCAaRTCRlvPv9AXkGl9ONRDyLRDyFfI4gwwnCc7iceO+Tj7G9vYnHd+/B6yTIUXPOW8+X+ElOfXajbQvYFnieBZ69xeB2IRaLCkBw5Vy4evE6qoLV8Lg9mJ6ZkdUPnd/m1jaampswPT2NDz/8UBwGfx6OPkQsGcOZc6cROYhgcnJSVt49PT3o7+vHvTt3sbWxiY6ODnS0tyOajGJhaR6b25sSJuf1CUJ83iC6OnvR0FCL/cgWFheWUcgbONU/iOhBFBMTk+LQ2jra0dHWjpWVVcwvzKG3pxf1DQ3Y2d3BwvwCKioq0NnZIc54fmEWG1sryBXScBh5eFzAZ59+iK21RczPTiCTSqCnuxMD/f24P3If5y9cxOrKDr797jF++YvzMPNZfPfdE5w5ewlNTQ345va32N2Nw+/zY3i4H7V1FXC7TYyOfo/e3l7U1taKI+eKdG9/D50dXRI5SKdNPHkyie3tLVy6dBahUBh3745IpPzS5avIZTPiQEZG7qGrqx19vT3iHL/9fgpf3ZuF0x1Uq1qJ7jhQEQxj+PQwfB4fHj4YRVW4EoOnhsRpM1xPp0cH29TYKE5zcWEe09NTGDp9Gh6PFxPjE8hmctLm1tZWZFJpLC+vSvvr6xvEWXJMrK6toqq6GrV1NQIyJicnJApBp1sRCmF8/AkOIlF88smvZBvm/v1vsLW9iYHBMzJm9qN7mJwdRzyxA7OQRqFgwukqoLunCYOnTuEf/7iLg4OYhNS7uzvlh/8eG38ifd3T0ylbEPv7e1hZXUVvT49sOREIzs7MYnFpETeuv4dQOIw7d+4IMLp67apsFe3v7+PxkydoaKhHf3+/gITx8XF5Dj7z6OioRA8IKIaGhhDwB3AQPcDKyhoqghU4dWpQHPr9+98jEtnHwMAAqmtqsLS0hL3dXRnPmxvbaG3txOLiMpyuPH7728+wtraNv/71cxQcWZw5e1raRkBx5853aO/oxNDgIHKmA0sLWxgdGUM2nWOMDtl8AVV1dfjk159hbOwxRu98JwBBti3UvtTz3nP777YFbAvYFnhpCzw3B4ETI6PMYW8V3r/8PhZmFtHT2YtoPCqrXa68eExdfT1m5+Zw5sxpPHjwAOcvnsfi8iL2Irs4e/4cxsfHsLS8JCu6luZmXLxwAd/e/hb5nInhc8PY2dnB0soi0mYa6UxSrYxkieRAa0sHOjt6MT8/jf3IJrLpPGprGtDT1SMr+tXVNZns29s70NXVJU7wyePHODXIiZyr1xmsra2KM2hvb8fq6hLm5qcRje8h7+BKz4TH48Bv/tstzE8+hs/rRGUoADPHVX0ID0cf4OLFK1hf28GdO49x65NhCSN/d+cJLl26LsDj669vIx7LoqGhEf/+77/B7dt/QVd3I2LRPXGuDIFzhU0nTUcUCFTA5w0gHk9jfX0HS0sLuHx5GB2dnbh7ZwTb27u4dvU6JiYn0N/fh8ePH2JwsB9zczMCEDYjBXx1bxGGO6CiBwISnHAZbvT3nkJtTS0mxifR0tiC7o4enRMCWTlzpc3cD7fLiVQ6KcBtaGhQwuo8p72tA4OnBmV17nJ6kIgn4fN65b7cRqJT49ZMRagC8WRcvp+bmxWAsLS0jNa2FkxPTQlQu3jxKubm5rC5uQKP142b73+EWCKBuaVZbG6vIpU9kKgQQVsg6MYHH1xGJpPGl198K1tYTU31uHXrIwEGBAmMRLldDlmlM6LCaAAjCHS23Mpgmzc3NrG2vo6LFy7JuPz2m2/l++7ubhkbjF4xWlBVXSURCfYPv2cUgIBgYmICY2NjODiI4ONbtzDQP4AvvvgCu7t7uHnzfaTTWT2uZgWscEwTYOzu7soYJDBdXdtAX+8pPHgwimTqAFcuX8SdOyOYm1vABx/dQFVNGNvbO7h+4zr+8z//U8AXozhPHk1idzeNtZUd5DOm5CxkzQK6+vvx3373W3zxxd/x+N5deJzcZrEjCC8949kn2BawLfDCFngBgBAVp9NU1YzzQxcwPTaNvu5+rK6vorGpUVZj/mAAqXRKQtGyAnv0CINDp/DoySO4fW5cvHQBd+/fxcbGhqwwucI61dePr778Cn6vTwDC2PgYdvZ2kM7R+TDRjAmEKm+gu7sfbc0dePT4AeKJPaSTWXR39csqfHJ8Ula0Z86clZUgQ7+c/CcmxlFbq/If6BQfP34E8jrw98qqEB49GsHS6hzgZBg3JwDhl7duIra7AeSzONXfI/vfoVAQM7NzODV4GjPTi3jw8DF+8YsbEha/fXtE2tbd3YORkYeIRjMIBgL43e8+xd27n6O1rQ6JRASV4ZCsYAlWuALPpNPIFwx4PH6kklkUCkyMcyIQdElOweLCKtbXt8RZcTV77eoVTEyOYWCgF7NzM+LQNiPAF9/NouD06RwESTdERbASg/1DshU0P7eA1uZWVIerJQxNJykVGi4XYtEDBJhfsbONjY11nDt3Dtvb25gYn8LpodMCEBKJJLa2tqX/GYHgVhCd4d7eHmrraxEKVyBycIDVtWWJEjQ3t8gquq+vFw8fPhAgMTx8WRzu7u4GvD4P6uqb0NXbi3gyigeP7iGe3IVZSMk2j9tTwPvvX5KtoJGRMbkmczs+/PB9fPfdbVmp70f2UFtThVg8AhaaMCmW20vM3VC8Hdz6Ksh2CQGDPxDAo9FHxe0POnGOP45b5sGsrq7K9gX/y7wHbsc8efIEm5ub8Pt9uH79huQofP7559KeW7c+FZC0urKKufl5nD1zVoABAQWvefbcWcmPYX/X1jbh22/uoCLsxamBPoyMPMbyyip++atbiMa57VFAe3sbvv32O5w/f16287768hvkTT8cBS8ceYIAJwoOJ5xeH27c+ggba6sYvasiCCqXwt5ieOHZzj7QtoBtgZeywHPLHBkSdxpuDPYMYnjoPOL7CUSjMTx6/BCnz5yBz++T0C73bLm/39bahlg8JmH90UcPUV1Xg0uXLmJldQWTU5OorqrG2bNnZI/8m9u3kYjF5e9MNJudn8HswkxZgpyKIDQ3teHM6WEkklHMz09hdWUDHW1d6OsfwMrSikzmdB50nFyhr6ysyP4wtz0YsqcTJGjgqlr2sh15TM1MYG19WZItmfjochYw2NuB/q5WvTorYHJ8QhIhuYfOioXvvv1eAMutT25IOPyPf/wc8XgKN967Ks4JBS/GxibQ09uKcMgrDu/BwxE0NjTIfryqFCggmzNlH9/t9iCZzCKXc8DjdqKhsVoc8PLSOjYYom5pk+jH8PmzmJwcly2GxqYGacPIozncHV1AHm6dQMfMfx+6O3swdOo0EvEE5mfnUBmuhN/rF2eiIhdB1NfXibOjXRihyGYyuHLlMrK5HB49fISamlrZBuJqfWZmFuFwJSrDYWkbtycYsWFkhVEbRo+4lcTISVV1Jfb29tHZ0YFHjx7CzOVx+coNqYSZnHoiwKy+vhn+QBAH8QieTDxCKhMRsKWSCNPo62sVZxmJJLC9tStJlr/85afY3d3B3t6urPR7ursQS8RkBc1oCEcJ+51JltxiIMAkCLByPujwq6qq5W+s6iB4oDO/dPGS9AejVzOzszg1cEoiAlNTU1jf2JBtGD4n+5/gdmtzG+fPXxAbPHkyhsXFJVy6fAkd7R0SoRoZGZH7MorFc/Z3o7hz5z7qGypx5cpFLC6u4sGDRzhzdgidXR2yDTc6+kjA9W9/9zuJunzx+dfIZph344HBZFIYMAsGDI8H7338oWxhPLp/B0zrlY/sNNhbDC8169kH2xawLfBCFnguQIhFY/B6fLhy8SrMbB7rqxvY348gnorJCpLJbkwUpPPh6p2rUpaJESBwBel0O8VxcOXM87iPXF1dLau7vb0dmbTDoRD8AR8OohFEE1GJHlgFjqpU0ouqcA28PhciEZ6TkmQ3JvExaYz35r42kx8lhJ9g4h1XkSHZo5VkslxOJanpxEvmRmTMjLoXkxQdefgME43VIfi9HgEuTG7jPcJhrlgz2N/jfYKoqQ3A7XZgdW0L0XgclWEvKqsqkTfd2N7ek+z8mpoqZHMZWV0Gg0wIZDREZd6rzHX+zrLIPHJZBxxGAdXV3NYwEY2lkcvm4fP6Jf8gHK7AwcGehNSra6ol8S1ykEQ0npMwvCqVZOmnB+FQleyTc0XNvmPpntvJ6g1WDzjEmQUDQQn/RyIHiDFJMW9K9IXRHUYEaJNwqAIwCgIAeC4jCNJmhvFTaTgKDgFcuXxOkk2ZgS9OPmdKpCEaOxCAUFvXCKfhQjS6Iyv+ynCtJPZFovtIZZKES6x7kGOY1+Fy51FbWw2fL4joQQzxeEJW8LQdgSD70+/jtkqpbNTiZaA9ubpniS3zIFgxQufLlTnzZgjSOA4lkTWdkS0Gbp0Q0BJQ0QbcLuL4ITBmYidLHRmlIIBlvgvBEn8iB1Hs7uxILkJ9XZ04e4JQ2qmqOiQgN5nISh6F4TTR3FwPM+fAxua22LmuoV4SSLd3+LtXtr64xcN8nmw2D0eehY6qBDbPokePG90DffB6XJgYfYR8lmXEqjrHKo18oTfePsi2gG0B2wIvaIHnA4RYXBLeert7sbG+ic3NLSnfM1yKVIhzFFe0Vj244g9QU5vT7RJHJeWL/N3Fcj9TJnEmi/E6dM6cXIVrgL/r7OxygCBl5SZ5B0zZe5byMJaLsWbMcMgEzlwI3ovhc67mmZlPR6G4D1QyF1ftcm+XU0or6ajzGoxImWEhB4eZRS6blefhdenkciZL5rxwOj3iYLhnLjxKDpfkSRiOLNKZFFxOlvSRSUGVskmpGtvKZ5fyRpaGqkVfWfW8bDcUYAK8v/hxlj2yxE2BCGVktVLkdflhW2h3q2xQXZHnmOIIuZqWELTOYGQZodvjQWNjkzjxtbV1td0gx6lcEn7oPGkLPg/tTTuVc0FJbX++ILkjKkFOPRvbaTltVbvP0j3+KFYLCbDkWVZqFEmohPvAYKkjIyrKKIZhlQmSn4FtY6kiv2PpJPtVRWDYTuUdVdmqLKZZfamZBgmMVBki+8DiMWCZpQJqLIPk+LBAmzVOaDs+Bx09n8v68DtGXfjsMt7lmWkLjgduUykAxt/Je8B2cMyo67MttK9LcWkAEsng9S1CJP5OQFLsN4kd6PJKgkBe23AIWEzGYjAJEMRoNkB4wbnOPsy2gG2Bl7TACwEETlWcvDi7FmvNNbnQEdabQ7eX2nslb6A/KvPaiohKbp0GD8Xy8mPCpZx0LXKe0rXoNlWNvi7UF0dRTu18HNGPXF4TBGm3UtY+kiUpPgWLsbEkv2C5dcWJr6gHLGZJRY5TapsiyFG/l6DO8wPB1hGaFkpfwwIVljNQV9VZ7BbcIBCS08u5IIruTTlQOh06NUIOXbonthCnVWIg0r2k+o6O3/pbee+WNUo5YHXWoUOs+nz5e/nfSnvnBCPq+uo+6rkUn4Iia+Ig4d/KuRxKti2iBH1jq1nlNnvqndDtkT468kfLhOXj7ITHLsK8cuqmElyxnuVpu/B6JeqrUkvL76ngntR+qudXJtKJiUd0GV7ypbcPty1gW8C2wItY4LkAQYhiNAGPkNM8g2Hv2BuKkzs6DVvTunbGRTa6IxS3mmOviAOemswtJ/KUb3qRZz+0ln/BE4qHWW645GGK37zSdV+0HSoyYDk4y77HO6NnXvN5p1jO/Rno5qT+FWKiI8JHR9tyOMnOeg6BMGWHKnf5Wj/Pe+7XerOnL2aZs8TkqZ9d3i8rymSBolJ0Rv52/Ov0hltsX962gG2Bn5sFnsOkyKzwuF4dW0Hx56+DDxnxmQDB4pItO+OlLl/ulH9I15WC/S979tMAwbrCM9euL3ubE4/XfuSpFfBru8FLXOgkgCDVKEdiOi9x2TLU98/pEdVQV+PlhZ/wOYDr5exrH21bwLaAbYGTLfBcgMAkQu57yzT2zk1O7yJA+HGG27sEEKxtnqfC9XZ2/esfDO/cO/j6H9G+om0B2wLvhgWeu8XAEjXZr9b76S+80vlRns8GCO9Ufxy7of+jDISfz01sgPDz6Wv7SW0LvGULvBhAkETCd8oVabMdtx/xMnsUb2KL4cfp0XcqgvDjPLJ9F1rABgj2OLAtYFvgR7LAc7cYWCdvqSH+SG16ydu8CkiwAcJLGts+/G1bwAYIb7sH7PvbFvjZWODlAcLLBhJeZkH/g8x+Uly7/MYnNeLVAMLbDKq8bDf8INPaJ72TFng3o3nvpKnsRtkWsC3wChZ4aYBwUsb6SW14s1K0J7lJCxAc/e/RVv5wgCBXeov1ZjZAeIVRb59qW8C2gG0B2wLPtcA/AUA4zlUeTV48KZnx1QGC7aifO8bsA2wL2BawLWBb4CdoARsgvMo+AamMf4KdbjfZtoBtAdsCtgVsCzzPAjZAeBUXbwOE540v+++2BWwL2BawLfATtYANEGyA8BMdunazbQvYFrAtYFvgTVrgjQIE2fkvY9N73eF4lYKolCPLP0r052gVgxYFOkRsezQHQQknl0v4PLMIw44gvMmxaV/btoBtAdsCtgXeogXePECwpHj5kC9Z8vi0OuNRIKCceVF5kbBAVAoLhxQalc9XwlDWGepKhwGCoygQdPj7E5ttA4S3OHTtW9sWsC1gW8C2wJu0wBsBCEWHai3ttayuklLOA3k6cC1lq520WSjA5XTKs1LhTn3yMIwCDwfgBBx0/mR1pGSxQ0sWK01kKb90AHmTItC8vhULcIhkMT+macp/jaPliUXZX8o9q+scJ19c3hFKm+IVqyDeZM/a17YtYFvAtoBtAdsCr2CBNwcQNDiwKIGVi3fA73bB5/WJI48nUygUHPD5A4DDQDqTQS6TA1081X0dDhMOwwSDAgW4gUJWfnc4XCgUnDDzWRRgwuHkhoK6YUHAB528AxUVFSJVHY8nBBxQU8Lt8cDv9SKXzSGTSSNfMDVgYZDBikZYyKZccvgYKxPkvEoOwyt0nH2qbQHbArYFbAvYFniTFngjAEEcddF1FtSKvWAg6PWjq7UDAX8QDjixvrGJeCKBzq4uOJ0ubG5tYWV5Wc7lj2HkASMHM1eAw+mBAybyhTRcLi8AF/L5HAoOUyIGBYfaXpDzHAYMw4nGxkYwGLG5uYlczpQthvq6ejQ0NGBrcxO7Ozvi3kWMigcaOk+B2xHF7YZnmN8GCG9ybNrXti1gW8C2gG2Bt2iBNwYQ1DOpdb3TYcBRcCLkC2OwdxAelxeGwwOH4cRBNIJAMIBoNIpwuBKzc7MCKCKRCCpCAeTMFDKZLBqb2pDPZ7C9vYICXGhubIMv4EU8GcXe/h58fh9CobAAgf39faTTGXR2diKZTGJ+fhEulwv19fVob2tHMBDAkydPkE6mUFdbj2w2g82tdUSTUeQdjErkUSgPfZzUQTZAeItD1761bQHbArYFbAu8SQv8KACBdQZGwYXqUB3O9J+Fy+lDIp5GY1OjhPgnJiewtbWFixcuYG9/Hz6vF9s726iprURkfwc+XwCtrR1Ip+NY31jGxsY2Ll64iqrqMOYWZrG6toqGxgZ09/Rge3sbS4tL2NnZxdmzZyUwMDLyAA31Dejs6pTtDX5mZ2dRX9uIynAl3G4npmcmML04hbSZKEYllOGfQYZkA4Q3OTbta9sWsC1gW8C2wFu0wI8AEAoo5Apwu7zobOnBUN8w4gdqm4A5Ai6PgcePRwUgDA8PY21jHVXhSlRVVSGZjGJpcQ6nBgbh94exu7eFaHQHC/PLGDo9DJfLwMiDe0hnM+jq7kZTcxMmJyaxvx9BKpXC4NAQgsEKPH70GL29ffAHAjiIROTakf0IentPIZ/LI1/IYml5DpPz40iYUaYzosCESCYs2gDhLQ5P+9a2BWwL2BawLfC2LPCGAYLaZmDioMtwo6OlG8NDF5GMZ+B2eyV3IBo7gGEYiMUT8Pl8GBsbQ1NTIy5dvIiJiceYnhrDubPn0dTYio2NVayszCGeSOPC+StIZZK4/c1XTDqQaEFtbR1GRkawvb0jwIARiWBFBR48eIjKyio0NDTyULjcLszPL6C9rQPhUBX29ncwMzeN9e1lZAspqZRQOQhHWRHKu4mJkCclKb5kPefb6v1Xum9ZicorXeef/eSTtEL+2Z/bfr53zwLPUrX9MVr7Kkw4P4c59cfog5e7xxsHCEwMNPN5OA0XKoNV6O8ZhN/jh98fwH4kgtm5ObS0tsLl8mBjaxOrq6uoralBd2cnVlbmsbO9jtrqerS2dCKTiWN1dQEFODHQP4RMLo3JqTHk8wW0d3agsrISCwsL2NzcQmW4Cr19ffD7/Zibm0cqmRSAUBEKIZ1OYXl5RQBJQ30jUpk0VlaXEYvvIe9gKaRKfCznSXh6aKtKiaerGJ6nIPlyHfTuHk1wxM9zKj3e3Qf4EVpm2ejorWyb/QjGt29xyAInzUvWzPYqzvtFTP2qJeEnCe69yL3tY36oBV4OIAhFwOGBJMPuaSrD4lcECPxhuaHT4YTP64fX7ZPERCYQ7u5FxFGziiGVSko5Iv/tcbuRzaWRN7MwYCDIygdHAalUQlIf/f6grPJTqTjMfAEen1d4FDKZjPy4XG4BBw7DQDqdlkRHbdTQ2AAAIABJREFUt8sFp8uNfN5ENpuV/ASvzy9+Psl753Pa4bEqoqC3GJ5RyOhQvA1Pf446gGejX6tE07rOm35Vnz1YjmvrcS0qLwUtP+dpdsqXG5zl93qTk8LzIyA/rB/Kn/+kK6hqm+d9ZIfr6KfI2fG8s4/7+w97otKVXqQ/XvUez3uuk65/2KLPasWL2P7kVpx89rPijWqaPD6fyZotyq0rdCxH+loWLXKTI22Qr1nqzfmI/1JkceXHKWbZk/qPvDLln2OXQ8fCjWOG5+EJs/gMrwMgPG9sPOvvr9brr3Lnn/K5LwkQDg9wGW4nvInGof5Q5x077PQ+v7wNZdTMJEOSAe0geZHQIhQ/JSysBrx6cQ6TK5fVWRZJkxSTIlth/Zf/0vd5avgfjiCUt00dyhae9Mqrdpc+T68YD72u0nY9vejTym31pqfcwwNYtax0z6d77vA0w4iL9aw89ui2y4s4lfIWHO1pa7J7na+Z9UxH++nwILOe5oXvbI3lE0a7dR3JbznyKY1p9Qf5ndXBR46z/MPLj4nXMUHrvhTwfMy6QF6tV73Ps6xtPfXRpz9sPasFRwuRnjVfvVgfW3PN8Ucb5FE5aUIsAoTDbbfejrz+Wka77nfOoeVHc9GiIpuHx48aE07FFQMDTpQWOtaxFkA4MksWeW6LPDIWn0zZ9upRe1ptLY7n8tfmyJgtjdeT5soXtfyLHXfyUXbU7odY0BGubj12SHt9XrhdbsTicU1fLNSBhwfsCwOEcvT8NJKTb8iwqCdFviGHWAo1Qn56UrVW+gogvOxHvRQnnVcCEcUX4ZCuhBrwx68JXhQgsP0K4hz6WMyTZV8+++msv74OlFyahDVkeYpVUk1qliM/DNdUF5a3VvVrOYQof1axssZsyuLquk9b/wV7V66lweZTbTkKVsr6Sfk8aUuxrS9tzuJU+hSNt7KLNQ2XrxnVcz0FELQJjwUIijm8OG5eTHS8vG3Pt6Vl/1I/KNspMG79u/TKlv6l73PiO/uq1GLHvQlWf5es+Ky3+hk+/MQVj3qqZwPKo9TtR61cJGI78oejYLC8z/WrocaItnsJIJR6R0UQXLr9GkTIdqkaa8X2HzOglHKNsphaQ6mj5V0osuCW3utDoEU/i/UM5WPZekwFmooteP7gO3JE6X7Hv5DlNnrK5sUvbIDw0oZnr4VrWgrHod5ygMBRctyELdPECW/i4QjCSa9O6cUuFEzlbuV6x020R2/EQV0iNCKgkKuVOfHnG+QYgKBBULnIlHWd4ndyjI6KnBgHLh/MJ0UQyLdgTfTaFpZehAXGtCOwqKOffgEUNTTnjhcLXFtTuaaULnM0RRgnjJKlflC/lVbyajJhWPLwap+5IJrEsjht0GbcGlKPVaLAtiYSJrAaTkP6TbiqDGfx2MPj4PjePE6vo/SdBo7FrrAAQtl/rWVmuZ05lvSYL5s1j/Vsh6CZNUtayatlq2k10qzJmnThWhuk1A3aCajnPAoYipOt/ocABD17Hx0blq2lB4vAmb2oQ8maTlycyrHvSxlk1VE3dRkFyNVfNTgvvhzFN6IUTD/m3SDVuhyp6c9f9HU9yeGXW0u1TNlVuuCYz7MxX5kTswCjvoYFW4+ZMTRwUu8LCdsO92Cp59SWwfFXKG+q3EvvcIqr16C1pBWj7E+CN/Yvk7zVWFAU9Cr0xGOymp5ev836HTxslvI2O4Tmnu81rylzqqKxLe5s8LtjKWKOiXZZM005NLZeoqIuzjELO7ZBnuLQ344K8JXMXLS4PLb2VBo1lOKZNkA4/o149reOyprWQwtYBSAd8Hq9Qi4Uj8UOXaEcKLwsQLBmvvJ+VyiVeguKzZA5AzIwZDBbb7mayPhC0IEYlraCRB20FoM1Xp4x41iTgzqf1yybidVs+nSEhOyM4uTUMGQbnE6nbuMJL0vZSkPlYKjBabXbejkEHJRFEPhSmqYlNlVC8XxhnIahtSeOvN5laN/aPaGjLg9OH41QKCCmAJbliaxcEWpkkIlSrXasV1ytnAoFhi6tCc5AvizSIxOzAISC2Mf6XdguNTCQK+qLWqifE5DT5RJyrJxpwjBIo81r0e50JEqtU407KzG0ZANlS9U/bLt1bvnzqYmU3cuxpWdfaz+2bD5XjkXbRufOlE9S1oTJqUo5eM7JOtplOWy9GrMcQXES1/ZWt2N/cjKms9TrcqsrdHuKAEH/zj5h7gxtzBtbTuGQTfUYPc7pW/ax+pskZcrJaGdj5mFQC0UcBG1v9b12Lla7itGD41ytNWbZD7yUgqxWG8V+pvI2RQekx41Y5ci7a61glestReuejpiUQIsMaT0v8H1jnzNJuvju6bFUHPs6r4pjjfTvHLtOp1sxrxYjUFYelUOqoI5+imH/4phR4+Kp59F7BwTE7EcFiA9fUGY8U40LGIZsFuQMBRJKWw7K9myvGn9qXDsc6p1BwaXGliOro3Mu/SRKi6a44HMoPRsOAc6rPJj5XAQaTsNZHNtmLodCnhT36v3jv62PNQ6tca7GWdkgLgOo6uVXA10vh+QycnRxYUbm+7zMQfoppT3sc35vjbpD76V1DUkvp630u1kg3y45e8VaT3ec/c1zLeCoqm499FpahmcEweV0IRqLPosJQAbu0Y9ME0fmDz11yIAVamPtpHRMSyY/QY4y2B3weOg0nJoiGQgGA3C53UjE45JgyAs5nYaULGayGSXEVEQASpPhqRe5ADmHI5IvlwAQC3CWOVreX8CIDNICQhUhuVQ8EReGRiY7Kmehx7u0W4fjDjmgUnSAf+fLJE6Qkz3PcSpK6GwuB7OQF0CmHCNX1U45tig6xVWCRQmtXzpZE3KysV46DWRKK3n1HDJRafClnDjfOb3qKDMS26cCBeqZw6EK7O/vIZUkSMwhn89K8icvR3CgIghcwThhmpxE1AtMfgq2gZNtLpfRz6D6Vk2Oefm72JCTgZN9bsDMmaKVkTcLyOVycLvd8j01OiTSYKjVkuUwnC7eV2lsWHayQJY1LynAoyYXgi/lmGSWLPZZcQxYK1txwmrlpOZT9Q9r8mPfyTU55gTAWE5UCYuxf5Wd+BzZoi1UP6lriR044enISXG0Wk6+/L3S4MaiBJf+02JlPJ92VuBZ2UZArO5fOkdrlWk9gxU3ZjIw7Ww5c/4uIEQDUo4RS+BMP6ECRhRMK3pvBfqsiAuvxevIUXo8WuPCeq8sgC2AjHbViwKOIXkvrfGt5wpGPjguzCynfxUJOfyxrMc+y8NRUM9PEjYLNEqf0T7acasxqME+nSGc8FIjJp+Xdzyft4Cijko6AI43eaP5Hh4CYwpkBfxeBAN+pJIJSXrmcWqMq7FPcMR28Xlpdxqe4FjZXAnXu90uVFeEkM+ZOEgkkMr//+y9Z3dc15km+tSpnKuQM0BkEGAOkihKsmXLlrvtnunpmen+cNe6az7cdX9cf7medrvnjqNMScwRJJFzzkDldKpmPe8+B1UAQRISg0XzlEyTKJyw93P22e/zZh1ZO1BgenaJBecMirmvMBkEuqTDYVf7ha3EeZRQ0FNqvcNjYJZX9NXY3/h+OVwueV7xeEL2G45CsztkjHJlTTW5k/Fqas8NRcLweNzY2d6RjLBAIIhwKIRUKoV4LHbgnVFGLqPcvuz76nlXklyTpMrYNZuhJJXfN1pluN84XE5EqqoQi8eRSqbKyoZUyVfzytuAmsZG+HxerCwtQ0+m4BRzkkUQXsoGjjjAFok0lEoV0fjcuLjBmQQhkUzIYpPN8Ij2xseNtBbzGoW6jQSZDM/QCHhZmpWNTZYvaCDgQ1NTE1ZWlpFKpYUEtLa0oKm5CdOT01haWZKXlYWWgqEgdra3kUwmldCjkDLCf5W/tNyEKRqtQsDvl6JMqXRKajOo5pJk4oblwtBoOGenyylCu6enR1IoWXCJZZ3NzZIXZxlpMcsZbaZlEyKTF8ZtBECa/hbTQmAjUeAmY5eXkeeL8BJTuyIVJEMN9fUIRyLIZLNYXV2VeBBuJrJFmteueKhCLKRLpvnuKAFMISG/27fOlE3voukwC8TtQlNjoxSQyqRSODl4EqViAeNjT5BJx+D2ONDUVC/9LZgVMj09g929mNrYKKB0pXEp4qeIE5+REDVDmCprALUUYqMEab5A0sHjjD4aotmqTbW7u0s2JpbOZtlsZrusLC9jYWFBbbiGwFVjMMie7OfK0kSBw/oXXDdrq2vY3t5Wm59INMXoxHIlwl+te8m24c8UIAbppFXEZJIkBspyoCkNTklrQwuiRq42aa5fEhr2Aclksmrj5voUt5wy6/K6XGemWVj+NmzjZqlvpQ3r4NplsS9ec2d7S+p4ZLN5RTaMc/atJtyQxVXDdWUIDWOQJinjdSkgqClzzDxexmh0U62vr0NVVQRzcwtIpzNKWEhFVGq3ijyRyCmN225YACl01f2EVBnL37SUmM+MGPLfohFy3TvsIjj5DnBt8NrmWuX4A8EA6usaMbe4hFyB4Jf3C7XiDCEEHW5nEd1dbQgGAtjd2cHU5JSMLxQOIRaLI891WlLkwCRXtFq53V40N7UgFothbW1j38KoyKAmY+QzkZRtElpDo5XlrUQi6mtr0dPVja3NDUxNjBvES1k+eQ6LxTU1NCGdSUkvGMHTznWklCP+2+Vyo7+rC2F/CE/GJ7AZjyFlB/I2mxAEeyVpNYSiQ9PQWF+DpsYgaASam17D6soqwlFmaNmQiHHPIInMAGxOJ8+Z5MSJmtpaRKJVmJiYRD6XM7A19mqHQ54J51iUfUWDy+fFqdNnEPAH8OjRI9lLGxobMTg0KEL7/t27yGVyhiKm5AbHxydWzOUMkq/WB9fyvrFT9gzTUmu43wxrHN+LPK0abg/6Tg6hUCxiZmYG6WRSvbtCEJSVMKfZcenjj6Ug3tTEBPRkEi5loLA+3wMBWyRSWyrZCKF607gJeyX1T2lrXNxMG6T2fJRWfpx7Kl+nMpF5XC5UV9XAHwgiHktia2NbihrxpefmQNMWCcLp00OYmp7CxvoG9mK7aGlpRmdnJyYmJjC/MC8vfFNTo7xYrH3AMUYirMAYFeG/ub2BvE5LgyIIXKJ9vX1oamzC+to6FhcXkIgnURWpQjgaEVZKAcL7c3PkZs7Fz819YGAAtXW1uH/vHnZ2dhAMBqXpUyadwfbWtmBVU1Mj53BzyOczqKmtkZcokYxje28b+UJOzF+6mFi5YVUhWlUnHS13dth3Iiisl5sZ7+v1edHX1yvCMZVOS22HfL6A6upq+ZvfBwJ+hIIhwS2fyyOTTcvP1EooxBPxhDDySJgkIyPzo1CIRiJCfNjvIh6PIRQOi0AjQRgdGRUB2dfXjcnJMczNjsKuFdDT24G2tmYkEgkkEknBj1od+1usb6yLBtLQ0AC3xyMbKjdappaSWFGb5vNhjQuOuaqqWo7f3NyAx+MS7Djf5aUl7O7GhIQ0Nzejo6MDMzPTcg5TVhcXF+X+S4tLaGxqQlVVFAuLC7Ix8d48hoSCBILz43ctLS1wuZy4c/cuXE6Otx5bmzvY3txFVVUVgsGAkFUS0fXVdWkq5qC2WCrC7/agrqpKtI8NPtdcXsbKVN2trS2xXJW1pyS2d7Zgt9tQW1ODrq4ubO1sYnxiAj6PV0p6b+3sYGdvD9GaGjhcbvgDfuzGYtjdiyOnK6JwIPiTRNNoeX7u3Dk0NzVhfmEBe3s7WFleRTgSRVU0ipXVFaTTKcFNMMjrgj+fNYWrSv3Ny/MOh4IIhgJYW1sX61CU16iukvecJIrWubr6BgwNnoTdoeHrr79FLJYQzZX/OUpFeO0aamrq4PF4sbW9JeS8KhJBOBjEztYGstm01DJxuhzSNTWRiMPldsPn88l2kUilZP3yHfb7/CLI44mEvANBf0DeJ66NXL4gWDa3tMAfCOHb23cRz+rQ6YYyLX4GD6GQcNkLaKjz4+OPzouATsTjWFpaQXdXFy5fvoRHw8MYGR0TYhmtikratdPlFmFaVV2DttZWIb7LyyuIVtWgprpGxstnvbO3i/rGejQ2NcpzWlhcwtrGpjSfN4MPw34/hgYGkE2n8ejRQyEOkXAYoUBIBFY6lcGZM2fgdrvkXdjc2JS9iu+jLxDATjyGeDKJjqYWDPYN4O6jYcyvbyJl15C12+CkVa7CMCp6UKkEj9uFL37yKfK5NayvLWBjJYFUMoPPf/KRBJrfvPEYa6sbaKiPyPvG0vWcE9cI9zaSn4ePHomArqtXtWL4fFZX1hEMhdHc0oxApBqr23tYXN3A6XOXpRPuowf3xdrCd/fk4JDsI9f+/Bfk02kh/UUUZHwBjxu1oSB8Dhs2t7bkXYtGw/B6PeJSTGdzSCfjqIpEEY1GkcvnsbKyIkpSOBxFPJHGWjyBRKGExrZ29PQPYHRkBCuLi4oc0hJjqCcZm4ZPf/oFpqYmsTg3D6eeg6vCRXyU++04Mux9PcYWijSUbIYFgS8mNy0uqnSGFQVLstHS1cDN5fuBa8QTFAGHzYG66nqcGjyNXDojpq2RsTHU1NZJTQQKElouyPB7+3qwtrYK+r8eDj9ATW21bPZsssTFzU2tr79PNqBHw48QCoWk1wK5PbtCrq2vI51LCSuRra2o4eL5i6ivbgD0EtZW1rG5vYmaulrZuKjNTE9Ni/DipkrBNjk9JUxVXiK7AxMT47Ig+/r6hER5PR48ffIU2UwWfb29aG5uwf3796UA1JmzZ2TjtDs1PB55gHgqLkqrXtLg80Vw+sxFFOGQAlGTE5Oob2gQiwjHQYGr6znUN1TJ9UgIPJ4AWltPIBiKIJ/Xsbu3K8+KxIWmPwptul+qa6pFQLPU9MLiosSQdHd3w+VyCbnips2NkBr79vYW1jfWhByw/DStK8MPH6EqEkJtdQRPhu9ja2MBkbAbH1+9iN3dTTx5Mop0JouGhir09HWJqZEkbXVlRQQ6G25RK+V1+XxJTkh6iMWN6zeEwBFPj9eLP/zhjxgYOClClsR0cWFBBP7Q0CDcLpf06vjLV1+hrb1NBNLoyFOZk8/rlTLadPVQsExNTePSpYtCDrheWbqbLimSDP7Nez98+BA9PX0IBmgK5eb2GG1tHTh96ixisSTm5hbFQqTnaVIqwOd2YKizCy1V1VhZX8XcwjyqwiG0NzeJKXpjc1PICjdPEg8K4MnJCVmXFJS1dTWYXVrA+uYGOpta4HG6sJtM4un4OFqbW6R8eDqvY3JuARMLi0gVKPiUlsYNb181QhFutwOf/+RHmJ2bxtTUhHQ3bWxswJkzp5AvZMT1M78wg8HBfvi8AWQyeexs74nljc+D+HO9cH4kWydPDmB7Zxt379yRZ9HUpIgfrR3srtrd1Ss4FQol/PGPXyG2R01NWRf8xSJ6GhvR2NKEVC6N2cUFUc+6WloR9fiQ2ttBLpVGTTXJV1CsOOyL4vOx9kkAJc2G3UQcwyMjCEbD6G0/gWwyhXvDw+js7UHYGxAlYn5pSYhxZ1uHEB2n240/fHsDG7kS8g4qNMo9J2Z8Cgj6m7UCaiMOfPbpReQycUyMTWJ+fhWnT5/BF198hr9c+xp37w3D7Xbiw48uIBqtwcZaHA8e3kcw5MHQ4IAoJSzXfu7ceXR3dWNzewuxvZj0bjl3dhAhnwdUqG7cH8HMwgZ0m8vwUBURcNpwqrdTrAwPhofh0uxoa2rBQGcX8okkxsbH0dPXK3sL1wvfGSocLBTn8fmxmUpiZHoCAZcXl86ex73hJ1jc2kHa4USWWrheYJ6CYTFRVgD+j/f57JPLqKm1YWF+HNMTq8jnCvjP//ilkK0//eGmkKDzZ05KOfu93RTGx6YwPT2F8xfOorYujN/9/n8L8f3k6kdIpfeg2Rx4cPcpOk+ckH1I8wcxvrSBGw8m0H/2YyR2dzH19JGQLVoQO7v70NDUihtfX0Mxk4bm4F5XgNNWQsTjRndjDXqb67C2uYMnE1NoaaxD14kWZAo2LK7twGPTUR/yIxAKYS8ex+zcAlpb2+FyezC/tIqpzRg2MwU4/H5c/dFnmJudxeTYOEqsm8OGgLQg2DU0nujGybPncevWLawsLsBTKsBBq5RpQTgqdOZ9lf7HmPeBNEchCH4WJDJMhDbIput2uQ8ShCMKJh19L8M7a4Thuh1edLX3oqmuCXNTU+jt78PM/Kz4lWg6JnulmYsbm91pl5entbUZd+/fRV19rWhLDx89lA3f5/Xh5MmTKOgFPB15ip7eHhn72OioaP00/xbAdtDKXOV1e3F26Bwy8QyC3hDcdhd0rYRkJimbI8kHiQeJBoUQr8cxjYyO4tSZM9IEiqyfpu6zp8+KdkKC8OTxY7EUsBkUBdn16zdEw6CmSqHS0taEuw+uI5mJQ6dPFXbU1XXg/IWP8PjJKLq6esRKwsJRFOpiRXE4kErtIlrlw42b11HIl9BQ34qzZy9jbp4VIH0IRSNIZVNweTyinfE5EQuSOxXkQy1sUxh+W1ubCPLx8Qkxa4eCQbFsOB0a8rmsaHJ001CjXlpYQH1NLcIBN0Ye38f21iJamqtw5cp5PBq+i9HRadhsDvzox5dRsmVF0xgcHJS/RSAFQ2K94B8SL45JxUAAY2NjQqIaGhqFKPzm336Lz3/yBZ4+GRHLSCweE2JE7WNrc0uI2O9+/3vRMk6dGkRvT48QJmrxnNPa+po8Z27eFHRzc7PoONGBudkZsQKtrq0hGFTrOZlMiaDY2dlFPqvj5vXbaG3tQEdHNx4Pj2JnJyE+VXEblHS4HTacam9Hf3MLNra3MDEzhb7ODpxoapI57cb2sLvDZxQVAch5r6yuoqmxGRtrK2KZiOezsLtdGOzoQiGZRqpUwDc3b6KuuhZDg6fxeGwSS5u7WEslkaApl8Gadgc0I05ElfsuweNx4Kdf/Aj37t+SjZH73ZWrH6GjvRkPh+/i/PkhLC3Pob6uCprmREG3w2F3CrFkXAfdcLQUzc8voK6uVlxXnMNXX32Fnu4eIRCM86B5O5fNiXVvbXULDfVtuH37AXa22Z9EBarW2Bz4oLcXuk3H06lRJHIZdPX0oM4XQGp9E83VNfCyyFkuKxqi+IVJ3CRwlZEsJfETTyzMIVQVRVtVLdw2O/5y5xY6+/qQ3NpFdTiKJM3Rdju8DifWVlZR39KEbx48wkrehrTdJTjRvUeCQMukEATk4NJSaKwPoqOjXqyDjx9Ni2Xvsx99gD/96SvMzq1JFdcf/fgiHA4vHt6fxsbGKtzeIs6eHRLrzJMn47hy5aIQnPn5RTQ21guJ/+DcIJBJIgc3vr4zgfn1JPI2n7zvNhQQcug429uKrK7jzvAw6sJR9HV0ore5FY5cDsNPHqOmgcqQUo5Ikvlu0KJKXrpdyOLu08dwlTTZY+49eoKl7V1kHC7k7E44Szo0yfYyM01p++eOYkMk5EZnVxC9Pa1YXtzF19du4Wc//0ie560bj5FOZnH2bDcuX7yEb6/dx+bmHvb2dtHX34kz5/rw77/5jZSl//DyeQwP38LpoXOYHFnCifZmVFW5kIQdD2ZWcfvJEgYu/RyZeAzTw3dkIJrdifbuXtQ3tuHm19dQyiQBrYiirQC3rYSWaASn2+vRVR3AbiqPr+89RlXYh94TjZha3sLSVhKnOprREvJCczqxur6B6Zl5dHT2orq2Four63g4v46VVAE2nwdXP/8xVpaWMD4yAhQ4/5JyMWgamrv60HfqDG7fuYP15SU4Chk4SoUXxtEdQ06+t4ccKJTEl5mbOgVULpvdD+KhL960IJQDssqe+KPQ2/dH85cGQfB5gjg9cAbRUAQri0uIVEWxuLyE9o42MW/Sl7W8vIT6+gYRcjSb0o/9+MmwWAvIvO/cuYN0SpmUe/t6xRw/MTkhvRg4dloYGFhJAcVdg0Za+jFrqmpwdvCsEASP0ytmaboWsoWcvERips/n5brs5UDNnOSA2vyli5dE2NDETXMlXR1bG5sixGjhoHCiOZ+a+K3bt9HS3CqaRzqbRTASwINHN5HVs0IQSjYHamtacP7Ch5iZXcCJzi7Mzc5JrMHW1qb45WiC3NxaQ2dnm2ilGZrxPEH09Q5ia3sPdqdLzPvpbFriJNxerzwr098sm6ZdU75jjRYLnwgBxjEwaI4mdxKcSDiIXC6j4hzSaQk0mp6aQsDnQ1NDDUafPsTqygzq64L49NMPsbI6j/m5FcTjKVz55AIy2Zjcl+NVmQiaVMCkBsWx8D78kNA5nQw+1EWLpEZIc8r9+w/w+ec/wZ/+9GcxvXKuLa2t8nz5/Chk7z94IB04+e8PP/xQ/J60tnDznpqcFE2Yvye5VNaePnEx0AqxsDAvx3HedN90dXZjYnwSmxvb2N7axbmzF5BJ5/D1Nzeh2ZxSDpw+15Keh9dhR3skis76eoSiYUzNTiHi84sFgURmdW1V5kazPtcFu4mSKDTUNyIR3xPT8treLnLFAk519iCzF8fq7g6Gx8bQ0XECXd29uH7nLpa3dpFzudHa0wvN6xPttZjNyaanUvZ0OBxFXL16BQ6nDePj4+LuIxnt6enE5OQIunvaMb8wjdraGokLoKikEGSMAquT0opACx3fJ/Yf2d3ZktboN2/ekPGTSPA5khyTXNfVNWBvL4FIuAbXrt3A1ubevkUjWgI+7O2D2+fG+MwktuJ7aG5vQ3M4imI8iXBAuQgYvEarAV12XA80X5MoiN/f6cRuJikEQUvnEPEFcPPhfbR2nsDa0gqqI9Vg03VaxmpCEexubSNaV4M/3byDuDuAUx9dFWvf3MysxC5IpHoJcGoFhANAJESCVMDli5cxOjqPjY11fP6Tq3j4cBgTEwtwOO347EeXkEzm8M21B1KNtaExgg8+vCBC8969ezhz9qxYsZaWlsQy9mR4BD/97CJ8dh2PnkzjwdgyEjkPMiWvEAQNRQS0HM72tMDt9wpBaKyuRt+JLoTtTrhJkKcmUVVfIzhIQKiuiyWhsbEZiUwWs9xBKiw5AAAgAElEQVTLFhcQ8vjwwcUPMDE7j8mFZWxnCugcGEJ1NICJkSdIxBLKx8/4lQLJrAPNTdVwuvYwMNCJUsmD//nr/yUkiFbBe3eeYGNtC+fP9WNocAj/8e9/xt5uUt7PwcE+nLs4gN/++29gs7lw+tQQrl//Cz67+iNMjy2IctDfX48n0/O4PjyPjZQDAxe+QHx3C9PD91S8j8OFjp4+1De14ObXX6OUScHGvddWgKtUxMmONpxqrkOwmBGLy41HIwiFPDjR3oA7TyewsBHDpd5OnOloQSqdxShjL7b3UFVbj+aWNrj9IVwfmcDY6gYC9XUSYzA7OYnp8UkVL8SgVMbzUBFxB3D5409lL1hZWgCySTjp6ngmsPW9lfnfaeLPVFKk34eauERf60Ux/WZzWSQTyYPpasZtVIDQwU85pMv4rVEeLByI4KPLV8Qnu7a6Ki9fIpVAf3+/XNv0U1MAc2HT70etkNopNcP6unqMjo6Kxk/tsqW1BYtLixgfH0O0uhod7e1CDmbnZrG9y9gAvkMqSKi2uhb9Pf3wuxm8tIulhSVEohE0NDWJkJ+anpb787o0x3NTmZ6ZlaCroVOnRSMnEaFwYyASidLk+IRoRYODQyjk80JmqGnQtL28sgKPz4ucnsP80jQKxdy+BcHjCUknyVA4Kpo/+1HU1dVJEBWjJu0Om7hXWltbEA6HxKWwtrqOQCCC2roGCVqktur2ukVrl8A7I5LcjBvhU6GgpcumuqpaggFpZiQRohk+n81KxDVNz/V1DEirEnPw1MQk9HweZ8+dxvbWGkZH7kOzZTE41If6+hpkMjpGR8YlAOpEV4sQAZIyxiJQAzWD+YilBGa5XEI+SL74e5IoComV5RUx01ODZYOuk4ODGB0dkX4ZjDehoKagp4uE1hxqwvFkArMzM2hsbBQLAv2UtB7QokA3GANqTYHNGBbOk2uFa8bn8+P00BA2NjbF9Oxx+3D50mWsrW/g1q27KBUZpKeyL6Dr8Njt6KpvwIn6ehShY2puCqV8Ad0nToiFY2Z2RrRw+kxplSB+tHjROtNQVydBn1Pz89ja3UFf+wlEAyHMra5gZmEBnT19aO04gbsPH2Jpcwt5hxOfffFzuHx+/PY3v0U+nYFDfOwqQLGEApqbGjA0pCxmJCebWxtCghwOGza2VrC1uS5NziRNjRRBLAgkvQVxs/A58R3mO0OfOckCY3fo1mJ8Ct91xi8wEp3uD5Yg392J4e7dR0gmcvvJgX5dx4mqKrS2tUo62fTCPFK5LHpb2lAbConVin50urJIHCVQ1/ABc63THeByOLER30NtfT38die0go6x2WlU1dVhe5NWvDCyxYIE5VLA0uWQyGZwe/gJ9GA1/q//5//FV3/+Crdu3oTDpkmUuiIIOqqiTvT1tsLvc4iZ/fHwhLzXZ88NCgEcG59FJpvC1auXkErlcP26Igi9fR04f/4MtjY3xUpJZYR7H62KXF/zcwu4fKYHjTUBrG3E8HB0EYvraeTgp4FbzP2eUhod9WE0t7dgbnkJ6Vgc3W0diPr8KKYy4nIKRMOoqq6WPYnxJIwDoBXRHwxhZnUNk/MLcMKG04ND0G0OjE3PYXk7gR///BdoqIviz3/8PTY3NuCysyhSSUzsxPPUYC+i1czqKmJudhWjo+Po7WvDqaEhTE0uYPTpKM6eGUB3Vw/+8tUNbK7viIJ08cJZtLTW4sbNG1hYWEdnZxfGx0Yx2D+ItaV11NZ4MHiyFtvJHMbm4xid28HgpR8jn0lj9MEdca+63D509fcjXFONG9dIENJgrHFR0+EsFdEYoQWhGdVODXvJDKYWVxGpCqClpQ6Pxqcws7SBvsY6nGpthsfrxwpjxFbWEWEcSG0DUvkC7k9NYzWRQv/5cwhWV2PsyVNsra7DyahMupmM/jk5mwOffv4ziVNaWpiHno7BLunZz+uL8p3k5Xt38L6LoTInnlopg4f4t2geqbSRcmd6Iss4PY8glGnDfrI/wsEILpy/iIW5eRGADNDhPugLUMPVhE1TcyRBIbvlz9zg+WFdBv7heLjRcGPjJszAPG4k1CQY7Mh5JJMJaQFdmW3rdroQ8AbgcrjFlE+hZXc6RHDQWmFmCNAfLvUfkkk5jho9XQgibJjRoTPLIiACiRsutSP+3kwd4mZLEkGTLU2keolaQlr+Lsoa5f85xE1ALY+Ck3Oim0DyjY0iL8SBGyzHRxaSTKZls6U1gMIzaVhXTHam0vyM9AFj5hT41OC40XFD4nwkWJSbthFZzU2UQU48hrjSskJSRNeO2+PEwsI0Mpk4fD4GmXklyn9vj/EUBYTCARE81Lrol5fiN0baqBnhbxIWEhOSLHlGpZIIIt6Prg/On+ZNxlAQZwZJ0QrCZ8IZBUMh2QwZZ0GNmIGQJJAUfhIAx9RIIwuCcQnUgvmM1HNQ5JYWFcZDMH2M1h4+PwoBumBiewkJTlSx8IRGZXxE3F4EXS7k9SySjCFhwBWtMU4H0qmk0TdEBdfStcOgRYdmF5y4sBPptKzDoMcLn8uDZDaLZCYDrz8At88nvtZ0rgDN5cHlK1fEDXL79h3Jg3cY+fGqOA77k9iFLJKc0HJEKwKtKpxvIhmDTsuQm755g56L+V2lH0qOO837hYKQAM5d9SchiVOpomaWi2QNEDuJQ8ohEed6MPzdAJzFIrx813xeIad76RQy+TzCHg/8TvUsmSmgshD4p5wiagY5c61mCnn1TjMlkuQlk4HdRddEXjR8WhCoaYe9frFKZXI57KTSCNc34fOffYlrf7mGxfl5iWAnOeA6YVicy0kXmhduF0lQBrG9lLxz/oAHLj6DFMlqDlXVIfJA0aT5/AIBD0IhBnRmEY/H94O0uT6IeSQcwqn+doTcJfiCYTwancP9x1Mo2kyCYIO9mIfXaYOH7kJaJrkOPV546PbL55HKZSQgkH1jqLjIO5DPw+8LyJpOZXOy5ulDCvp90BxOxFNZZIsaPrzyCbKZBEaePlbxWnym3CsYuGizIRTyw+NlpkIeezFlgfN47BIMmE7nEY/FZb3QNbu7QwsrCbsLkUgQDpcmLqhEIgWvx49MKgO/xyfBugMDraipssHhC2E3acfvrt1B7+lLqK+pw/D9u1hfWUdLcwt6B09iO7aHB/fuQs9mZd+ke5eWMLddQ9jnluDWTC4va97ltMHncSCWyiCVzWOgpRmt0agEo9Ii82R0AjuxOByM79FLiDG13eNB04kO7CYS2Fxbh57JyloWF6ZN34/xGjh5SvaR2ZkppGJ7knVjWRC+H7c5SBCMUCQCTiFN7ZMBOnxRzdzrw7c5iiCUE48MkWUUCKEGycjg7a0t0WCKfHCSnWbmCpn55EYOrBmO85zAknJVt2ctGGaut1GTVgU1GRHHRmqDYcQ1aMQRaTBiqt8XvM8CrHKsD36/H79RWZBF4iDM3GkTscobHp7g4cEcRtkwPx9Z0uzFC8GMuH5e2VdzQowBoVDN5+lqIgM3Cz4ZYzPLvVXc7vhBrOZ8TVsTL1IuovT9lnLlWZV4lbFU2a/lPhNmehrJgZmCyYwGma1mg7OkwS55bNTi6awyS06pGgomAVXP3EjTMp+7cVt+LdRDwjCMivjyO7Vt8QWgBYgWCAbcMqLf4FjGeabAV5ipnypxM015lWvI/PcR62g/L/movK/K52I8k/2QOOOtltoF6v68AvPz6Tqzl4iXAPfCxyeHVJazNrAp11NRsQ68LqmRs6jw05kqCxtcPh+qa2rFJVkguSK++5kM5tj4rhl576VyQzUTNVW4yxymqm1QWSm0cgJS86OoS6bBye4WRHw2xJIpTM0vY2MnAb3kMkrxqERQ8+mYWfcHa40eXVrdHArfSTHZG6RQrIJyVTeiVbXI5VJCBmW7NJs5yfPYd/yWKynKRdV7a+7Hal7GG2BcQ43YrPBprFZa0xhCbSviREcdGhsZPG3HykYSk3PLcAXC8PtVenk2yZguP3yhAJKZNOIJjo/pryoDTi31SsVFYcBYCrsZT2EDmqJVaK6ulaBEkriF5VXsxmm15sF2gC4Vhx1uNvnL5VDIZIVYMrZF0swl40fhRZcjlQMSxKKu6k08W1zr1XeZ9+EKtmBVS4lFJsyPysstwuP1iBZBExg1bGqiR31eRBD2j5eiOmpnEC2TC4cFMZgzbRCESmFfKbxUS6RnP+Z2ebhK4IGXWxan2VjGfI3KS8VcUkcVezJPPere5ot28O/njdHc1itdMYevehyCcPj65e3uuxUBKePwrHPIFHmQOg0SoSyFXdQ+c2CURrnpSvyPRxAqx/0c5vdKb14lATuIs7mBm1kC+13vjEJEgoesVaNOgaGdShVJbqMitMqFpg8P0+y+J9vtUT0dDEJXLtli1ANgnZGiKpQlftSKLV2dUsZJvScHv3vWfPoCgmAI/KMhriQIptBUeMr/S/lfhQV3AwpmiiBdUwTBTnJwoGHV8x/ks++cure5FzGA+CBBKBkuOhtKUu+ECaFqXGaFQbP2nhnceRBJNZYDRGQfiyMIlzF0Xl+KTdGS5XbCqwGZfA4Zvh8aO8NKNYN9jOQeFU/s4AosU8zK758dJ6PuC6KcqDIdLLrF4koZOJxmvRZj3vt1GLiWmONAesFB8apmI7XKu1XSu6M3VtZMYNAfijnR9D0eKkIaMvmSBFPmGFBrYCdplzrfDfV8VPVK03JVSY9UaXZ5NkLeVPYJRyuWH80OF1MfpB5GSawGhaLZWsoo7sQxsR6FYTlRVlBFEMzKfFKzx6z5YtRTeZ5y+0rbzHtysi1Q1VKyVxIEKeZSElMkwacF4fsRBHObM0msWthmIR+pvCeLpbzp7Fes29f01cv3fQnCMxt4hTZUqQ1WajSV55gb/vPXwtH06HnHP59sVFb52tcnXrgERYzJi6FetuN/jDEbG3lloatK8bBfwISETt74w3OtKDFsiqzD5pQjB1VBEPYLEB1/9C8+0sDuuV0Vy5qv0jUM7KRwj6Ha7guNMpE09R+VhWIU5TGqAB5YL8YPz6c9Rsnqsu1BFWgyqopKpUSj6qPMZH/zL9/lWauZiMgjIoGeXf3qMb1ozVasAFlXqnKhEARjLBQE/OMw6prIUVJwT4NGS8wxCMK+OD5Qv18RL5XnT2GjiND+fUQAlZA3KpDKTIxy4ObY1M5Vtq4dthUZkB4kui9YUBLDJORNl4wJW6EoGRe0LpEYMYhSiTBFus039/lvY5mIHE0QVC8Fuu/4R8RrkXumIiKS4eM0qmYK5pWl3rmGVTdH1S3U/HNwNcqq37dMmFYhw1KhTBbyrlNw26S0d8EwVygySwEuz1zWqrF2GSzJU4mHVPDUJQBTKiaaH7HksJwzyQWvqda3Bh0OkQOKmDPIVlkNWI1TWSFoBWB1VhZcklmRAKhyruLGVW5ZVo1VReRUIaiDpeRf1w7zvl3nGQuCvHg2m6TgUKOhBYFmL9OCcDwtsYIc7COqiTmIqYH0hdKXrFwLfCGUtnp4s7UZfuHnP5Tvo4E++2q+6CrPF+rmqF5+hKmpV27Naqt4vuZyULt/9h6mHnBIr/8O67d8zaPnr0b7fAvNceZ91HAq7/Z9nt9xpnhQY6rYpfb/qY44jP/B8w6vFGPvVEba7zV0dVKZlJVJllnh0BzVUeRgf689/MtnyNuLMHrRczv0bJTJ4ABm6sdyC3bZsMVkfJjKH32fw4ibdzSfh3mW+X25Z6haiUJZzFgXk74YB5v6phqhElrPdJP7HsvWLK1NuSvhiCQrFcV3FEDHufDLFo1h/q/swiiNtRhvwN+paoFmieqDzhyTKO6voCPW92E318FR7zsrDDLI7ADTyaFGrtyA8q0qJ2pYcIiJ2W1SofGsnDD2k0NKAUm6svyYrg+DIBiCXpUBZzVLU08xSlfLQlLEwPSiKFwOdT87znZhHfNcBGzhaMth43GZINCCEGdw1vchCIfFvarRziAvBh8yBkF1PqnsEPfsOKmVvPsfs39A+YVUG+VxNP/naXwvIhevA7FnidTruOq7dI23gcB+eeSXyY4fIHCGEnigkdDL6MerTFPOldfBEBKGLDyKDr7Kff76UBvv9j7BqdgDDZfpPhTfcbAv3zXM/UbFcxx+nub5SoyrY8uk7uWol0m26RWoiD97yenq+Zur7mgL23eEwzr8JQi8JYKgRkGC4CdByOek3KYZ6fqiOAKLIJhP8KhX9U2v74qX8U3fyrr+O4uA0v/ezmefJOxbDd7Ofd/+XSqlZVlov/1xHOeOx98nDlqMzGt/txX03Y4+zvitY56HwFsmCHapGMj0KqbqSKOgl3gELYJgLV4LAQsBCwELAQuBt4+ARRDeCuav4mJ4KwO0bmIhYCFgIWAhYCFwAAGLILyVBWERhLcCs3UTCwELAQsBC4HXhoBFEF4blC+6kEUQ3grM1k0sBCwELAQsBF4bAn91gsCZPC8OQbJZKxP1X9u03/aFLILwthG37mchYCFgIWAh8GoIPNOsiZfbr4Pw2tIc1SBZeOlAkOJ+QYujJ/G2IqNfDcLjnG0RhOOgZB1jIWAhYCFgIfDDQeCvShCkquJ78bEIwnvxmK1JWghYCFgI/A0hYBGEt/IwLYLwVmC2bmIhYCFgIWAh8NoQsAjCa4PyRReyCMJbgdm6iYWAhYCFgIXAa0PAIgivDUqLILwVKK2bWAhYCFgIWAi8FQQsgvBWYLYsCG8FZusmFgIWAhYCFgKvDQGLILw2KC0LwluB0rqJhYCFgIWAhcBbQcAiCG8H5v2uZ5Wdz17Wh+KtDM26iYWAhYCFgIWAhcARCFgE4Q0ui3J/+nLL5sp+9xZBeIPgW5e2ELAQsBCwEHglBCyC8ErwvfhkG4pGG9xnSz6pvup/O6Wg3iCM1qUtBCwELAQsBP4KCFgE4Q2CXiYIvMlBMmARhDcIvHVpCwELAQsBC4FXRsAiCK8M4fMvcJAgHDxOEYT3pZLkGwTZurSFgIWAhYCFwBtBwCIIbwRWdVGLILxBcK1LWwhYCFgIWAi8UQT+BggCQwGpj5tGfJryy+F/7AjJn1/+qTzm9cQGcGTlKx0cw4stCOaxlSGNz59BZcNL23GmWoHWy3F5lSMOj5+DO/jdgWadJfW0jv4cxoRHvf5n9iqztc61ELAQsBD4W0LgHScINpRE5pRE7rA1tEkHSvzO+FkJnRflDChxber9B/9++eMulUrSAfOwOFS5C5VCrPzv5xOEw0LP/PloyW8K2MrRv5wkqJG+SBwfnvXhuz8jyPkgbAbSxEMeSOVRlRgrtOUZHUD+2fbecoRcT2FsEoyifF+ETa5hfn98Ovjyp2odYSFgIWAh8H4j8M4TBEqaIv9PK8FW0sD/+HMJIkJEUGmGJs9vntHNRcC8WPyZuQi8nmYQERFaNsqukvzRNE0E2WG9Vo3B/By+j4pBMIVgeSkaxx2SwofFrZx7hMp94KujL1UhVI94AY6AQ31VvrJ04iQHUwxtH0MK8VKJSNsq+AGPUc/DtKnwCXHsz95KfWmSLuMHuZYS/ybd4310aJq6f1HIYPmIo+mUmuuLfvd+bwfW7C0ELAQsBMoIvNMEgeKA8qloo7ApQSvZYSvaULIVwf9E47QBdsUfoKMEXYS8oWnyvJeICwo03cZ7ULstwWl3wM776jpQJHUooWhYEA4vLFN4P0+jJ3Xhp1hUwlMmw/uI8m1q4wbROaCNVwi5I4VsxUiUceWIz0EHSJnDPCs+RfxLa+6ypu50uFAsFJEvFGDX7Op0G+Bw2KHreSEJSrsvE7BKW4giB0cTM5IDvVCAw+FQ5EtQLslzU6fYYNM0RRBsCn+OjxakyrDP5xEBiyBYW6CFgIWAhcDLETg2QdBMIWBoyS+/9LNH2O12+Pw+5HI5pNNpiBb6Kh+RMjaUtBKKtiJsRTtsugZoRSEJSlqUYDe0SxIEm8Mhgp4CXqwMIj2PEhlK1y2VbOAlSSworBw2m5ANzXBf2DUNBV2HzUY7hbqWEJfnEg/TvG+o/4YGLhYI8wrKpCBa9wGLh5xqatDHA+4ocnBAUJuXUVxKbsvx220a9KKOUtGYj5hOjOdlMB/TRaGWhLKi8A8Ft7IiVFpnlLNl/xtD1lciX+mOEYIBGxx2kg8bCoWCwt9uh14sweF0Q7MVkc+lhEwVxXbE/5TH6SjLijnVylEdD0XrKAsBCwELgfcPgeMThFcV5gBeB0EQwSuKtg0uhwcOuwuZXAa5YlbIgd8dgD/oQ6aQRjKVQJFapkEQNJcT0eoaFLIZ7G1vixArGSTiIElQPm9aHig0SQ5opdDsdtH2nSUKULuUQSroRTnVbndAN90N4oZ41seuKIcSq9SGeQ2Xyy3Cj4RJ4hgMia4sCGVRpkz3dGsYbokjLAeVy1fudATvqdTcaXWh9q0OVDfWStTXlbXE4XAiGAiiWCghkU6hUKSQVoK/WCyIu0XTFBkiLgF/AIFAEOl0BqlUSgwiijyoeStUy9Sp+Ax7UUcI3Sjp0As6/D4/qqtrkUwmsRvbk0tpdgeaWtrhcmhYnBlDUS+iyHHTimDe7QUkwSII799GZ83YQsBC4Lsj8AxBoAZod9jhdlP42mVj5uav06T+ip/XQxCUKZ7XqqtuQNAXxtLaEvbiu4gGq9DV3g23z43FlXmsbiyjUMyBLMBud6GtsxPVdbVYmJ7E1sqyxCZQyPCj6wWZJ83alM16PgfqrrQQEBMdOnKGb90NOzpa2pHWC1hcWkFJ53lOZPWCiDePw6kElUYCwfNoq6DoU2Z69f82BHxBdHR0YGlxCatra3C73bDblW+f2jtJAecp9+e1iyX4A345LhaLiSWGpIVjlmdU0JVLRbPLvYu6Lt/TUsNnyuvmOU/ix3nbqJnnhUTZHQ6lneeLjP2Dw+5Ae2sb6mrrsLW1jcXlRaQyKXHSUHjDlsOZM4OoqatFsahjYnxc5n750geYmprFxPgUstk8nC6HzDiXK4o1hoYovVggsxDCwPHZnereuWxWUDLdFEW9BLfbjxMnuhCKVuPeg/tIZZLw+gL44MonWF2cx9z4E3H1KKanSNW+Ueho38oBu8YrLmnrdAsBCwELgb9ZBA4SBBvgcXvg9XlBl4IZcEbBs7u3qzTYFySivQyl10EQlHZJQRlAU10rirkSFpcXkC/m0NfVj5aGVoyOj2J5fQlFWw5FrYCCriEQiuLChx9hfXsDE8MP4MinUe3zoS4SEvKzvbWFXD6P2tpaeFxObKyvCREJh0Lwut1ipVjf24XT7UZzpAYDvX1Y2NjA0/ExBDxe0bTX9naQSWdQX10Lt8MJu9OJ7VgMa3t7yJcYPGkX8WWHJrEMjfWNCIcjmJ6aRiqVVvf2eGR+29vbohFXVVUJSdjd3UE2m8PZs2fQ3NyM69evY3lpWcZXXVODbCaDre1tIQuRSEQEfiKRwF5sT7TwcCRszHNb/o5WR+FwOrC1vSmCORqNIhQKYWd7F/FYAtXRapwcOImVlRXMzc0hr2ehIy/EBbYC/EENf/d3P8X2zhY6uzoxOjqGW7du4ZNPPsHMzDxmppeEELS1NcDn82FhgfcpoKo6hN3YNrzeoOCdSqdQ39Ag956fm0c+l0VTY4PEFmh2J7Y2E0hnS7h05SqWVpYxMvEU/kAIZ85/iKcP7iG9tQqHiHyTDby8gLVlQXjZm2r93kLAQsBCADhAEEgIKHipQefzeRSL9Cvb4Ha5sReLocSgvEPBct8FxNdBEEwXAwXrmcFzKOXtuHX3Jrx+Fz66/DGqQjW4e/8OZhamkNNTKDl05Ao2VNc34+Tp05iamcbixAjCLhs+PNmPlkgQm5ubmJyaRCQcQXdXl2joa+tr2N3bk5/1bBZOpxMPJkZRW9+AiMOFptp6TC4tYmltFSe7u0XLT+oFPHn6FA1VNTjZP4jdZAozSyt4PDWDPLMrbA5lQShpcDmcGOg/ia7OLvzxj39CPl/AB5cvI5PJIBgK4smTp/B6fOjp6cH6+joWFxdFmH74wYcicG/dvIWd7W3U1zegv79f7j88PAy/34/29naJXuAzm5meQVtbq5yztb2Drc1NIRTNjU2iqS/OzyOby6K2tgbBYAjJRBLj45PoPNGJ7u4eTEyO4+noEyTTMRRJEEo6bJqOlrZaXL58Gk9HR9DX14v5+QUhEhcuXMDDh4+wsbELr9eLixcH0T/Qjzu3RzA3t4QrV85hYnIU7R09mJyahsfrRWtbK4LBIMbHxvF4eBi/+PJLhINB7O6lcP/eCKZnl3Hug48Qrori5u1v0d7Vi4aWTtz46s/I767DYcQrlKMcXrwqLYLwXd5a61gLAQuB9xWBZwmC32/4gFX6XkEvwOvxYm9vD8WSMld/38/rIAhUFGlq93g96O8egq3owsNH9+Dzu3H21AXkMwUMP3mErJ5GUcuhZC8ho5dQ19SOk0NDmJ6ewvz4U4TsJVzuakNPXQQ7OzuYmppCb2+fCMp0OisEaW1zE01NjVieX0BrWzumVpfR3tWFhadPURuOIqnz+jYMdHZiY30D7mgIN27dgtfmwNDgKdx+OIadTB6b6QyKDid0KIJgL2lwaA60tbahp6cXX3/9jWjwdDeMjY3j5MkBTIxPIhAI4MSJTiEIE5OTQtBIBuKJOKYnpxGNVuNERyfq6+vEyjD8aFjIBd0D2XwOLrcb6XQK0WgVRkZGZJ4NDY04f/48tKINuXQGsb09eNxu7O7uCjGMVlXj6cgIGhuaRKsfmXiC7d0NFG0kB4ogaPYizpwdxLnzp7CxuY5EMoHh4Ucy3q6uLnz77bcSV3HmzAAam6Po7e3FjeuP8eTxKH76xUeIxXcBmxujo+P45T/8A5aWlsQ1sDC/iAf37+EXX/49NjZ2MD46g1g8j2weOHX+Euoa6nDtm6/Q1N6JphP9uP7nP6G0twmn0RTLIgjf9820zrMQsBCwEHgWgWdcDNQ0aaYu5AvQ6ZM3fNz0eZMg/DVdDGHuLXUAACAASURBVGaWAH3sdXV16O7sw87mHoYfP0K0OoK+nn5srm1hcmoCdidQsjOToYRsyYZQtAbnLlzA2toqJh4/hEfPoyXkRW9jrWjYj588FjdBU1MTYrE4lpaXUCjqIqCX5ufR3t6BmdVltLa3YXdlFTWRKmzGdpAr5HGyuwdbW1tY39vB/OIi6qLV6Ojoxtc37yOWLSDH4EbNAcYzMhOAGQIBfxD9vf0S1Hfnzl001DcgGAxgeWUZnZ1deDz8BH5/AHX1dXLvWzdvisvg1KlTMr7Z2Tk0NTah80SXWAp8Xi9mZmdRFY0imUzA4XTK86KPn6RncnJS3BYM+Dtz5gz0XB7LC4vY29sVYlLI54VkpDMZISN9fX2yBkbGnyJXyKCkMXGUVqUiNIcNn3/+KVxuByanxrGwOC8uktOnT4n7gwTBbrfhV7/6BVZXZ4Vk3b79GNPTs/jlr34Gp1PDX659i2yugH/+l3/B7Owstra3MDoyKuTm6sef4cb121iYX0Ox5IDbF8TFDz6Ssd29cwt2jw8XPryK8cfDiK+viIuhnNvx8iTGlx9hbRUWAhYCFgIWAs8EKTKYjT5r+poZe+D2eMRHTdO35Pu/Amavw4LAMXi9HnR1daOpoRFrq2uiddNUTU16c31DNGXNziA4le5YYDii5sDJU0OiYU89fozM7jY6mxrRXFstcfUz01NiNThx4oT45hfm55DL51BVFcXe7i7qG+qxur4u1pSGhgZ4XR7Mzs+L0O3s7ITH48bGxibWN7fQ2taG2rpGDD8ewfZeDLmiClIUfmDTJKCxuakFnR2domnTf8850WKTTKYQiUTFasCxMFg0ncpgemZaggx7envh8/kxNTktQYZdJ7pk/MwaWF/fgN/vQzqdlPHwu4KeR3d3N0pFHdMzM8hmM0J6mHGwuDgvhKm5pRmNTY1IJJKYm5tFIp5Ae3ubnL+2vi4WG+IoeNKKZLfh9JkzWF9fxdLygsoU0TQ0NzVh4OQAFhcXsL62irNnz0KzKzcV57i9vYNf/ervsb2zjd/9/neCw8VLF2U+q6srmJqaRkf7CfT3D+L+vWHMzi4wlwSt7SfQ1NKKJ48fY3t7SywVH374EaYnJ7GyuCBzs6ofvcKLaZ1qIWAhYCFwBALPEAQKKZIEmpddTtd+tDw1xx+Ci4EEgQLH5XKJu4MFdZgXzw9TBxntb2RC7if2FxnRDw1unwctra3I7O5hc2kJTk2D1+WUSH6m/zHqn1kLvDYFaS6fFdM3LSr017MokKQoaizgw+B55YYh8WGaI4W90rBdkl3AQM9sNivkgCmQEn9g1yQtz+32qvx9ndcwqgwy26HIjIqiXItxD3QT5HJ5lZlglBrm/RiwyHu7XE75PpdVGQ1mxUL+bVZ6pFdIYcMMBJUqyTky+yCbywnBEKuRFDhS6ZycINMYOTTOUxVOVN57dYwm55sVlXkvzt0kOhwzn5PK91RVJzs6TghZuf/gPhYWFySTQs7xeOWaDFr0+QJEGEyaoYXB6XShs7MbiSTJy5xci9aSgb4+eRZjo6NC7FRFR+tjIWAhYCFgIfC6EHiWIBiFfuhqoHCKxfaUBrkvdb//rV+HBUFEFKWWEbhOga4kYbnssaonYBQrMvLhKYJZGonR/UxC1PLMbiio4j4scmTUMFACVKUoKmFoBGYatRekfJGuUvYk775cuMBIbdQkVoCchZH4HBeFKYU+58/zKagpdFVFQJsQCXUvlf7IY1UVSBYKIvHQ93sbmLUSZLwyaUUEhJhIsSVVAMFMs+R1VQqnmhfvxfuQcLCGgxq+EuTynwyL7McoSmQew3vQBiJTUnUPJB7FKNdAqwLxECLJ1EWjwJFZhprjbqivF7fVxsY6svnsPlkyVxSP4Rw4LhIDshKOm+TFLNpEBiWppwY2xyIHh81eFpf4/i+xdaaFgIXAe4PAkYWSKACo1VGDpeam0hsNK+4raGqvTBCMQZja4j4RMEsdG8WEzCp85UGr56mzqA+1X8ZWlGwoULg67CLopNyxktAilJRVgIJdad38UPBTomo2JWTLqXVKsJklk50sN8zKf4aG7TB+RysEjzG1eJtmRy5fLilsWiMUWTF4D2sX5KmNk3iU4HK71FykLoVRollM/0qzp5WH95HKjgaR4ndKi2dNB1UWWVlAyiWdzUrKJgGTjBVxiZglFg0LgkEQFEFRREPwMcpD67oqiUyrjqTKAnA4XSjqBeRyBbmew8lzVBXL/TLTBuMzaz+UDJJn1t+Qola01hikjIWc9p9bOcPxyBf3cObN6yC7780OYU3UQsBC4L1F4OUEIZF4bebb10IQxMSvBJ24Bkz3ghTeMSTfocdp5l1QnLJ6H0sls0pigYYHsRSUhZ+Y/akds2ARy/aI0lxBkCpaAh0kCcZNKcTkn0qTphWBBEF6N1SmiIqFQ/WSKFdNVDEKyjWgrAgUiiQIopELOTHGS4G5TxCMkoXqRHUbwyoiczBKGrJ/gVnVUP6mX4VC2qimaBZvVAJUuXJUDwRiq6whZhCK9D844rUpFZUlQX3EISN/DmfHqvnx3ibJURYgKRQlw1fWCUUQ1J32qyQahaaEL76EsJpDrqyU8N6+7dbELQQsBCwEvgMCxyIIr5q9YI7nlQmCIRAYOEnfO3P2RSOn64Ca7PMIAs38Bjlg4yWNQpTyjj0WGHxXKWSMKoY0a1MkiZZtONrLlmqjLwH7QBj3NC9hFhQW0Wq0KRZTfGUNiQq3hMhuadikLBW02piVE1WDyJKKQaBVQDokmgTBzOY34gL26wga491vW2S0xDZF9oE0VTMxsFwZwIwzONBi2WysVCHlxQJhBq0qXmIQGkVyDhORSkuEMr8crkag3DnEXWI97A4hCbQ8mIWajyIJL+IHB0gNx6epfo/fxYIgPR2e2/DqO7xp1qEWAhYCFgLvGALvHkFgKWMSBKdTykCLC+AlBEG6ORoG+YLpn6eGXyrA4WTgoJHWqevSTMrtdkpwYTZbkCBCauPl9E4lrsyAQcYiqN4EppZrBOUJqVBtjw0TheHrr1ghQkaKkjXBwk+0DuzGdlHI54ySyepcZlMwFkE6Pcp1VaOn52vPlbo2XQ0mtTF7PZgOI8N1YgxQejMYzbKDPh/cdDEl4mLBIIAq8FKTAEq6EMKRiBAa1lIgiTGHdlDXV2K90sy/X6/gQFto5XJgUS5fIIidGMkfm2qpng/7hEXZdcog7pdYPvrNM+0cvIQZTEpiQ+vTgcsYsTcmCeHfpsVJ7CBW3MI7trVZw7UQsBB4VQTeQYJQEiFCwcTKghIweAwLAjd5uhd4tBKzFEg5tLTWIxqJyrXW19dEUA8ODmFubh6TE7PiN6epXREA1RCIkkXM74b6yqBCU81UskwJRBHLIlhUR0JlZ1eBhUIq6D4oFKS/wrlz59HW2oqv/vKVlDfmoYwloFZNAa2yDlTHRNNtwN+ZnaKlB4HcU5n0lVBW/y4TBNVciRcnMSEWcoQR0EmCoJeKcLpd6OvrF21+enwM8b1tePxONLc1wu/zYGdnG5ube+jvOykpn6zjwMDDfXeJEZ+hAkUr7C5mMKVYVJQFQbIj2P1RLEE2VFfXoG/gFKbmFrG2tg5NZ0tnHqoLiuJIMtpsq9ZOyn1hEwuM+J/U7NnLwoihMF04TBlldk62oGNze0eVcxaiqEGXdtHSHUKVxGZcik0Du2vweiqawvxYbOFVNx7rfAsBC4EfPgLvJkFwu6UcslgQCi+3ICj/s6FL7pvCmWqo4+OPL0rtgGDQj7GxMSEGn3zyqZQFfvRoFEWdQisidQW2txOiKYdCPiRTMfmOJIEFjEgy2MOCNRhYT4D9BZwOl3Re2NmOI5nMGJEOOtxuh9RsoCDO53UhBNXV1fjii5/i5s2bGB0dlWvX1NSKT561FihMA8EA4rG4kCPOiAWTWEiJhInXoDWlrq4BXq9fMh92d/YQjyfLBgxaUihA7RpyxSIKEvTHEZIzSJUDFIpFtLS3obv/JKZmZrAwMQa7nkFXXwtOnuoCUIDdYcPN6w8QDddLXYZr165hc2NDSiuLJUTTpKwzf6algymjXq9PcOK9a6prUchxfFtwuTWEQgEhMQV2jYxncKK7D9GGJty4fgPFdBY2iVcoQisV4WE5cI9b/mRyeewmktJwKxr0SvZHLJGGS9MQ9rrh5DxzOSRTSTgdTqn1wIJUK5vbeDo5jZpoGC6thJ1EGlmdzbM88LrsyNtc2EqwQ2gRwWgEhVweyb3YIYJgkYQf/vZmjdBCwELgVRB4LwhCJUAq4JDav47augDOnOnB1NQE+vv7JGNj5OlTXLhwCWNjE5idWYLPH8SpUwMYHBzE3TuPMDs7j6FT/ZicHEVbW5sQAn7Y/4DNlp6OPJVeBD//+S9QFalFKpXH/ftPpIywmK2LebS0NuCXv/x7ZPN5KYT061//Wioo/tM//heMjI5KWeRwOIyPPvoIHR3tmJickCqDFy6cl5LQHg+baWlYXV3Dp598Ipr+6NiYVEu8evUTdHR0ye8e3H8oBYpsNrOGgnLPsPQyHHbEkwkpilRisCfVb60kpOHMxQsIhGvw4OEjJDaW4bZl8OHVc9CcBSmONHjyJG7euIdwuFoqWpLUkKyxp8KpoVPievj62jUhPSQzLPrECpXT09NSFZIVIElqvvnmmhCOTz/9DMlkFqlkDt9+exduXwiXrn6Ce3fvYWdlTYgBu0ja9DwiPi/OD/Qj5HRidXUV8ysrqImG0NfVJqRobnENpWIBvV0nJH6BpabZDIuEjc+LtT1GJ6ewvLGNwb4euLQiFlbWsby1h57ODjTUVmMrpWN4ehE7qRTOXryI3e1tjAw/rrAhHI6feJVX0DrXQsBCwELgh4nAe0cQzMfA+IOBgVacPtsj2i/jACiY+env68ftO3ewsx2TZkltbU04d/4sbt96iAcPHuHq1Q+wubUm1Qinp2fw0ZUrIiC9Hg+Wlpfx1VfX8Ktf/QNKugszMytYWFhFPJY0TPk6urra8N//5b/iL9e+wbnz5/HN19/g9u3b+G//7b8KuaCgZ3XDDy5/IGWgGYj5//361zh37pwIODZXWltdFUF85vQZzM/Pi3vh97//Hc6du4Dunj58+/V1rG9sYHVl3XA5iJlAahEMnRpCIBjC+MSEtGku5HISwMd6CdliARevXIHLE8KD+4+Qja0g5NHxxZefQXPoSCTSYpV48OAhzp8/K2N5cP+BuEAGhwbR2tIsgvi3v/2tmPNZ5pnum0Q8jkw2iysfXZFGWA119fjjH/6A3b0dfPnzX4i1JpXUMTe7Bqc3iE9/8gUePnyAjYUl9t5GoZSHywbUhAL4aGgInnQaq8uL2I7tYfBkL6qCXsQTSaTzRezFY2huaZJy2dXVVdIno7GxUZpyMcA1nWGMhx2dbc1I7G0hwf4dY1Po6zyB6mgIw/MbmNvOIK7raDnRjnQiibXFJYsg/DD3MGtUFgIWAm8IgfeKIJQzAFRA3EdXzqK9vR7zC3OYnprC8sqq9BNgLMA3334j/Ql+8Xe/QLGYRXNzI7755g7u3r2PX/7yS4RCfty/91BM6f/0T/9kuBYS+02RPvnkR7h/7wnmZlehFzTYHW4VaKcV0dHRjP/8j/8J12/cxJmzZ6XPwoOHD/CP//hfsLCwgMePH0vPhasff4zVtTVp5PSv//qvItx/8pOfYGVlVWIVWMr44sWLGB8fl26PPO/8uYtCHP7tf/5WgglZ9VFKPBjxC2wf3dXdLSWnZ+fmMD87Cz1fkPLJzFZJ57M4eeYsotWNePzoCfbWZ9FY7cEXv/gcOT2N6Sm2cp5DPLGLL3/xMyFXt2/fkYZMly5dFJN+OBLC//qP/4DP75fvGOh448Z16fnAbpQkNOzt8ejRI7GQ1NTW4z9++wfoBQccdj9q6ppx4cMPcePb64htbEKTctkFaCUdQbcLHdVR9DfWI+j34dHTEXR2tKKhKoTltTWsbe1JMGVtXY1g0tLSIi4axkpsbGxIV8tMloTIjt7ODmysLGBhdVP+DPZ1S0zCjcfT2Cm6UPJ6UNvUhHw6g+21dYsgvKFNyLqshYCFwA8TgfeKIJQfAfPtbTh34TTSaQr1J8hm02JmPzkwgP6BAYyNjWJjYxVXrlxGyZaX+v93bz/C2Ng0/vs//ydpOPS///8/SufHzz77TC69sLCImdkZ6aHAbo43btzD8vIGCnlG4qlqjcxs6OntwP/4H/83JianJFjwD3/4g1gEPvn0UzHL37xx0whcPCf9ENwuF3772/9AJBLGP//zv0hfht/8279Jzwe2V04lk3j69KkIwk8//RECwTB+979/h83NbXEvmASBUfwstOTz+uBgmmgqjUwyKUF/EryoAVk9j+q6evQOnMbS0grmRh+iqcaP/qFeTM1OYn5uGZrNCYejhKtXPxT3xo2bN8W/PzQ4hHw+Jymb129cFwvLl1/+HPfu38XDBw/RcaJDLB7rG+vSFjuTyeJnP/spMpkc/vSnb5DN0PPhx8nBM/CHQrh98wZK2SwcDg3ZUg7FQh4hrxv9rc2o87sR8Plxf3gEwYAXPe3NWN/cxOLKBrz+AGqqqqRDZU1NjcRnNDY2IRKJSEXGxaUl6XnR09mGVGwbs0trSOaKODM4AKdWwq3HU1iOZRGuq8ePf/4FNlbXcP0v1yyC8MPcw6xRWQhYCLwhBP4mCAKxkUqD/MexKj2qYkLhcEjM6slUXFUhLOpwudziV2ea4+7eJsJhP1wupvblkUjkEQlHMXS6D3Ozs5ienkc2U5B4gXAkjFQyjb3YHsKhEILBEHZ2dxGPpVlLECWm44kFoYS2tkaJQbh5+7Zo07t7e8jn8ohGI6ippUBbFWJQX1cHr88n2vbuzg46u7pw+vRp3Lt3T6wGdDc0NNRLo6rVlRUJoKSv3253yTUoBE0LgpQ/NqooEiazIBTrQbCQk5SD0ujpL0nFyfaOLrhdHixOj8KeT8MT9CKZSSGXZTVEpjuWEAz64HF7sb2zJcWU6Oen1YJBiZwPAxiJBd018Xhc3BB0OTC7YnVtXZo8tbY2ybg31reRL9jgcQXRf3IIi0vLWF1egksyP4ooaCQxJbg1G6oCPgQdDqQzWWzvJeFy2lEd9kkGx+ZeUsbHe0mHSoddml2xPThdHswIiSXiyBZyqAr54XHasBNPI5UvoSochNsOrO8kEU8XEG1sxNlLF7GxsoonDx9ZBOENbULWZS0ELAR+mAi8+wRBKu0xVe+7EASzcqKRn2+WFpC+BaqCoUpjZM+EHPRiToS7yxXAQP8g8oUUZmdnkM9JsWFV2KeiymGBqXkaJFuBgXN2zaUIgnx0BEM+9PR24/GTpyL8GbDHUgVSFfLQ3+wXQSHuDwSk0RGJ0PDjYZVVaaRasskUiwqxVgIzGaTcsaaaRR10MajUR0kDNNIwpWSy9GlQ92adiGwhD7vTCb/Ph2I6DT2bVn0Y9vtGCMUwekqovgtmqWkz1bEqWoX2jg4sLy1Jl0k2s2KAqGpoVYLDyQwQHXoxi2KR5aadYumw2z0IBEKIxeNSqtotBbB0FO0s6wwJqGQnJwfx1BwowAFbSQcKGdW7wcYCS8qtoupFGPUpjKqUdKNwbjpTHEsF2Ph8bU7keZ1iHk7ehwgV7fCFQ/BFQkjGYkjuxS2C8MPcw6xRWQhYCLwhBGyhaPN+GR3zHgd6MSQS4psuFwr6/iN5LZUUUZIUx/00R6lBUFHF+LjZZ0axIVOb3q8FbDRBUJUQVQdLpthR8Go2h6QQ5vNZ6EV2jTRrDpQHQGGtBqTcGLRK8DyzFoGUR2atARcbEKlyzMrwoQR0ZeMos/GR9C9gkymnIgD5vCIkpuXEfCJKSJt9HJRLg9q02dvKLNNskgN1L3MMqkMj+1OwFoJZ9EhjXwpaV4iHjM8oc2SkTHKM+zUfjFoPUjKZ1gqD7EgthP3mUgorkhepLWEr7JdSVv0h2MCKVSxVaqr8i/UTpFJRSREEjklzQLM7UZAylLqqj8D6DrKaVY0Ks+RzZZlnwZtMQ8ZQgq1YQJ6PhMRCen6yCgJtEayNYPTrYGnuA8v+uIvs+78r1pkWAhYCFgJ/bQTeeYLAQklv9lNZbdAsY2wKiMriOc+Oglq5Kaie9XyY9XsPXv+gHFJdE1UFRaM/wcsmawjI8mFGVUWj+dPB74WaGF8ZAlg1xtxvuyBNkYxy0EbrBuN4o+TzfimkF2NxBDpmZYqKMUjNQkWYpMGkKlIkRaWkeRMFeiVeZsXIyl4ZlS0jnjMms7jlfsnnyiJW5TqQwj2MY61Kii9beNbvLQQsBP7WELCFqppZQO+QflTRzfEHbkF48wThVR75S4iE0Q5amcKPus/BhkjHt+IcFozHEd4VgrficMPzcPTwXgWa555rEg91gFlW2eyJoKIlXvFjzu8YF7J6Mbwi1tbpFgIWAu8sAhZBeGcfnTVwCwELAQsBCwELgTeHgEUQ3hy21pUtBCwELAQsBCwE3lkELILwzj46a+AWAhYCFgIWAhYCbw4BiyC8OWytK1sIWAhYCFgIWAi8swhYBOGdfXTWwC0ELAQsBCwELATeHAIWQXhz2FpXthCwELAQsBCwEHhnEbAIwjv76KyBWwhYCFgIWAhYCLw5BCyC8OawfW1XNqssHr8Owmu7tXUhCwELAQsBC4H3FAGLIPDBSy1eVs1RJYF/SJ/9BlTSL+I4BY9+SKO3xmIhYCFgIWAh8K4iYJVaNhoXGfRAlf/9IXAEg7NwPEabBrXGjLLLb2XBVfKRHwImr3PS36Ga4uu87eu4VuWjsCjj60DUusZ3QUAsmvuKlfHP73KB13Ds4e3oqPfgRVuW9d4c7yFYBMEgCIRrf+EfD7s3ehQbIEkL6lLxAEFgB8e3YUkwm0GZk/whYfOqwD8zN/XwX/Wyb+/8ffKo+ka8Sx+zePjbWMOHceG9D9zXeMcEQ8NC97e0zl/7ujC6npWkP4zqCHvg87ZfoRcpMC97Md72WF/7w3g7F7RcDO8IQTD2MPVSGov/+e/Ay96Ot7O4vttdKrSS7/ryHu5l8dzeFqbio8RE5W1EeFR88V2H8N3m+rKjzX4UqqFXeVxqVOxSqcij+fNfz/1kusBehte+LBFT3SFBfYDmvGztlu9kdg85DreT92a/U2t5HUi7c6MpGFumm5i+7Am9tt+/ZK0KdzUJzDM9cxSxFUgNgF+G3iuN+4dkdTsGbseb63ERe9kKP97d3rWjbJ5oU8klL09ZG6ls9xxPJKQl8Otg/G+i3fOrNmtSJnz2+1UvmfmiPWvCOrSQZL9hS2Hj+wPCxdi4D0lytZFVbo7mSRVv3v5OqjY0ZUE4eB+OWVo3G5Jjf8xyAz4paX68LwKP8+w4AvXO8Uy1aaqf+K3qqShWjf3ujcZSN9aOmpcpdNW/2H7axNbYxg4dY74uBL9i7BWC7yiN7gAenK8RQ2Iea1pfnvcyCkI2m2Bb0PNyvmZ3QOP3RXZwlKbczyhHZRyft1kc3kGPt6Oa41V/K2lANFUXNbq8FLaVlIZLlu3C+XHY7WXi+KJ1+ILd6fto9sodp1xgL/XLGa4xc/2YPNfEVM2Q81Zr7fkfA5MKi99xhHrZSqDwLa+ZIooFHXabJu3OVfdO87kdFh7K/ciuopUzNunm/tMu8dmVzzWepnqm5T6pai8wtfJnWE75/MqOoiZKcn+D3Jh7l3RANa9nvp7PrOPjCsRD659t4UtsZU/sVMu0yndT7Z3GPvFCu9Zh7Crv8+KxVVJD7iuVrg6xq1Zgrn5vPiX1O9mLjB2SZLDct7V8X7ULqc/B0ZTX3UsW6N/Ur22Rcx+XMovz0Ao6HAYNMAmCw+lE4g0RhFQqDe17mMs5NrfbLX+SySRehSCUbEX4/F74/X5oNiCRTCKVTEIv6OytLAKEi17jH02Drutqs+a4qW3oSgjyI22ZjfXIhWt32A0BabwQ8nu1QZiC024H8gUdNjigUSiV8rA7HCjqvB4OnG8uft7HzGoAFHGrfDGCwRCqq2uws7OD3d1d44W2Vyx2xQRNwU1BKTMokQaUYNeK8Psc8PicyGbSiMULKBadKFFr5TxLOtxuJ6KRMBLxODK5IvJ6EVVhH+y2EvbiKWSyeZmpz+1EY0OdjCWRysKm2YFiXl3H5kJRNhRuOmoexMVWcqiNDwXYDa1PtbwGSDB1nRsVseTmahfBzrloNtUWm3uYbAZynNr4y3ip7VVmbNPgddvg99lgc7qRTOeRjqdlODrvb7fJ/XjtYlFopJAKhTXHyzHw9xqKRV3FuYI422VOnBqHSeHF51wq/Z/23rPJsevKFlwXHkjvfVb68t6wWKRET+qJ3S11t2bm/YD5OhMx/W0i3vsxM9OtmNc9HU+vRZlWS6REskgWWT7LpvfeJ7y7E3ufe4ALJIAELrJMVh1ElMnEvcesY/Y6250E/8xfEOVKkS1RJtVJ35EQSeo22J0udHZ1YNe/g43VVS5MkjZqf1t7O/p6ezEzO4vZ2RlRpjFHeU7YhImKT8c2msOGaNFozhmkyGhLLBbjvsr38u1wQi7K+ZwWdQIbwpTmrQ5SQQs8xDXa9DMtE1pLSehIJOJwaoDbZkO1xwWPy4lAJI4AzSXYkDCRhOxNmnCkvtG651FJCiHLpJEWMctwg4SbTtWCzBCGcZ4zhLVNj8Pr1FBVUclvBMMhOJx2xOJJRMI0L2msaDx5xvKfJBFKPQGnXUNc17itdg2o8HlQ4fMhEonAH4ginqT3RLt8Xhu6u1phszsxMzsP/26Q565GbJS1KTRHifDpTFKYLHGfxCyTItURS6DC6USl14NIKIRonMbNhiqfD7FoFP5oBA6PG/GkjngyCaeT1nAYTpsdPp8Pu6EQf6fDIY4BekLswcY8YaLF04SocubH7bGjtb0eTocbS0vr2Nhch9vjQFVVFbef+hSNxmGz0V4mNDE8rxO0NgytJy8A0UlOSwAAIABJREFUMTeICNJaEdtngteRTbOn1prQ+KRpJzVN7J06EskofD4vKit92N3xIxZL8L4Zj8Xh8Xi4TpchI5wOO7a2txANR9DV1cFjtLS0jI3NXfgqqtHc3onpmVkkIhEer7hB2hw0+qZDs2jJ60cStBP/6/+uj372K9jCUbho0IzTmNfjhSQILCgPQIdg1iC8eIKgQ9cS6OnrxpUrl1nY3b17B4tLSyyEaC6QYOJNh3ERmx9N/jhtcA4n/0wTUxykxGZM39FkbmlpQXt7OybGxxGOhBGPxQxhLTZKXig2nUkGQBsWbaJx3qjj9CgJG0Mo0yaY/RFsWJ5AhLqZxqixsYmFx+LCItbW1oxFaDciNQQxoH6R8KSx9jicYiHQ+3ocHkcC588OobGxEqGIH+Pja5ie3UacMLFriCWiqK2pwhuXL+Lxw4dY3vAjlgAunOqHDXE8GpliMkCbps/jwMCRTiwsLGDTH0VFZSW6O5qxtLSCNX8Ccd6A4yxsCWaHzc4EIRqNwm4nwUqCPg67jTYOQRIIc9F2+t6FpE44JWG3CwGaiOlw2B2w22xoqK/jPq4sLYs+83jS5mWDZnOjo7USF871wumrxq37TzA7MQfENOgkgGxCsCaStHkJnGlLI92CnQCjTS1JQtXJ7aGNNklCQbejotKFpqZ6rK9vI+APQrMTyYoimaDnhSCVY8ekSNMQJ/KpORClYXV40NHdgyM93Xj06AHWV5eZvCWZoAoC1NPTg/ff/wCLCwv43e9/x79zuVyin4kkC2FjJxaE1nRSJUFE/aK6eb7FaWMX7aB+5PJsEE0WZhie6waeog5B2kkIhcJhhIJBrluQErmOBIGh0zARKmcygbbaGpzs6UK114WV3TBGZhaxEYojptH2nD7FpVskxp4aIQk5E3QSwiQkY3EWDiRI6uvrsb21jVCYDiKGVoLe1eM8B3SbHVUeO04NdKKttRU7/jDmFuZQW1eJnd0QJkZneTxsmgsOIosODdFoGMlkDI21lait9mF+eQ2BSBKtLY041t8LX4UPS8tLGB2bQyDIA8Vj5vEA5y8cR3NzG27fuY/Z2SUW/pqW4HlOwpH2GHkg0TU76E+SfgcNCVYW6nCFgjgz0I/j/QO4f/cuVjZW0dvbg6aaOq5nbHYada0tWN/ZxvrmJvr6+jD2dBQtDQ04f/48bty5i7nldeh2D8BrKsLY2ZlM0oxOMiGhdUg4yvEjzURDYyXeff8KXC4vvv3mDiYnx3Dy5CC6urrh94cwPj6FublF2G1OPgjQnkXjTHPFQXslk7Mkmpvr4fO6sbS8jkiYyAKNZww6rWMmLrT3Sq0UYUREiuaDWHv0bH1DFY4e7Ud1dRUmJqYRjyVRWVWNqakpDA4MYnNrE9FIlPvsdDnw7fXrWFtdxScff4T29lZ8c/07PHk6BbvThxPnLyIQCGPy6VPep6NigcFDrTG2XXnlvCCJaZKcj0i/Sr/Xzv7Df9Uf/b//D+xMEIhNCqYmCYLZxGBNOZWG6+UhCOJEEEtG0NPbgR/96G1MTk7gwcMHaGtrRVVlFZOjiYkJuF0u7sDGxgYaGxv535qaGnR0dCAajWFsbBwNDQ1oampi9kqTdHZ2Fj/96U/R39+PP/7pjxgZGUFDfSOOHOnmssbGxuD37+LUqVNCyCU1jI2NoKWlDsvLK6ipbqCzPBYXSLCJxeLxenCkuxvd3UcQjUa4bbTvEaa7u37U1NZgbnYWx4+fREdHF+7evYuZmRlxyqYN13DCohOKw+ngDYK0F6DTYzIOjQQGEqh0xvHhu5fgdNLpJI7ZuR0sLgX4RBJLxFFR6UM0FsblC+cwPjaKOHxYWF7D6aMdcNkTWFoNIBjVsba6gs6OVvR0tTHxWtsKYmDoGD545xqGHz7Gn79/gGBMKGc10gDQyY5PdA60tTWjsakJwVAAczOzaGhsQEdbO2LxOLa2t7G0OMfl1tTUYX5uGcvLC2hqqUVzUwvCoRgmJ6bQ2tqMq2+8wcTvm2++RTAURGdHB4/V6sYuxqcXUV/jwI+unmSB9OWN26h0V6GtsQ1ujxOLSwsIBgPw+rzY3dnhkxILoGQcba1NrBWYnJiF0+nhcuk0s7q6jYWFZRw/Poijxwbw6OEInjx5Cqczic6uNlT4anhDCwT8GDo6yHPL7RZzhsgTnWw0dyVslU1o6xnA9vYWHj4YRiIaxqnjx3jOEdF8+uQJa/auXbvGgvlX//2/w+ly8fw6cqSHNTaPHz9GW1sbE9itzU10dXVhenoaDY2N6OzswvLKCkZHR/mZwcFB3sA31jfw6NEjkEYh14f2Bt4sefMXhIy0byScWaCwSUmc5On/wUCQ/6U2hsMhPpBHolFEomHYY1Gc7u/DYHsjYv4tVNS34ObDEUxvBBCxuVN+F2ZywLob0sQY52pab729vdjY2GQBSftWe1s7NjbFWiVcw+EwY0wnbCKV8VgUoXAAcGjobm/A1XPHMDc9j42NMOLxAC5cGECFrwoTYzOYm11CMBBGX98RVNVUYHpmBmvrG7h65SKODfbixs27GJuax9GhfjTWVmF8cgo7gSCi4RjaW2iuNWJxcRET0+Po6unE8eMn8OjBY4yPz6C6ug7dR9pQU1uJudkFrK2uo7/3CGpqqpHUPJiYXsTC6jaiSQ0JW4LJe1XUj/cvncfpY8fx7TffYmlzA4NHj2JtcQmtzS2McU1tLaYXFzC7MI9z587i9g83cfLoMZw5ew63HzzGzQdPENLcgIP2nTjidGCAjqq6WtQ3NWJuZgZJIuik9TH0CAlNZ9I7ePQIC/vJiRlAS+D8hRNYWVrD2rof0UgEXp+b5448SO3s7KC/vw8erw9zc/PY3t7BW9feQHtHC374/g5GR6dRWUlj2MlaHZqfbred1z/ti5FwHBMTi9jcCMBGhwU+CMTxxtULICXQ/Nws1tY20d3Vi46OTty+c4cPe7T/0rr78IMPeD4SVjvbOzh5/ATjS/vD/OIaEroTnX1DuHjpMq5//gUWFhfQNdiPutpaTD0ZQSJMWgWa85IYvIYE4dj/8V/0sf/2j3C8TgSB1NFIIBILYnCoB8eOH8Xdu7dZ+H/04Ye8gZHAf/DgAW9upHYklR5twgsL8zh9+jRrGerrG3Djxvc4evQoH6QqKiqxtLiIv3z5FX72s7/hE92NGzewvb2Ny5cv8eJpbm5hrcLwg8f4xS/+DtFIglV2T548wuXLZ5k89PQMYmpqHlOTs2xqoE9Xdxc+eP8DPl3v+nfxYHgYLS3NzKJJzXx06Cj+4z/+gN7efpw/fxH37t3HvXv3WIPAqn3WYGuoq61DR1cnPJU1WFxdxfL0FPRwADY9CTviqHTG8JP3LqO50QObLYIHD6cRi3vg9rrhDwXQ0tqC6elJnD5xlAXc/HIAN364g3MnO3F0oAtbfh3Dj8YxNz+PpuZGvHnpHH744QdMzK+gt68fP/34fXx/6y6u3x1BKO5k7YmNTjF6BA49it7OBpw5fRILS8vY2fVjeXmZT8uXLl3C1NQ0C814NIiBnnYkYgkkEzbcuPEtE73Tp89A05z4zWefoaG+HpevXMbY6CiePh1BU2Mjjh47yptXFE58feMObMkwrl4awtzKBh6OTuLalWtoqmmEzZbE9tYq1tfXmVCEQkE4nS4WPC3NzfD5nKjweTE6Mgmfrxp1dTVwe1wIBuK4f+8BTp85jvqGGty+dQ8rK2s4feYYoMfQ2NiK5eV1jI4+xUcffsAnFTIDjY2P4/SpUxgdG0N9azdmdzU0dPbj4cOHmJ4Yg0NL4q//6lNU+nysGSFh96c//gknTpxAVXU1fvub3/A8PXnyJN566y0Wyr/61a9Yg9XT24vJyUn09/Xh9u3buHT5CquyScB//8P38Hm9+PSv/po1ETT3bt68yWryfB8+6+pgrQPN7yM9PXA6HGyeI7JKJrqq6irU1NRid3cHLpcblZUVCPj98Ad2sbiyjFAwAETCONnXg/ODXbBFg6huaMGfb9zG6KofYZs3peJOq3mlb0zC0H5oTNpICC4tLbH2IxaNoa+/D/Pz86iprsHi0iJqa2tThz7CemtzA+ubq6SkwbGBLpwZOoIv/uMvCPrtqK62470fn0BNdTW2NwLY2tzB40djuHj5NAYHezExPYsvvvwWly+ew8mjg/jL9e+wtuXHqRPHENzdwo2bw2Q7wrHBPhzr6xUaxXgcP9x9DN0BnDl9GmOjY5icnMOF8xfR2FQLl5vU8yHcvz+Mi2dPoqe7G6sbYdwZHsfk4gZCCRvitjgciKDLncSVoR7UVdVgeWUVG8Eg6pta8HD4Afq7j6CtoYHHYnxmCovLyzh79gzu3r6D86dPQ7M5AU8Fvrp1H+tRDTGbg31YyJTmq6vF6Yvn0TswgBvXr2N2ZATJSAR2w7QWJzMIadTsNO5EtICBgSPo6W3Dl19+h+3tGJoa63Du/HEeY+o37Q0rKyu49tZbTDyHhx9hY2Mb1669gbb2Jnz15bdYWtzA6dPHGQfSFu7sbjMBaG6ug520HHDju2+GMT62AM1Oprcoqqs9+ODDH2NicpTnF5ljGxqaWXN6584dvPnmm0w0bt2+hffeeY/3ywf3H/DBwc6HJaERJq1nLGlDZX0L/uZvfo6vv/iCD3LHzp5Bc3MTHt68jWgwZHgDvcYE4eg//Bd9/Jf/N+yRGNwGZ3zlNQgGQYglQjh/4TSamxtw8+YPcLqcuHz5MmZmpjE4OMAbtNvt4tMXTeCnT5/C6/Xh7NmzTCZootEzFy9eYCFEKj1ir0QaPvzwAxZudEqjjZoE3K1bt/hdOtnT8x999DEePHiEtdVtJiWffPIeQqEw/Lth3Lv3EOEgW8R4g+vo7MTHH3/Epo2xsVHcvXcXx48dQ11dLZ+UiLT8y7/8C2pq6vH22z/G1PQUbv5wEw47qfyEXZ+4MJk+iNB4a+swOT2LiSePkAzu0oEKDo00CBF89OOL0JIBaIgiHCV1pwdJPY6dwA5a29pZe3Hu9AlWzd64/RhfXv8O1y4exdvXLmNheRt/+NPXWFlfh8Nhx3/68F08eDCMibk1NDQ34icfvIuvrn+L0fktRDUfnJ4quOxORAPb8NgiuHp+CLU1lfjzV9+ArC/UexKERNhIE1BdVYU3r5xHjc+J9dU1xCJJLC7N8ynE56tku+Kv/+3XqK2rxSBteN//wJqHK5cvGcJjAbvhOL65eQ911T5cONWLe4/HsBmI4MrFS4gGgnA5bYiEA1hZWcbxE8f5BEobO52SL126gFBwF+FwAFOTc2hr68LGxhq8Xi8AJx4/HsH586cQDO7i7p2HqKyqwrvvvom7d2+iu7sfwWAYE5MTeP+993hDmpycRiIex7vv/pg37GDCju+eLmLo7BsYefoEUwZB+JtPf4qlxSVUVlTg7Jmz+Of/9s84cfIEa60++/VnrBl47913+OeWllb8+7//O5OA9z94n4kOmZxIQP79L36BialphIIhno/0+fDDD3H9+nUeV9K0kO2a5hn7+JgduwyrPBvIkkk25XQf6WZiTCdIIghk1iLBzWW4XCxso7Eotja3sLS8iO2dbeEzkkygrtKHgbY69Lc3w+GpxPWb9zC5FYazppkxiRNRSdBJNn2KIw0CmUcEIfdhaHCI1xlpmeiE2traymSH/iXh0NbehtWVVR47WnfBgB/BsB+aM4Gj/R1MEL78/Bv4dzTUVNvx5pUBxKJhxCM6kwwSNkT4yF8gmrDhs9/+CYOk+eg7gq++vYFwDEwYIoEArt+4B82h4cqFk2iuq2Si0tnZicdjc9gNR3Hm9CnW/kxPLeK9995DNBZEMLiDlpY23Ll9F4M9naivrcXwoyksroWwG3fA7qtCNBlBMubHhfY6XOxpJ8s9k7yx+QVU1zfi4f1h9HV3o76qGl63C5NzM1heW8WpkycxOjKCqxcvIRCKoKKhBZ9/dwvjazuIE2EgHwEN8NbV4OzlSzh28gS+/vMXmHj4kFQ97JNGuwYRBHKYJf8NMl2R30NvXyeOHu3B1199j42NEJqa63Dp0kn4/TtsPiNi+PDRQ24DkcW5uSU8ePAYJ04MobmlHt99ewuJuI0JQyBIcyKO+oY6QIvA6SATmAMVvlrcvTOO0ZF58lyBrsdQXetlgjA9Pc5a4NaWTgSDUSartCeS1pAI8Z07d/H+++8jFAji4YPHCAfJdEFmDDLl2liDGk0A3ppG/Oznf8saBDpoVTc18Bpbn1tEMiZ8qaRpIa1JyOek/CoZFwwT34l/+K/6yD/9X7BFovAYPgjZToq0Sex1WykdjJfGxKCR7UtHQ1Mt3n3/bZBn2+ef/xH1DQ1ob2vjk8fQ0CCfuOhkQsJ+cXEB3377LXp6enH+/DlWa46MjCIQCOLq1au4d+8uLl++gps//ICnIyP49NNPWZU8PPyAHWreffc91i7QBn7n7l0+iQ4NHcW//fo32NkOMgH527/7KzQ0NOF3v/0DLyiyf0p7MJ1kaVMhlepXX32F27eJbJzB0aNDIFVeXV09/vlf/hl9fQP46MNPMD4xwUIiHIqw4xDbBPUkqqtr0NrWBofXi5X1DWwsLcERjwprJzF0Zxwfv3sFTjttwgn4g3EEglFU1VXyCcLrq8SDh49wbHCA1d1kz7xx8xaGjrSjrbkBmtODmfllPHoygtraGnz07tsYGx/DzXuP4XC58fEH72BhcRn3R2axvhtDe/cQ+vsH8M2XX0CL7eDa+SH0HenE/cdPMTu3AIfDgY8/+ggLi4v4w7//EY2N9fjw3beZICzMzWNuehEdna0YHOzBzo4f8YSGP/zHf7Cp6MzZM9xWOmGeOnWSNQiTE5N4OjmDxfVtvHXlAnq7mvH5V98inLRjqL8P22srfOLd2lzH4uISPvnkY57ov/vdH1BdXYG337qGWCyE0ZGnWF/fwsmT5zA5Oc4CiYjdxMQM3v7RG6yhun3rPo/f+x+8hY2NVbicPty9O4zqmiq8+8473M6Rp+OsXn3vvbfQc6QHf/z6ezya28a5qz9GNBLGvTu3kYiF8T//4u9Zg0CCLhQMswaBiB6Zqb7++iuQT89f//VfIxQKsdbjT3/8I+bm5/Dzn/8tqqur8Y//+I9sDvjZz36OQDDE2goyQ9F8IlXsZ7/5DLdv34HL5cTRo8dYsN29cwdr6+vCP8Hk880uGGyK1dHc0oKuzk6epkHyPdCB6poaNnPQD7U1tUxMSIvGprrNDXZ+JZWxy65hqKsJR1obsbC4jsn5VWzDiTc/+ARrKysYefSEnccEQRAaBJrDkrSQsyyRx62tbVRVVWJtbR2dnR1YX99gzQFpflpb2zA/P8dto9P87s42dna3AEcCzfUVePvSaUSDCayvRxAKbKLnSA2Cfj+ScaC+tg6bW+t8iNjeXkNcd+L3f/gSbS0tuHTuDJ6MTWBiZh4Dfb3o6+7A3MISVje3UVPpwpGOxpST3o1bjxFNaLh69QprMO7de4SjQ8fR2t4Ip0PjeXv3zj1cuXgW1ZWV+MvXt7C0FkDCWYGrP/4A28EtjD0Zxpt9HWh26vBv76KtrR0jMzOob25GyB9EfU0tlubm4HG74a2qQMzwMdom81JrG6Zn5tHeO4CxxTXcHZtmsxoRLXYRdtrR1duDoydP4LvrX2N3bQ0ecuJkDQKYRKQiagyXSSIEFy+eQjicxOrKDoKhHXR1N6KmpooPIzQmDx8+4Dna3d2Nra1dfP75X9DT04VTp46xeY58MY4dH2S/BPJX2N7eZH+dCh+ZP+yoqqzH8PAEHj+cQjwZY82ew6nj6psXUFnlZW1AZSUdkGZ5vpIZgXxPbt66yQe4n3zyCZuevvryG6wu+9m/idxK2blVAzuZdg8cxcULl/DFH/7Ic/3MpQtobWnBjS+/RtjvN6LOxIR/LQnC+f/t/9Qf/H+/hC0UgZudxNI+CHQKIB8EmUQmlw9CKVzqpSEIdC63gW1hA0N9bNN/+HBYeL66nGxrJtU92c1oQ6ZNaGV1hW3E5AXb19fPi59OJHTAok1ydXUFba1trEHY3tlhwU0bM6ltyQ5KZRCrXl5e4nL6+3pRXVPNGwM5ydDGTMyYTBdffPElYlES0MI5hz604Z05c4bLpI2Q1Py0AZL9mIRoIBgwzBN9OHbsONuY7929h62tnVT4kYyucDld0ElVHY+TzhCk6CddnZ6MwaNFcGygE60tTexjMTu/jEAojJb2Jngr3AiGouyM1FBbh8CuH1UN9djc3kKVywskEkjaNXgrfFhYWERzUyP7Cuzs7LLzIpUz2NuJ6ppaTM2uYnUzgMraJrR1deHho2EgFkRnfSXbYiOxOCYmpziEj4QgqStJg0NaiY7WVrTU12BnexeL8ytoaKjFkZ52JmtbW37MzM2hsrISvf29rPom0wSN55EjR9g8Mz07D5vLgxPH+lHtceLx+BR2QjHUVVch7N8x8AzyCZo2OMLpyePHrMYfGByA1+3AzMwUIpEEWprbsb6+yqfmgD+K7Z0A+no7UFntxfzsMnb9AfT3d6Gq2oe11S32Yu/u6kR3dxf3Z252jk/aRP6Igf3pL9exFUqivbsPA0NDeDR8H5vrq/if/v7v2E9hanISjx4+xPraBs8fMitsbmxgfmEBA/0D/DsyEZDmiubdJ598wv5E//TLf+JTFpmg6hsbsLK8wjZ10o4dP36cfQ+oPUQGLl68yGadP3/xBdbW13j+cBgb+4uQo6Kx6nWd5yXZvanOWIy8yyvYbEF17+7uwuP1slmETRA2G3Z2tvk7MncRKW6rr4JTS2J9M4hgDNA9XvzsF7/A6NMR3Lt9h+cURaKIXUk42crwSnI2JCIoIxeovtp64bBHGg6qh9YL/Z/Gkhww/TvbiMQiLPDcjiSOtNSivbUTZG5eXlmCz2tHJBKDntTg9XoQDOyyr4COCHZ2wpicXILLYec5moAdEzMLcNqBvq52eCoqsLK6hvX1ZbS1NbKZi7QbU9ML0GyEfQ/PITIfkjNfV1crfBUuzMzMsy39xNEhdnR8/GQca1sBJG0uHDt1BuFYBPOzU+htrEHSv42d9Q0+yOyEg7ynNDc0oqutg23yRArrm5vg9LixtrrG0Ty0iywtr6C2uRUJhwdza1uIkSsJO7IK33xvRQWq6mp4nZEPgpMjigy/fX6GhCqdwkVkh8tlR3t7A5qaWxEKx7G4OA+Px86CmkypVM7G5ib6e/tQUVnBZJvWYV1dFZMEIvKzMwtwux3o6m5nUyrtt24XRVy4OcrB5fRieWkDq6ubRiQEeZ9EUVtbgc7ONtRUV2FnJ4CFhRU0NzezH9b21g7m5mZ5/RPRdbkceDj8GKtLmzymMhKBjAYeXwVOn7uA7V0/Rh8/RSAYxEf/6Sfsv/Kn3/4OgR3ShjATThHUlL2q9PPxoXxDq3nrEz0w9giueBJOk5MinXTTasbc0cliwRZPEYgg0CmGVI60mb/oMEen28FEgdSW7ORkJFKhjYy8ytnrXSOzol0omshml0zyRkvOOhRWkwp+4UiDtHc1CW2X04lwJMLvuV1u3nyp7/Sz0+lgJ0Ny2iLP4N6ebnZYok16a3OXT/2Gkof/IbvY1atvwuV2sXf26OgIpqenWJhRSCV5rlP4mt0h1MPUfrLJxskRUXgopuKXxSFAjBttvhzgxmEaCejxADyOJDweHxK6hkg0zqp+p5s80BMsFMnr2kHkhbyNnUAsEYNLd8OmawjHQ7C7KPRLg9vpBPli0ycQSSAeT8Lt1FjIR0l7TF4P5K1tt3PIltMG+Gw6XBxGaueNnMMvyfudxsLoB0VIkN8CucTrSRtHFZAtl8hVLG5E9JPJxElqVLCqWZIj6iaRD5vdzu85aMtJUiwF5UGg5AIUhmnjOHZ28OTohCSfPkkgUdgUhVSSg1ciTp765AAqsEwm6B0aV1JjUjifOHfTqYecGsPhOD/vcMiQQFHuke4j6Ovvx8PHT7G4vIKkZofD6UZTUzPb63e3t1hzQafwkdERNg+IEw2VTfXZRPuMSAZ2MtSJALfj6htXce/+PZ5XIhrDBqfLzb4YFHHD84ejNZLCkc9GIXldbBohdTiRI0kOOM23ET3DhwY5j9hv0ciYYRdkgr3i2XFROCzS/OTfG86NFClCY+Fk7JLsMJbQ7XBXeHHqzGlMT06ygNN43OVSELkrRPigiEqxU/4KjrwA90dGYXGkghHZI8I/6Tt5ChT6CLuWgBOk0naxjT4cFWNM40Zz3OmkMFZSqVNoZRyRSBJakly5dT756zYHIiRjk3G47IDL7eQ5GI6F2SGTom+oXlphvMooWoDU+nFafjQOhI2OcJj2BA0ej5vHh+YnhSNSGLDd4eI5HI/HOCzUloixY7GLoqc4TDrOB7uO1jZ4fR5MTEyCiucYJyPaxM7jpCFptyGhORDXhYmCViCNP2HMuxeH24ooAulwKqHnVcVjReGbdKSg6AMRdUUmTIoAoGEgAkR9oDlI9ZPvDvWb1iAREloHYrxoj6XI0zicBJ5uQ5R0/jxGtF7E/sftNCJ3RFtoP6P1K+qiCAbCnFpGBx/eX4kU2R28Nmg8aR/UGRRjJvGy1OD2eFDX2MjkKRaJcV1nzp9jzejM+IQwcRn7JE9CIzfMoZT0Fhut2Vr7dVcsAic5ivEpQcTuuj1ucZLyB4yNJXculOLpgfC4lwSBVH4cO13i50DyIBj9JP9dmfyD2iZP67TJCHIgGKcIKRS4yAkjE7zQvyI8SbxDmwKzbbmBGslLZBikiAkWGxwnXNHoJOUU3st6jO2orP8ytkW5OXo8XvYf4JNqIMAnE9IgkGpORiiItoocCrypcwSa2KzFmhDl8kYlYjP596RA5s2bPdTjHOcthDFt9hzALkgUh/YJ4S37nyRhSfkGdAoJsyOhE2misEWbkV9BlEVCT9wjQSRLkAxa5URCaMlTdbRvODm2XQgFKWhEngGRl8CYoUiS9kOnDZYk89VgAAAgAElEQVQ2EsKSNgnRG6Y/qQUtNgMW4EY5HC5J7TDs20m2SRLhoUgOGmvqM80Hei7zbg4xrkLwiROJgTM/LLARcd3UJpkLg34mHCis0IE4a2sojEyEz9KY0kmQIjQ4nJTzBYjcGzSmiXiM807QJkvEmmzAJODZq18MtuxiOiTTZuO1RhE3JGgj0YiQ6RxCJsZb5kpIz3WRn4E0aVQ2hSxKUsabtKDAGRuljGYQzxmz1cjux4LAgC9lopDPGOuAImd4z+G5Qwmr7PD4vAiHQiKG3ugnj6nxh1Tj/LPhHyHDUGUoJ30nsE3Pc7nPUzixaKcddvKK12MilwqNG4cVU9iksSqYxBDpp6gOkXjHRrZ7I2SPZZeNhD81htpkhB3bSLDRmAthaLeJDDPsFMg5IUS4K2Ep1yGPpszhQO1gfMyZHYmcEaUW65Wzkhj7iJ5IiIgYF+XzCIo8HgaxprbSSmSSRNlFeOzFgYe/k1G3YmWmDnwyD4GZIJAfgFhfghSTXxLPQyMHBu8/FApO/TOtOV7ebKbKPERRO+T+KtZ6OgGTIChyHzMSMNHrbB4mUiBCnUWUlp3x5uJN4bwiyySReHqGxtWYRcaezO2maC4iM9xIjbV0VHYySiTbSP5mJKyTmvQSRdahflyrrO8kEZK2MRqJZYjNEgvzB/w86Dk/Jd4wKAkCDQipxEUMc2n4HQhBMKaqECS0KgUCYgM0G1Jk7rM0MRDzSDwjVa3FZCpMLzRDWWqcnARBFoIiHWdrlC93RVGb2Gw4eQ8JjbR6UCTukQfZNLkQm6jsj1GmJCzGguCeG8QhPRREFARjNs7jewbJOJSkQs6E6tGMnfhJJmGS5N2o1njUwD37AqpUhrjck4Ogk9Qy7/Qx4vOzGy7aTb0yNBI6bcaiu6I14n+cNsos8MTkMEbC1NPsBhikMtesFnxQxHOLrUtoAcwbj6jT2Ep5wxMbeQpZeWeA/KroBSQ7kDk/Uu00yINoH1UpiYdpdqeya5ozbRolmLN9Gr+S84p/NGsaaXwNgiJCJyUnNmaMaRrJNNOy9fSeYWyQFaeLNi1TFpBy/FL1p9+kNSc0UabEYySwzOQ81Q55ehbrMHWaNrAqbQczyLqJ8OR7PzW1UthJnX/2SjO87HnOG42WbTfWCutpmINosPFalftNERuwLJKnjpQWpfZ6/+elNtpM9FJ7mAyxTc13Sa4opwl1TGgRpLZB/p/3TZnhkfthpC9PyQAi+mJFEtmhUwrTR+MQaQiF/Rv/ij6h1TR26TLpiBh/kR6XPLc5fGmfTIrZg1kIp70EgVPMlQTtwRAEsdDltpvah7PIQdr2tEf2yXmWJRL370pqDzMIgvjZtJrl5prSIKR3y3TqUPNhTU741H6Z2QjeNLJ/JU97JiKS9XqmqN/bL05YJFMB89fZb4gMbeYPp4I1wi331pzVxkJQUhmGWjR1ajUfVWVbpOrEEMIpriTOLSmkeQxSV1zII6+hiRDHktQ+kSaF5gZm9z33nE5vy+lRT5ecLi+TpMrfm8s015fuR2G2vQ9BMMYwLVNNLROqBxNJEXWyNsKsYck6MOTaG1Iz3RBW4meZGMc4BLJGQfTbfD8GP5mazjkw5qWQnu/m+mW9QrUu5itnxpSrz9BopCrOnLnGjJEEwzg47F1a+28AxkpJEZ593pB7k3mF7U1al0HtU9o9QULT42iIUDGf0xJ0/zYb4KWPC/vtDvsXWdoT2T0W/RVzVWp2zT8bI2zi3nKepdSpqQaIhwQcxlo3SL4oXhDqEsVUad17iZ/Wqhs7dbOGQNhcRWY0clKkMBFhm8/Ri5SzUnE9fLkIAm02RlrTjOabl655E8rckCQc2RvYfkhIYZRiGHnP6MaiyLEPyo2P1NZyXEpbsmLS5x5UubgKl0g253zahUIYSJV1IdzSCzN3STxChs/Hfnhnf58xouVs8KXxWkMkidZIMVPamJXa03zP5x53nm0p9X/63ZSpTF5mZdiIDYqQMiEY+uDMbSJbM2Q+0ZuwT/kxGSr2nC0Xij4Dv8wn5DyUsRaawfbMmr0UMeGGG/TUIM9pq0fmiJgppHCOFGMn9sNMPUYpoyNHIHVYKOJlfkc6ippxLPSu0QG5o6UJQqGVn79A6ddQRHMP8BFpPhOopca0mMWTSrstVp3IdZ5LjgnzprHzZSgNBHZkYjVTtQPs3ktelFbd0KGbHQ2FLShNEMjmWYg+Ma5FbpYvC0FICVi2R2aq4dNqrvTIZahKjZNTaj7lM7/kGfjUadUEnNBqZs542uSMbWxPSWlfiMwLU4qda2KjKUwQstsjy5b4pDbLHJWm7Naps7dceul/hQNZgU+BTZBbXuScM9eQPn2mBU3JxRikmDeOEo8V6f6mNQjFjlmxz2WcmnNiKCXzXvTlidM8MGmCkJoBmcrxTBeNjGbmHkKTz4bp6TRJKLzzC1qaf9Sy1ypVIUsUvg5pe7YgosXuX9m1mn4uRliZ4JM+E/yrAu9m9/IglPulztnUELEfUuY6lj4Tcq8oRZtc7HzOqrG011g2GdoG0/9zFSKvt8v+TpjcXmOCUNXQntbvGSw1myAIR5TcM1naEIsZuZePINAJXITuGO4oGVwo5WvAm4qp/2bBYIEgCNlMfwlGa76FLY0jqQFzY142QTB2pn1JQppWpyWqyQKc7cAn2864GU3nU52pG6kLCg3VdN79MQdpSmEjTIUlf3Kd2PJAnLNsYYI3Nhypliy5FWbjloWX93klvU7TjouZr+QhhoYPAsss01oXZoQM6ZbBzsxmrz2ba9bYC3mYOR/Evm3UkDrd5x/ctJPkXiCyNQyp9StXL2/26ZwOhvUoteYtTKmSB1CaZPYVpgaPS2sxhC+KwLAwscgYrmJPb/v1xLg8iqs2MRema9InK8fY7lds0d9nAFHkW4ajeDHjmjY455pX6VtWi6z5lXlMy0cQKJyOwkZIg/CqEgTKJ84ZugzPZbNdmrey1MxKq7YyT46ZDmZFzwpD+GVcKpw9i03OUvmllXEVtNjVi66eH2QNRYF3TELeXHCmBiF3lRmlZqmZzd/xSSrfYbAAAyixp+b90nB0tlYCN9Xk2Wx172VHSGtNMLR1eV6WWBsSZF8hlDGwmRqRwifNDMqQV8OYs35uW55BL4IgFFJXZmsX9vogiMiAPUKuWE1QtsmktBVX2tPGEJuRooiOotW1ptoyRsvivCMsKRQzFzdJlW+Kpimts0U8LQlsie0vVtNYkCCYHBqLaOkr9YhW1dDBPvyZH0qV6eIY1mdBEKKxGF+E88KiGFIbqbhqWHj6k/pRquyNML7UZmYiCNJOKk1SJeuoDaSNg1x+dWmek54hpIRNzfgjncOKXTzFbMT5ypKHPeZGe1svZFP65VyOYqkjWwHsShJuRS5JaWLIvc3tX4g4/RnxLoIt7P9SbnZnzUZiELu87CI7qqgk0pgjnLPI3uUjE7nH0BByueZXMfOyQJvE+JjszIZHevoVWsfS+VT+toCNJLuu50kQcvVzP7NcjnfkDE2t1GIlZlZZ8krqfadEPk3zvi8WfkCS8zKLyfu6DMHM/cBBGHeeVcufbblaVX17xgqRPghpDUIgdbVq5qlacMm0rXz/hr40eRBSTTXCl4y4Z9ikG48UzsL6IiPmRF/lziZjZPM4vhSCw1hEIn2pwHGPD0Ke99MOpQY52B/2PE8U1B/sq5EQ2vbcArKQcM+WC/vwkCJ7J0vJXdqesClT9IUVEc/IWRh20Rl5CrRSs7HmCviP7E+sinMuLaRBkEI23Z+Ck930pay7UN/3Z7mSR+QuJX/ZvHqNw8D+tRQ59Yp+zGhXORXLKI2i6zRT2DyO5iWUJfiwxQ5YJCYZzSvFHpj5ouVmp3tc4MC2L4bFrbl8xexrCi5Yv6SG1vabIgiCX8SHSlG2x5mu+FsaZKplymxFl8K8sERJewCVyXXYTze1CDLUe7y3ZxIEcRK2ALzZxltgzeU8ZMmTq4Vqs7tdcKnnOQlkhLXtuzAy7dn56s9uR+moFiYIe5opPfEtRDFI7QO7rhTR/9yPWGYXKefSfGO3H0FIb1WFW5+fIBA9sCgkZOKpMpCTFMsUzVj0KAh/qXTrrfXC2lvcSI58sD5rxP5j7SNkexl1G4Bbrj+ljbXW/vL7npo5JTdACmjLfd/HsXa/BgmpY612MeLW510RBMGsQdi74Wt68duF+S4GulTmRROEbGZWaPNMCQaTBqFQIqFCg56KojAeyrVs85+s0wqf/YRB4YlXWLWar+xSvaCLaWMugrDfosnErESCkDrFly7k986D/Vq69/sM35MSX99vs9oP71eBIFjd6sUZ0PBBKBH3ch8vd6M23DvLEBRlniQNrZU1MSVFlHWCUq6QLGfNHQz25fVdtqHUeVjuvGOCkOuwSJcHkQ8CpUSWiZSYhGY/zP5WxU2bzMua5F0MJaRbNqqhlKJkAgmyA6X109gelVmBJCxSMKQPAOWoio2OGMliSht0UzrUInHPV/5e3xPzk/kpSmntLW5ulFamjIk3lV2K+pOzZ5a/YEttc+p5I4beyvtCyJky5mUNWSG0MzaLfR7Mq743TuFW2p5OT2Ude2v1pt/KNI+UW1pp75cnpNJiqrRa5dPWT5GyBOvYlUdORP3WT9HlnKDTfX9NTQyUByHDUmWkTBVOis79CUKh5CZZM5lSN/vosqZIhMulFJn7nXj2LIYk+JY1ap8gLyIve+kfYUfO2KoolCe1cWYSD2m/zAzrKl0ZntFOvhPh+X9S2r4yhOTzb7WpRl6rZuyyMp2ZZnRqOPcIRGvEUgjn4klxLpzSvifWUJR2dGtvU1iatVnHeRJMGsPSp48RZ1AGZ+RXLb6f9kGwhly5b4mQQGvYS1JosevGPlNG/ftFPe0DTjl9p6LT6aGtjQI7oFvcbcudN9K8Y6X+A9lvypl3KSdFY+aJBDbiwha6jZCEsLwchdemWYOQ2oiL8wS2Oxx8XTLduMUEgcNiip/ynN43meQy6HKSUJZ2o6ipQ9UZG7wRJpt6La1K2Sv4M1Rcco1npBouqvZ0XQLM0l464KezUyEfcPHPrDix4MzYZRIE4aYhxzALYyMMX170Y6WR5ToNWRVwoq1SX2d17ljfKE0LxQRbaQLPyiZpZYxyvZPWdFrFrtyWlIP9QYw7LwxLneC9OnUDSulFcM/zZTIsojhhjrY+bqlrwouoa+8j5WgvBOZSe2el+vL2m3TmVkt1N7T2pILReUs1vPbphM55EIL5fRAyTtNFcAQ2Mfi8fHtWKBQ2rv0sftB5kJM66CpqIgh045tIgVnMJ61gpWuJyXNC+F6K+okYUZgv3wmYx/mQb//KmKTWTqGp1lrJ9lNMV4t5JpsdFfPOy/SMGbusC6n2bkZp9aBM7yCuDbb2KX7G5i7fnEjKUguKnfL5Ci+jA+ZkUVbaXm7TrdQp3ymj2+VUm/FuOf0vt/3l1l3KYS4XYMXv1Xvfzrh4y8Jo5ArJLqWYF419KW3N9azVsdc6eo+l3uU4calBcDn5Clq6Wjhl5zduAszZ2CJaYHfY4fV4+d72cJgIgrizvZQPPU+XSJF2IxKJilvnCnxE6dJ0QNczJWFHjO+hT8CBRNIOTacbEulKYnGrF2ffNgsQQ6/JPDJ1RbXMyV5K67OefaEEIZ0VsIwevLhXM7DLtsnnSkFtLPGUBqG0eXeQHS13oz3Itlgpq9Q1a6UO9c7Lh0A587bU6Kc9vS/x5uDs99WctTaftK6Bk3vO/jQRSINAApyiDczMT6iaxGevqrdwI6g8ugQqHo/z3fYlEwSDwDjtkiBECjopijvXSPCLS3ztdH9jIowKtx/HBpuxvpXE/GIQmu6BDjdnVUyKe45FRBDFsmXc+5fJI8sRMRK7csqwNuTiLdKSlMuKy6m/nHezsWP9wL4x0makD2vPy0FNvasQUAgoBEpDQOvMQRBIcJODoiQI2Zc5mavYd182PWyz2dk0QBqESCQCu81ekuOITOJEzo6kQSBnx0JRDEwOoCEuCUIyAacWQUdzDG+90YeRiW08eLwKLVkJwIuklkCSbkhMXcBMBMGcPCnTwCBErDVhw3oKa6+WNsJ5ni7lDo0DqfAAC8nGjmHckwfGDG42DbM+bilibNGWa9Azi7NGWpDLo5XFRh3lG7Ly/AjKrb28iVRe28urm4m55ZE3H1WstqOc2sutv9y60yvPSu/Lq73cvh/ecd9LEDQwMSCCQOr0cDi0J1FSpgah+OEqmyCwRkCHNYKgw64n4EQEbQ0RXHujF6OTu3j4ZA3QK6HrXujG3QxiIdNHEITcJKB8IaMIQvFzJ4OUZpEr6RiepgT5mBerhUzjaY2hCSFjVUiLOq1uWGkBZ71+q3WLLfrF9d3abEm/VT525bagPGe3F4l9eXXLGW9tvZU/78qrv/x5U56DaXnYl7ffaB2kQcgKvckmCOn0vnTXSdYgl7BPkZMimS7IxBCJWtAgZBEE0kLsp0GgUz5pEOhKJiIIDi2MtrowfvTmABOE4cerTBCgCw0CkYT0aZSSPFAsZC4yUB5B4ElvIZNfuVtUivwcQObVg2iL1TKMe2MMYVtakri0s6mVDUuGipUw8TM6KcMkS8j/kfF++fWXEybJsfwWQ/V47umy31awtzpb5HvlYVfo5spiWpaZqr2YNzKfYV2mVeyNMEWrqAtaaP2SsXJSXKfcy6323Zh35fW9POyLTye4d16UFSJqZN+0eigojyCUKGRYg+AWBIHMA5q9RBODiSCQhoMIQj4nRWmnliYGCmG063HYkiG01ofxzrVBjEwQQVjJIAh0w2OKILAPgtQgZE+vPMlqilz3L4ocyOblVssX2fgX/Fgu7IQfQu6GyQ1GfGuc4uStfiWqfI1I/pJMY9mtKieuWsTRW1eUp84TFtVX5cSTp9C3WLdkg1Y3OxKw5SYrsk7rxPyktvN8tMAvdU30wMonnUfBmphMCykr9Zvv7LFSv3GGthxWLuu3Urex2srOo2B15ghiJpZMOdiX3neO+CpLg2AQhGKrJoJAGRATpEGIRGCz24UDZJEFiMWlw+FwwOlwshYimcgfxUCkQGgQbAwwaRBsySBa6kJ4560hQ4OwApAPgqFBEI6JcjDSBMG4w8+0NsvTIJSjqM0Q8lZ2C+OdPbBLDXwZZT6PV3Mtk0JTKH3yS6vbRDhvkRMvq1NSSFvrqyHeUifp0kpJ121lszARJItCWtRvPUQUFGAs2HtpHbe0OeY4jVkWMga1LLXZ5ibQac7isKVooeUCMjK5lIi9EE1EUKx+lAbB+sQ5PBqE7Pu+XzBBKMZJkUhCQrNxjgNJEJrrQ3jnWi6CIAmBPI4a10Gb7NbpYX6xBMH6dJPn6PRSZ+JlXN0sZKYs3eJuZnUXKeG9XG6He18XwjgVYiV+MK7nLAPBvU4PJbRcRlxYr79sgmKRHHAn2UJSvqAoCTBJ2UsMic5VRznYSXpppe0MXZkZOF+4iUERBGtDb+TdsfaykSi6LGJo3eeJnRSl2krIBpHdkE7pdjs5KYbzpq2XW1yxWx35NlCGRrMGwbxXFWXj0wGH0wGHQ0QxFM6DYIMOQQ7oj01PQEuG0FSfxI/fOoGxyQ08eDQP6D4AFOpoVkHSajaHOebaHqw5EfD10XLTszhr8mqcSC1URNIqc7UyOsSQnkW1yOLhO1W21b2+tHrNRMc8S7NSMxfVYzOhEsy4tLbI9+XgF7tqcjTO8inYqLMsglCm7iunP8/+A5AyE5XLWS1jt38bCz9xACm6y/RBEPzO+rwrh1xl3oRbOpYso6wKydQ136XXS2+kzDpW6z+ANNVi2CxMfmOtWx13raP/BIsTqW4VwgKgy5rslAchHC6Iaims2mbT4HS5kEwkEJF5ELLmayHBwYJVN5kYiLzkTZRE5gU7ZfEWQ6yRkYD8CyJoqK/AlUunMTU9j5HRSei6B+A8CObNb/+85Vbni1XVdvZA5Er+IUleKYlBUgSBqKIpz0WhgS+3D6W0L5vMWFvmmW9ZJSgGhy6jCdY36KweWGzDQdRvYaNKtfYg6rfYdX6tnLaXU2+54rn8EFerQiKNWjnYlVN7OV43aWJudeZl+jBZmQPl9r3ceWu9fq2jjwgCeacaNio6bes6Rxs47HZOiVzoQ1qBYoHXOFES+SAkDB8EW8nKSiYIpEGwOxAJh5ls5P5Qq+yAbofGuj0iQfRsHE6HHa2tzfD7/dja2gLgNP6IRSxtrJRZseDHYrricoWraFOubIGmOwpKkIBpDYLUIZhHNDcG6YySVhYMET1rauqDwa6syxwNzUGxs94aPuothYBCQCHwohHQWo8MsYnBrAmgnz1uN+x2B0KhYN77DohSkFag2K2Swhwp1XIsHucMjTJk0iyCCp0spXCgCAYygfBdDAmKU8j3Ie2Bcf+7psNmozBNnUmF6LPQlmgaaRroj0klbXitFvIapvDPUr2KmYYVC1iB2cG6jlzak5T9oli2L9uT2aiMfu0hG8IMVU4/LF3TXaR2o5hFVSw6uco6qDEspp3qGYWAQkAh8KIQ0Gqbu/Zs/ySkvT4vRwrs7vqN054hQIxc9sYhtmhyQM/TXQyVFZWcZpluc7TZ6S4G4zxMxae8IfbCkfKPAJk/hHaD/SMK3sVAb3HBe53VjCrSnafnZCiK9BkuPsLixQxgPjEn+lzcR1LDfAShUB3F1ZD7qWLbl/32AbCrcpotaWQ57KjM+tXrCgGFgELgeSCgVda163yToUmg0Nbt8/o4m6Lfv2tKRpQ+NUrRW0ojySxQUVnBlywxQTCSLpXq9kTaDSIvQoOQz8RALZOOLdIxzHwbI13gJEO2pNBJE4q0xc+qICsFGfXs80TAfJ/I86xX1aUQUAgoBA4TAlpVfQdLwJRXPZ3idR0+n49t/f5dPxOElO3XpOY1i9ViOk13LxBBIA1CgAgCJaspIRBAhqt5PR6+i4FIRkETA/scGImOOO6c/ghTgtApJIxIBdl6ozHcMUUMihlT9YxCQCGgEFAIvJoIpAiC7B7Hw0uC4HBg1+8XanxDpZp9L/d+fnxm2MgHodIgCCTcyWmxFDHMmgYyf3g8rN0IBYPQCyRKghYXJICJgY0dFgGH8TOxgDjf4Kg+CgGFgEJAIaAQUAhkIrAvQSBPf7MGIduLvJRbAYkgVFRUIBoTJoZSCQKf63UdHiYIDoSCoX0IgkmDwARBahCkr4H8Xk0LhYBCQCGgEFAIKATMCBQgCF6OFPD7AwdMEHwGQaAohtI0CCmC4PbA6SqCIOzRT5g9J9LhjGpKKAQUAgoBhYBCQCGwR4PQnqHlFyYGclI0CEKANAiUQ0C8WK4GwVdRgRhrEESYYykmhgyCQCaG0D4mBjXaCgGFgEJAIaAQUAhYQkCrqlcEwRJy6iWFgEJAIaAQUAi8wgjkJAh0rPd6RR4Ef2A3lShJ5iKQeLDCvgQVAPkgZGgQ+D7JEuIFOCk0JXESTophimIomAfhFR451TWFgEJAIaAQUAg8QwS06vp2kQ7A+Ihb/ShSgMIcnQgERKKk4vMl5m+tJAgU5kjmAQ5zLOEjoxiEk2L5BKEEblNCK9WjCgGFgEJAIaAQOPwIFCQIJISJICRfEoJAcBOBcbOToiAIhTMpFh4ga7cBHP5BVz1QCCgEFAIKAYXAfggogrAfQup7hYBCQCGgEFAIvIYIaNW17Rm3w6dMDKlUywdsYjAlSqKkS6WaLliDQCYGlxOhgPJBeA3nrOqyQkAhoBBQCDwHBLSa2hxRDOSDcAgIQjBQnonhOeCrqlAIKAQUAgoBhcChRIA1CBktl06KWQQhfRWy9X5yJkWpQQjIy5pKvJ3PpEEggqCiGKyPh3pTIaAQUAgoBBQC+RBQBEHNDYWAQkAhoBBQCCgE9iCgCIKaFAoBhYBCQCGgEFAI7E8QpJOij00Mxl0MBxjmWFHpQzQaA5kHKNWyFSdFzoPgcnIZysSgZrVCQCGgEFAIKAQOHoE9GgRFEA4eZFWiQkAhoBBQCCgEDhsCBQiCl7MV8m2Oz0CDEDCcFK1rEBwIBkJKg3DYZpxqr0JAIaAQUAgcCgSeP0GoENc9BwIh2CyaGCgPgsulCMKhmGGqkQoBhYBCQCFwKBFQBOFQDptqtEJAIaAQUAgoBJ4tAoogPFt8VekKAYWAQkAhoBA4lAgUJgh83fMB+yAciInBDRdHMSgfhEM561SjFQIKAYWAQuClR0ARhJd+iFQDFQIKAYWAQkAh8PwRKEgQHA553bNecr6CXF2hVMu+Ch9iZTspuuFyOhEMUh6EzEzRzx9CVaNCQCGgEFAIKARePQQUQXj1xlT1SCGgEFAIKAQUAmUjoFXXtmUcwUWiJMDn9SKtQUgeoAahwqRBoCugSrusSV73nNYgJMsGQRWgEFAIKAQUAgoBhUAmAnkIgg6fxweH04HAATsp+ioqEItGEQiK2xytEgRK4hRiE4MiCIdzUpdGDPf2UZmWDue4q1YrBBQChwWBF0AQfIhFY4ogHJYZ8kzaKcmBVZJA5EARhGcyNKpQhYBCQCFgIKAIgpoKLwABRRBeAOiqSoWAQkAhUBICeQmC1yNuczx4E4PSIJQ0Qq/kw4ogvJLDqjqlEFAIvFIIKILwSg3nYemMIgiHZaRUOxUCCoHXF4EXQhCi0RjnMCjPSdGBUFBlUjycU1cRhMM5bqrVCgGFwOuEgCIIPNp7Hd4o2LO4CAurjnZimll9O7eLHpX2/Jz3CrVdBMuKHma2qsBbGQ9qoJBWflrTIMdDvE0/ifJlac+v16/T9qD6qhBQCLzOCBQgCF5QKOGz8EGIRqMIBsu47tntgdN1kBqE5B5JTeGTmqbxn5wflkj0nVURX97be/z4uZ02QRD0Zx/6WajnQlgLIa5xmyRtycYqLdbpWZtmE2Jfp7+JIBjoahqSBmGziwega4IiKILwOm9fqu8KAYXAs0Tg+RMEnw/R2MtCENJilkkC9g8AABggSURBVE6r4kiqwaZpSDBBoB+fHUEod2B1ltKGnoN4QarAZ3ielkKba8tXj1lrYJz5DXw1zSAM2t53GWsq3/hX5LgQNCNJY0EUKJ4Apew287Lskp5h78sdMvW+QkAhoBA4NAgcUoLghtNFiZLK9UEgaaSzKlscXMX/zaSATrU5lQQHoEEoZ5awjkADbJqdhWjyOWgNuEozQcgh5AWQgiAkEkloNhvjKTHm/xttZ4phwps1CEQKJFkzANKJsGk6121P6HDYBMkwqtoDo8qSUM7MUu8qBBQCCgHjvJw71bIOr+cZmRgORINwsARBnoQpfTMJsHg8zsJNnF3FKT3zI066JRkJstwDUqfcUi0UQm0ASn7N91TJdmhJ2GzPw7QgGsx/Fziq01fxWAxenxcupwPhUFhkvTT6y90wCIIZYo3IhaFBIPJgd9jhrajAbiiEZDwOl+B0xEHyfhRBUNubQkAhoBAoHwGlQeBTsPA3GOgfxMBgP54+eYrJqUkWaLlNDEQQpBW+OAlvPkVL2Uon49LV4eL0rMEJj68S9XUNcDqc2NxaxebWcn6TSPlzxShB1k+COnffyT+A+kupugf7+7Gxvobl5WUkYjHRdkqxbZf+HaS1AZMyMh3Qn4H+AWxv72BtZRUutxvdPUcQt2uYn55FMhBiDUPCqNrcArM/Qum4HhhAqiCFgEJAIfBKIPBaEQSh0iYVNlgQeb1uVFRUIJ6Iwb+7i5raWnz00YcYHR3F7du3kUwkUV1TA7fLhZ3dHdYqeL1eBAJB2O0OOJ0uRMNRcUp2u7G1tYVkIoHq6mo+KbucLvj9fiOk02aYMIhbaLDZHCzgg+EI4okEl0Vl2G027Pr9SCYTcLlc8Hg8CIVCLEDdbrrm2sX0IBSKoMJXiYGBIVRX12N4+BbWNhbgdnngdHoQi8cQiYThdDiQSCQMc4SNf099oD5RP6hcl9sFt8vN31FdtTW1aG1rg9+/i5XlZcRiRt0uFyLhCBLxBDxuN5MAm82GaCzGp3ryLUkiyf1IJOIYGOhHVZUPT588wu72JlwOO2pqalBdWQXdpmF1ZZVJGLVBam6qqqhPg1hYWMTi0iJsdgfqmxrROzSI6ckpbMwvsDOjw+1CNBJl7MjIYnaalORAkYRXYo9SnVAIKAReEAL7EwR/gDf94kL+CveChLLvBZoYpB2c7PUVFZW4cuUSGhrqWUjdv38XU1NT+PSnn2J5ZQW3bt5kE8PgwBCOHOlmIT8yMoLjJ05gcmKK++HxeFmQnT5zmgX3+sYGnjx5jL7ePgwODfLJ/smTJ7hz9w7jx0IwQQLUg57eAXgqqhGJJzEzt4CGxkbU1taBnPjmZmewtr6Ovt5eJgh0sdXKyjI6O7pShGZ6agrbW5sYGjqJxoZW3Lz5Lbw+DT09A3DYvQgGA1heWUKFz8tCn8olskDko629DRW+CiyvLGNnZwednR2orq5hMjMzM4v6+jqcOXOGT/0Phh+w9O3u6kRlVTW2N7ewOL+AlpYmtLW2wmazY3pmGmSeobJiyTgamhqxurKMS5cvYHp6EqNPH8Fl13H6xDF0d3ejsbER8wuLXFdjQyOmpqcw0N+Pu3fvob6hHhcvXcajR49xf3iYzTt2lwMnL5yHEzYM/3ALNdVVOHbqFJ4+eYLV1VU4bXbYZEikaQoqU8ML2lVUtQoBhcArgUBhguAwwhyfFUEoFEaYC1721Nf5hMrXPYeC0NkQX9xHOsTRibqhoQEffvQhNjfW0dTchPn5eXz//Q189NHHWF1dwfc3vofH68HVN66ir7+fT/O///3vMTQ0xCGaVVVVWFlZQTKh481rb2J9fR1VlVX4/b//Hj5fBd599x0M3x/GwsICmytYHc+uCxrq6xtw5twVTM+uorG1EwtLy6iqqeaTPp3iiVgQSTlx4jif8kmwT0xOoKOjgzUWDocNyyvzmB1/jP6hk6hv6MTdOz+gpbUWfX3H4d+N8zNLS/Pw+bzwen2Ix2PsB0Dq/c7OLg6F9O/6sbm5gfqGBj6JOxwOzM/Ns8PjsaPHsbA4j7HRMbR3tKOhoRGJZALVlZUYHx1FdVUFenuPYH11DTOz06irr4PXWyGCGzUdc8tzuPbWG3h07y5mpibgcWn46ScfweWyo66mDk9HxhEMhTE4MIB79+7hzWvX8G//9j8QjcTwwYcfYmFpCV9fvy5MMDYbTp49jdamFnzzxZ9Zk9JxpBsLi4vY2dyCQ7PtIQhKi1DcmlBPKQQUAgqBfAho1TVtGRJWRK8LJ0USGEG+7rnYpEH7axC8FV7EYpRJMcThhKVqJjIIQrA0gsCt08DCsKmxAe+8+y7Gx0fR19fPwvLr61/h448+xtraGr797ls+7b711tsIh8Noa2vD7377O46euHDhPNxuDz7/0+dob+/A22+/jbHxMe7XrZu3WLtw7tw5/Pqzz5CIx1mF3tTUxKaIpaVl1BFBOHsF9x9MoX/oBBZXVuH0uLG7u8vajKamBmxsbOLYsWOYm5vjcjc3N7k9y0tL8HrcCIW2MDX+AANDJ9FQ34m7d2+huaUObW09WFsJoLauGouLs3zCP378OGsHxsfH0dzcjCNHjmBzY4NNInT1NplR6P81tTVYXV3jZwcHB7G0uIiZ2Vn+P5liWNvQ0Y6x0afseNje2oyx0RFsbm2ivq4ex08ch9Plwsj4U2zsbuCd936EkYcPMTX2FC478MnHH6Cnu4OJ1dfffI+21g6cPn0aw8PD+PE7P8Yvf/lLrK+t4/0PPmCtybc3biBGYY02DWcvXUSlrwLff32dfRvqm5uxsbGBCM2jpA5bnplUPH1Um4RCQCGgEFAImBHITRB0ne3ULx9BEMlxUhoEiwSBchyQQPurv/qU1f5kL79/7z6GHz7AG2+8gZaWZty9c5ft62+99RYLeNIm/PmLv7Da/j//L/8Z8UQc//Y/fs2aBBJu8Vgck5OTGBsbw9GjR3H8+DF89pvfYm11lUnJ6VOnUVtbi+9/+AEOpwsnT51HLG6DzenF9MwC2jq6mFiEQn6sr69ga3sLx44eQyQSYcJCPhBdXV2sUvd5PIhEg1hbX8KZU2dRWVWHB8PD0DQdDQ1N2NoKgmz5y8uL3PazZ84gHAmzIK6rq0dfXx8Tkbn5OY40oN/tkA9GVRWbSYgsDA4Mwma3Y3Z2hv0jOjs6+OQeDkcwOTmOtuZmtLe14uGjh1hdWeHvLl66CJ/Xixs/fIdQOICz50/xyf7hg2HEoyFcfeMKzp09w8/f+P4mk4k3Ll/B1vY29+1f//Vfed6RBiEYCuHzLz7H2voGaupqcezEcczNzGJuZgYN9Q24dOUKhh8MY2F2DjadUkTlppqKIKgNTyGgEFAIWENAq65pzdQgGGp8SRAok2Iq5a21OlJvsWNghS9Lg1BaoeTx7vIYJgYmCKWF9tH7pConO/gnP/kE21vbePr0KRYW5vnUWlNdg+aWZmxvbsMfDKCjvY0dEqPRCPsFkCD69NNPMTU9jTt37rBZgE7llZUVWF/fwK5/l8uuq6tjdT0JWyIIREjITLFChAEaKqtrWSUfDMcRjWk4feYclzU1NYat7VUW3OTQR5oK0ixQ9kkiEEQY6ARNjoJEUpqbmlg0bu/s8Dt2wynR7nAiHApymXW1dawF2t7eYudMKtfhcnKkAL3j9ng4hJAyZ5K2JByJoLqqmusjbQI5JlbXVLPwpp/9gQDqa2rZj4FMFKR9IQJ1/tw5BAK7ePToIWKxMJOUwcF+rCwtYWNzA6dOnmCcGhuaOEby66+vo6Kygh0zSUuyuLjIjqKkrUkkdczMziAUDmNgYIATVz1+8pidETva23Hu3Hl899132Fhfh51tN2IaZ0WTlja51NMKAYWAQkAhkELgtSQIJCyrqslbfgDLS8ustk+YnNw4tNHI3CcD94kkOex29u6nPxPj49ja2mS5RN/Z7DboCYOspN4n7UTCSAZkg83IfCiiKYQ0S+oaXK5KdHQKR8iVlUUkkxGjWhJ9lNUxwZ77MvUzFU8aACqDLrzKyDnMOQRE6KDMBEn9JV8Nc2ZIDu6k33Gah3R/OVcBYWGzsQaFQwqTCaNum0jIZESBUBplUXYCVdXVLNjX11axtbnBWhlqGhELCm+MxeM4eeIEmlta4PV4sLK8gjv37rBfBNUjIxmIpEjGypkodJ3LIM0FOVi6HA6OEiFzyBz5S8QTnMy5uGBTtfIVAgoBhYBCoFgEchAEocZ/PhoE2thL29pJYLg8HraBkx9DSRoEmdGPBLrNBofTyYKJBSo1IykEEv0hwmC3C8U1hUaKWwU0uL1uFkeRcFhkB+RshkJwUqQAEQLOq8TCO53xTwpdcVeCvKlAsARNo5BJCg1MIJGIAVpCjJ9OoZFC/jO5SAlzeZGRaFv6Q2GH4mIj+jW3wyAM3D4jkoL7mBKq8swtx4GIh2AX4lVBLKTUJuJAXxMxoFBNnW5JYKwc7ExJGgkh7MG+A0RCiHQQFlWVlezLQP2UWhEaP26L0VYKlxQ9EjQhlVSROAxhSmNiJK4iXxImScxvSp1JxS4R9ZxCQCGgEHg9ESiSIBxcmGOmieF5EwTjLiM51lItTYJcEgRDOJGKm35FjpRmGwz/30gPLOUmP2P8jgSn/NDvhVSnoAGRPCj3LZF0UhffcZwDJ2+S5WQRKON+CFEfCWtxopckJyOxU5oFpFUWpnnO9RmaBjPJMC8FcxGiL4ZWQU+yuUKQEaHNkH1lfIhQMZmgNNBpTBgz42fGx7AOiP+Kvsp2ZSxJ+b0BusQxOzV2amhNzXk9l7bqtUJAIaAQKA8BrSrLB4EFDUUxeH3spCh8EOhMV9pJP1ezOA9CygchyMK35HJJg3Dgtzkalx4ZJ2shpQ7Avc2conlPefluiswO0MtsB5sZOM0yneAFMWGBa2gasrNCs9A1NAGZY5JvPLN/n2uMxN0PkgDkvj2SmUwKx3yCXECdef/FflOaWygvqTKoVPZoGVGlBdNB71eP+l4hoBBQCLzOCOQnCBTmaFz3fOAEIUphjkFhPy+VeDBBOKi7GExDn+3d9swJgnEa5+N/ppnAdBTfMzelHwKd2oW6P00QcqgDUujupTu5CIL5d+Y3Mp9lZQubDSiHofCxyP1Jv3fQBMGsKTHrW6QWI6X5OACe9zpvEKrvCgGFwOuLwAsiCOnrnl8agpA9B54LQZD8KIsgpO55MDcqba5gUwVffEQ+DvKe5zwmiUJze1+lUA7pavyKTCZ2m2FieE43ScquSA2CuWsZLc3Hc17fda56rhBQCCgESkZAEYR8kD1jgsA2dOl5mOHlIKVb9r9GQ6VZJmX2yXTm23PxZK7+FXWqLvwQERTKk8Aw5cSqqEpKnrCpF3J1NJvwPOMmWG+8elMhoBBQCLz8COwhCEJdbGRSfBYmBh/lQRAaBL7V72UxMTxnDQI74nGQw35mlszvhVyUGoR9VQB5Z6BmjLPVKcomBrvdcJDcA17hu6CtVpqhUMnse/bFkuznqT4KAYWAQkAhYBmBvASBLiKimHRyUpQhcpZrMV6UlzWVQxCIwFDWPkp5HAqG2BZ+0B+WLQegQciwk+cqT0ZB5rk2ObNfQiAKHwThA1CyeSajQBGlYfWTJgiGD4TVgiy+l30NdzYfKKdvFpukXlMIKAQUAq8UAoog5BjO50UQsoVcMTNLJjUiAV2y9qWYCop85mUjCEU2Wz2mEFAIKAQUAkUisA9BoDDH4AFrELyIxmJ8+rdiYniVNAiKIBQ5S3M8ZgU767WpNxUCCgGFwOuHQE6CIG9zpMx4dD/BwZoYFEGQ08yKkFMaBIGeFewOYnmLZFZGG8oy0hxEa1QZCgGFgELg2SGgCEIObJWJYf8J97qaGDJyPpiSNe2PmHpCIaAQUAgcLgSeO0Hw+rx8c1/5JgaH4aR48O7qB0IQTKmDaUrkSiZk6RRseN+JGzZfnCteZibF5z/pLWF3AM1UBOEAQFRFKAQUAocCgWdKEFjQGpcN0n8dNjt8vrSJQV5mVIqYS/sgPDuCcChGTjXyhSAgL+h6keTshXRcVaoQUAi8dgg8V4LAYY5eQ4MQChnXCZcWrJciCE4HQiEKczx4DcJrNwtUh4tGQPogKIJQNGTqQYWAQuCQIlCQINBlTcEg5UGwps7O1iBIgkBRDOEQRTHY+Arf0jUILs7RoAjCIZ11qtkKAYWAQkAh8NIjoAjCSz9EqoEKAYWAQkAhoBB4/ggUIAgeOBzOl1OD4HKJTIrKxPD8Z4yqUSGgEFAIKAReCwS0qpqWDCM+ZQQWeRCyCULpeOQ2MfgQjUURDoVFoqSSTQyAO4MgHHyq5dJ7qt5QCCgEFAIKAYXAq4WAIgiv1niq3igEFAIKAYWAQuBAEMhBEISfdqYGwVre/1waBK9X3OYYCoVhs6RB0OF2GZc1sYlBaRAOZCaoQhQCCgGFgEJAIWBCQBEENR0UAgoBhYBCQCGgENiDgCIIalIoBBQCCgGFgEJAIVAsQdDhdXvhcDoQpNscUYaJgdIMG9VSHgROtRyNIRQOwabZOAdCKXkQKMWvMDG4OJeCMjEc3KxOpZjOShN9cDWokhQCCgGFgELgsCCQR4Pw8hIEyqTooigGpwvhsCIIBznRzHdQvKi7Dg6yP6oshYBCQCGgELCOwOEkCE4XHE4nE4RclyBZh+P1e5NdUgtkq1ZE4fWbE6rHCgGFgEKAENCqqrPyIHAWhCwNgl6GicF0WRObGORdDNLEUGoeBOigFNBUVjQaSxEEjewU6lqGkme1vFuAXuSRN8ZDEgN150DJkKoXFAIKAYXAK4HAoSMIJLiIB+gQ4Y26roHIAfsxKIJQ8qRUBKFkyNQLCgGFgELgtUAgB0EQwjfDSVEnYVz6WTJ3HgTjNseiNQhUiiAFkgXY7E54KyqYEQQDAeiJRE6CkOILebwgKYvj6/5RBOF1nwGq/woBhYBCIDcCewgCH8ehw+Px8o2Ju7s7aTV+SfEGxoG+LBODkOA6C3gh5Ym8OD0V6D9+Al6XE4+H7yMcDMJOmoUk3TqZViTQe4U4QKlpnl/FSaQIwqs4qqpPCgGFgEKgfAT2EgQALrcLLpcbNrsN8VgMkWiU/2W7dAmn7vI1CMKYIAS9jbmLricRhQ0dvQPoaGnC2JNH2NnchEOzQyMDuvHhNxVB2HeGKIKwL0TqAYWAQkAh8FoikEkQNLDWgBwJI+Ew4okEqiqrEE/E4ff7BUAHRRBCIdhstn0ua8okCEAyRRDauvvR33MEMxMjWJybh03XOa+C+aMIwv5z2hzFYKBt5KYQGhsVxbA/huoJhYBCQCHwKiKQRRA0Jgd0R0I8FmevdrvNDrvDjt1dIgikwi8+rVFBDYIlgpDgxEgxzY72IwM4eewoFmYnMfbkKZBIwsbmkfRHEYT9p6xhxNlL/gwoSxnv/WtTTygEFAIKAYXAYUFgjwbB6/GyaUF+konkS0UQyAchrrnQ1t2H1uYGjD95jMDONhw2O5ME4UNhyDtlYihpHqpMiiXBpR5WCCgEFAKvNAJ7CILPVwG73YZIJMJOf3aHAw6H/QBNDB7EYnGEStUgkDpAozj9JBJ2Jzp6B9HS2IDRRw8Q2N6CXfogKIJgecKmtQlKb2AZRPWiQkAhoBB4RRDYQxAojbHH64HD7mCbfiweQywWQyAQYP+DUmzSuU0MRBBixnXPxfsgJDnfgc4mBoe3At0DR+F1OzH26AHCwRAcZPrQMgWbMjG8IrNUdUMhoBBQCCgEnjsCe6IYNJtQ0bvcbjgdDtYciEwEhoNiCRkLyycIotJ0mKNwo9OcLrh9VUgm4wj5dwHSdEhyYDhRZtedC1kV5vjc55uqUCGgEFAIKAQOCQJaZXVzRlyCyFSow80EwQn/rkEQivdNzOx6vjwIoTA7Q5acrIhfoDaKdgq7OUC8xkxiigm2KLnuQzKoqpkKAYWAQkAhoBAoF4HDRxDMPdZYecCfjHTLRaZrUASh3Omj3lcIKAQUAgqBVxWBV4oglDpIiiCUiph6XiGgEFAIKAReFwQOPUEoxpSQbzAVQXhdprnqp0JAIaAQUAiUikB+guByc1ZF/+6ucFJM3adcojNClg+Cx7juOWzVByHLxKAIQqlDrp5XCCgEFAIKAYXA/gg8c4IgIhDEx263QxGE/QdFPaEQUAgoBBQCCoEXjUBhguBwYpfCCA0NAsUMlJJCJ31Fs4kgeMR1z2G67tlmE7kVLKJgJh+Wiiijbkv1qZcUAgoBhYBCQCFwSBD4/wFJqw4EYjjD6AAAAABJRU5ErkJggg==;" parent="1" vertex="1">
                    <mxGeometry x="314.93" y="143.34" width="196.92" height="128" as="geometry"/>
                </mxCell>
                <mxCell id="157" style="edgeStyle=orthogonalEdgeStyle;rounded=0;orthogonalLoop=1;jettySize=auto;html=1;entryX=0.458;entryY=0;entryDx=0;entryDy=0;entryPerimeter=0;fontSize=6;" parent="1" source="149" target="155" edge="1">
                    <mxGeometry relative="1" as="geometry"/>
                </mxCell>
                <mxCell id="159" value="" style="edgeStyle=orthogonalEdgeStyle;rounded=0;orthogonalLoop=1;jettySize=auto;html=1;fontSize=6;" parent="1" source="149" target="158" edge="1">
                    <mxGeometry relative="1" as="geometry"/>
                </mxCell>
                <mxCell id="149" value="&lt;h4&gt;&lt;font face=&quot;Consolas&quot;&gt;createInventory(objPlayer, numSize, strName);&lt;/font&gt;&lt;/h4&gt;" style="text;html=1;resizable=0;autosize=1;align=center;verticalAlign=middle;points=[];fillColor=none;strokeColor=none;rounded=0;rotation=0;fontSize=6;labelBackgroundColor=#000000;labelBorderColor=#3333FF;" parent="1" vertex="1">
                    <mxGeometry x="148.17000000000002" y="146.34" width="176" height="32" as="geometry"/>
                </mxCell>
                <mxCell id="164" value="" style="edgeStyle=orthogonalEdgeStyle;rounded=0;orthogonalLoop=1;jettySize=auto;html=1;fontSize=6;" parent="1" source="155" target="163" edge="1">
                    <mxGeometry relative="1" as="geometry"/>
                </mxCell>
                <mxCell id="155" value="&lt;h4&gt;&lt;font face=&quot;Consolas&quot;&gt;objPlayer.openInventory(objInventory&lt;/font&gt;);&lt;/h4&gt;" style="text;html=1;resizable=0;autosize=1;align=center;verticalAlign=middle;points=[];fillColor=none;strokeColor=none;rounded=0;rotation=0;fontSize=6;labelBackgroundColor=#000000;labelBorderColor=#3333FF;" parent="1" vertex="1">
                    <mxGeometry x="170.93" y="224" width="144" height="32" as="geometry"/>
                </mxCell>
                <mxCell id="161" value="" style="edgeStyle=orthogonalEdgeStyle;rounded=0;orthogonalLoop=1;jettySize=auto;html=1;fontSize=6;" parent="1" source="158" target="160" edge="1">
                    <mxGeometry relative="1" as="geometry"/>
                </mxCell>
                <mxCell id="166" value="" style="edgeStyle=orthogonalEdgeStyle;rounded=0;orthogonalLoop=1;jettySize=auto;html=1;fontSize=6;" parent="1" source="158" target="165" edge="1">
                    <mxGeometry relative="1" as="geometry"/>
                </mxCell>
                <mxCell id="158" value="&lt;h4&gt;&lt;font face=&quot;Consolas&quot;&gt;ItemStack objItems = new ItemStack(Material.SMTH);&lt;/font&gt;&lt;/h4&gt;" style="text;html=1;resizable=0;autosize=1;align=center;verticalAlign=middle;points=[];fillColor=none;strokeColor=none;rounded=0;rotation=0;fontSize=6;labelBackgroundColor=#000000;labelBorderColor=#3333FF;" parent="1" vertex="1">
                    <mxGeometry x="-63.999999999999986" y="146.34" width="192" height="32" as="geometry"/>
                </mxCell>
                <mxCell id="162" value="" style="edgeStyle=orthogonalEdgeStyle;rounded=0;orthogonalLoop=1;jettySize=auto;html=1;fontSize=6;" parent="1" source="160" target="155" edge="1">
                    <mxGeometry relative="1" as="geometry"/>
                </mxCell>
                <mxCell id="160" value="&lt;h4&gt;&lt;font face=&quot;Consolas&quot;&gt;ItemStack[] arrStacks = { ... };&lt;/font&gt;&lt;/h4&gt;" style="text;html=1;resizable=0;autosize=1;align=center;verticalAlign=middle;points=[];fillColor=none;strokeColor=none;rounded=0;rotation=0;fontSize=6;labelBackgroundColor=#000000;labelBorderColor=#3333FF;" parent="1" vertex="1">
                    <mxGeometry x="-31.999999999999986" y="224.00000000000003" width="128" height="32" as="geometry"/>
                </mxCell>
                <mxCell id="183" value="" style="edgeStyle=orthogonalEdgeStyle;rounded=0;orthogonalLoop=1;jettySize=auto;html=1;fontSize=6;" parent="1" source="163" target="182" edge="1">
                    <mxGeometry relative="1" as="geometry"/>
                </mxCell>
                <mxCell id="163" value="&lt;h4&gt;&lt;font face=&quot;Consolas&quot;&gt;@EventHandler&lt;/font&gt;&lt;/h4&gt;&lt;h4&gt;&lt;font face=&quot;Consolas&quot;&gt;public void onInventoryClickEvent(InventoryClickEvent objEvent);&lt;/font&gt;&lt;/h4&gt;" style="text;html=1;resizable=0;autosize=1;align=center;verticalAlign=middle;points=[];fillColor=none;strokeColor=none;rounded=0;rotation=0;fontSize=6;labelBackgroundColor=#000000;labelBorderColor=#3333FF;" parent="1" vertex="1">
                    <mxGeometry x="122.93" y="328" width="240" height="48" as="geometry"/>
                </mxCell>
                <mxCell id="168" value="" style="edgeStyle=orthogonalEdgeStyle;rounded=0;orthogonalLoop=1;jettySize=auto;html=1;fontSize=6;" parent="1" source="165" target="167" edge="1">
                    <mxGeometry relative="1" as="geometry"/>
                </mxCell>
                <mxCell id="171" value="" style="edgeStyle=orthogonalEdgeStyle;rounded=0;orthogonalLoop=1;jettySize=auto;html=1;fontSize=6;" parent="1" source="165" target="170" edge="1">
                    <mxGeometry relative="1" as="geometry"/>
                </mxCell>
                <mxCell id="165" value="&lt;h4&gt;&lt;font face=&quot;Consolas&quot;&gt;ItemMeta objMeta = objItems.getItemMeta();&lt;/font&gt;&lt;/h4&gt;" style="text;html=1;resizable=0;autosize=1;align=center;verticalAlign=middle;points=[];fillColor=none;strokeColor=none;rounded=0;rotation=0;fontSize=6;labelBackgroundColor=#000000;labelBorderColor=#3333FF;" parent="1" vertex="1">
                    <mxGeometry x="-320" y="146.34" width="160" height="32" as="geometry"/>
                </mxCell>
                <mxCell id="167" value="&lt;h4&gt;&lt;div style=&quot;font-weight: 400&quot;&gt;&lt;font face=&quot;Consolas&quot;&gt;objMeta.setDisplayName(ChatColor.SMTH + &quot;name&quot;);&lt;/font&gt;&lt;/div&gt;&lt;/h4&gt;" style="text;html=1;resizable=0;autosize=1;align=center;verticalAlign=middle;points=[];fillColor=none;strokeColor=none;rounded=0;rotation=0;fontSize=6;labelBackgroundColor=#000000;labelBorderColor=#3333FF;" parent="1" vertex="1">
                    <mxGeometry x="-328" y="224.00000000000003" width="176" height="32" as="geometry"/>
                </mxCell>
                <mxCell id="170" value="&lt;h4&gt;&lt;div style=&quot;font-weight: 400&quot;&gt;&lt;font face=&quot;Consolas&quot;&gt;ArrayList&amp;lt;String&amp;gt; arrLore = new ArrayList&amp;lt;String&amp;gt;;&lt;/font&gt;&lt;/div&gt;arrLore.add(ChatColor.SMTH + &quot;desc&quot;);&lt;div style=&quot;font-weight: 400&quot;&gt;&lt;font face=&quot;Consolas&quot;&gt;objMeta.setLore(arrLore);&lt;/font&gt;&lt;/div&gt;&lt;/h4&gt;" style="text;html=1;resizable=0;autosize=1;align=center;verticalAlign=middle;points=[];fillColor=none;strokeColor=none;rounded=0;rotation=0;fontSize=6;labelBackgroundColor=#000000;labelBorderColor=#3333FF;" parent="1" vertex="1">
                    <mxGeometry x="-560" y="138.34" width="192" height="48" as="geometry"/>
                </mxCell>
                <mxCell id="174" value="" style="shape=image;verticalLabelPosition=bottom;labelBackgroundColor=#ffffff;verticalAlign=top;aspect=fixed;imageAspect=0;image=data:image/png,iVBORw0KGgoAAAANSUhEUgAAAKAAAACgBAMAAAB54XoeAAAABGdBTUEAALGPC/xhBQAAACBjSFJNAAB6JgAAgIQAAPoAAACA6AAAdTAAAOpgAAA6mAAAF3CculE8AAAAKlBMVEUAAAAxY2QeSDVOg4Zlm33L/N215FqIw1pxrEmX0WtXkUMQLDEbKxD///+YJj4bAAAAAXRSTlMAQObYZgAAAAFiS0dEDfa0YfUAAAAHdElNRQflAwILIDDY/GklAAAA0klEQVRo3u3YQQ3CQBCF4VrAAhawgAUsYAELtYCFWsACosi8Q1+YbNMFEg6z/39sd7/bZLedJiIiov91iI5rgICAmVGn976lAQGrgWbOW3kcAQFHBLXG1iW6Rrdojj5TAQHrgsm6R3qxREl9RICA44DaomnSwmQ9o5aqHU0VELA4OK/paAIEBNwePW3R5gT6YqcAAQcDrfrDJ82fziw985Ke+yEgYEkw/UzzENrqmTpAwLqg0hqrqZ1LHCDgMKBV084vui1AwLpgi/6JAQQsDhLRC4yOEbUyLfWHAAAAJXRFWHRkYXRlOmNyZWF0ZQAyMDIxLTAzLTAyVDExOjMyOjQ4KzAwOjAwVWlvqgAAACV0RVh0ZGF0ZTptb2RpZnkAMjAyMS0wMy0wMlQxMTozMjo0OCswMDowMCQ01xYAAAAASUVORK5CYII=;" parent="1" vertex="1">
                    <mxGeometry x="13.170000000000016" width="64" height="64" as="geometry"/>
                </mxCell>
                <mxCell id="175" value="" style="shape=image;verticalLabelPosition=bottom;labelBackgroundColor=#ffffff;verticalAlign=top;aspect=fixed;imageAspect=0;image=https://freepngimg.com/thumb/minecraft/21-2-minecraft-emerald-png-thumb.png;" parent="1" vertex="1">
                    <mxGeometry x="77.17000000000002" width="64" height="64" as="geometry"/>
                </mxCell>
                <mxCell id="176" value="" style="shape=image;verticalLabelPosition=bottom;labelBackgroundColor=#ffffff;verticalAlign=top;aspect=fixed;imageAspect=0;image=https://www.tynker.com/projects/images/5b7f2c131c36d108468b4575/book1---book.png;" parent="1" vertex="1">
                    <mxGeometry x="141.17000000000002" width="64" height="64" as="geometry"/>
                </mxCell>
                <mxCell id="180" value="" style="shape=image;verticalLabelPosition=bottom;labelBackgroundColor=#ffffff;verticalAlign=top;aspect=fixed;imageAspect=0;image=data:image/png,iVBORw0KGgoAAAANSUhEUgAAASwAAAEsCAMAAABOo35HAAABqlBMVEUAAAArPT8BCQwGDxMwRUcAAAMvQkYNGB4mNjgBBwoAAAEPFRgUHCAIFBoCCxABCg4ABQkABgsGIiIECw8CCw8AAAIdKy0MFRUaNioDDhQAAAAYIyUTHB0VHh8QFhgABQgmNTgdJykaJSYBCAsIEBBWb1pOfFVdklYwVk0SJxgcJyiajiIfMjMfOi6yqFYXISIYJCY/S0EWICFSZlgRGRx1bBoVISMNExUOGx0gJygJEBEeKSZia2ghLjM8T0k9UEoVHiAZIyQdKCsQGBipnC4ZJCYfLi8SHB0YISMSGxsYIyQnLzAWICA/Q0J3pHYNExaAdyO6tHxCUkSsoDwMEhUXIR4oNjJCVEUQFxsABAcSGh0+TkARGhtUXlx1gn4xPTwwOzIHERY4RDshLi8SGx6+uIo2QTdJUE40Pj9KXE45RjwVHSAbJioOFRYSGx2HgEJHWFDazmorPD8wQkXo4apBV1IqOj4uQUVJYVgmODotP0EiLzEjMTNIYFhXb2FPZVooOj0uQkVufXwoOTpDVE1JYlonOTxEVkqxysAYIiclNjkhMDNbaWlJXFNS6kE/AAAAAXRSTlMAQObYZgAAE0tJREFUeF7s0EEOwyAMRcFe305755JICBSB4n1m1v9v3udFAAAAAACAzOKQvBTHUpVzSVXKReRNbIbEKSdxWgyJbk61ykXMeqpVLuLR7inV0ZRzSVXOJVU5l1SlXFL9mmPybXa5pLrMqTa5pBpGqm0uqYaeSa4/+XWswjAMA2G4Bxr0zB6iLVBo37mNICiXGzxkk/9H+MBGJ1RjDKKyf2Tl7sK1KlVGVMTlmXKtSlVcdqmoVuRSKu5rt5JqRS6l2vdBATAKgFOAcC1ClRHVEVGBuJAJ1yJUWVERF6qimnB1pioucGbgiqo5l1JtG2PNbLQI4WpKlRXV7NVpkQlXV6rimv3nWpwpV0eq4ppdClpQwtWHChtn95xTLbPgXLiaUB09o8qiajKClOrsERVxNRlBSnXtCVVxNdmMSsVBqDCjguq2mNg/ZuwgtXEgCsLwDAQhSK7kyYWy8Go2ycJj4kVuPS4QVPcrq8qGxvS/fjLoo3luJFTLNU+FHFXm+nctc81PteWpkFJlLlJlrvmpmjwVEqrIRarENT9VSalSmQtEkWt+qsvl4qngZ08WB9y666zO57PhmpgKeSq0u7M4kNYdqdDsXErFPBW6+W8oA3bdkcpwTUzFPBWSe5YMxHVHKsM15VrvrDwV4sGqJ4t5KmB2VuaaOhcVeowKrbKzSp4KkQrNxqVU7F4qRirLpVSMVIZrIip2LxUj1Q6Xp0KkmohLqU6nJd2rFMu3RKwby2xNXDNQoUSlPUaFZEKWWeSagQolKi1T7ZgYxQm4HBVLVNq9VEwmSDUTl1K9n/pk565rxXkYS34zeSvXt3I9nwp1VKijQpXGUt2eSFRaS4WU6/lUiFRbpNqqNIZqbyJRaQ2V4XoWFSMVudauSrND5SYSlUaqZ3IdKtXne5+8+SrJHTT1kpbZS37iu++rah3GU6GOCrVUSKikOuCpkOPigH2ipUIdFRpPhUi11VIhoZLqgKWyXByIT7RUiFRbI6kYqcglO2S11QFDZbhkwD9BKnId2kZSsc/ScSmtKcH0VChOxCf+fJUgNJrr48OerCOqV2356ikydcBDGFDKeCpkT9br6xAscOnOIhVqqRAltuQQ1QFPZbgo46mQ7CxSDcJC+m9IKnLJKy5N8r51wFA5rsJnqFBLhTaqgVhI7lnHmrxmvD/KgKEil81ToZ8SqEZjvb39WK6/1x77MgqA+LlQqHz1YP3n1Y5RGwaiIAwnEIIgrl1bbS7gLp1x7wOkcpkiBBzUqFKVW8cDRvHbEcyOpJe/XLzNhyy/Xfx1jahCYErAmuAKVB5Xc0teF3pUKFAhQZWBNck1UnlczV3yutCjQoEKCaoMrGkuEHlcTZG8LvSoEKhCgioBa5orWl01JFe0oh3DQB83qBAerJCgysDSXKDwuGjHgAaS9aiQoErA2mxGLM0FBo+Ldgxj9BB6VMig2u9XwQIXsCQXCDwu2jGEQBXyqFA11UpYCFiSK1J0XSexaCFiNfaJ+3K5RKxKqlWxkMMFKiS/hrSwkArZVKtjbbcGV/eXfMHTwkIqZFC1bQpWNVcXk6MDLSykQtVUSVjVXF1MD6VPjUpRPT8XWJVUqVg+lz7uPCGLi6mQT5WLhd4dLn2QhpTFxVRjDtWp/Res92oufUUDJYuLqULVVKcUrDNj1XIRlRwoJZccdCupsrDOZ8KaxSWPKo9IPllrUOVhoRILbS0ueQgeF+Q7axlVe8rFQhNYxpgqr1fCghweFlC16VjowFi1XI92cs6aTcVYxwysw4Gw5nH11+jJKpMj6SwqxjoeU7BQiYV2Hld/i95ZZXJ696heW8ICVRoWmsDaGVz9XfRrWCYPOgbVK2GBKhULMVY1V18k//4hz4RM9curHfMkEwRxGNfEAqKJnQ2NFjQ2BBobciyFMbRmK0gMhZFQX0Gu8AP4rd9/gPgyPAuZJbc+5ZS/YorJnKAilpjKY63XwHJzGapanbc6nm2UsfJSEWu1KoE1B5YCVj5Xve8clZ1v9uVSEUtUxIptYM3nwFIJrH7fz1UfdIrKMm4O8lMtFsQSFbFibAdLAUslsLxc9VEJKpuobF6qBJacgBVje1iKWL0esNxc1opURzVNY628VMQaDIgVY6tYagosRSw/l59qVzYVsURFrBALYE2nwFIJLOeqz6AyXM61TixRESuEMlgKWCqB5eTyUNncVAksOQErhHJYClgKWG4ufOlZqsmksXmpiDWbESuEslgKWApYl3BV2w6otuVTEUtUxAqqONZwCCwFLJV1kah+21P9lkM1eiaWqIi1XP4NlgKWIlbGAacyicrkphoRS1TAElUZrPt7Yili9cbE8nJVtk5nYvNSEetrRixJEavbbQNLEUsRazwG1iVcnW0XUBHrHy32r5pKGIRhPFj5kUiw8DSOSxRs0khOLfnTCKcPCAnCqSzc1pvIXeclASE+b3AWvn0u4VfMDLPfE0tOxCqlFpYyWIsFsBSw1LIL1/BUF6rdX2KJilgRxBJVTSxFLAUsZbCWaa7hj9JUO2KJilihgFVKbSxFLEWs9YZYWa7hWVkqYq32xAoFrKLqYyliKWJtNsTKc3WnItZqRaxQwCqlLyxlsGYzYClgqdyo70Q13xFLVMRqGmKJqk8sRSwFLEWs7GbMU82JJSpiNQpYpdTHQsRSwFLEynJlqYglJmBJilgFVcFixFLEmk6BleDKUxErglhyIlZBVbDGY8dFLAUsBawEV46KWBHEigZYnmoyqYLluYilgKUM1oWPROJaN1gRxIowWJ6qGpbnIpYCljJYnitLZbAiiBUKWJ6qKpbnIpYi1noNrBxX66mIdTgQKxSwPFV1rNHIchHreASWAtZlrrZtDRWxREWsJoDlqQaDXrB+4Tqj+gpYymD5q/5EBaztlliiIpZsiOWpesPyXKBSR2ApYinP1X53RmWw5ASsT2brmDWtOAyjeKmDlLYpAVsQtaRCV3stjplyIYi4OHVxUlxaMAT6/ckJeUFuzuuNS/znfIQfPPAgY6yc6jWx2rn+NzLWYGCsnOtf1KQy1nxuLGCMlVO9MhZdZFyyonthkbGoFSuojAWVsPwUjlF13p8F6+II127XoHpMWGQsPkU71s2NsaAy1nptrJyqczasnGtHB6pIWGQsSrGCylhQGWtNwsqpzolFKRYF1SFjDSpjUY6FlLH2c2MhZayc6txYJKzo/nnGqipjkbFwMtZ+byychJVS9TolsCjHmkwaVHd306mwSFg0a2BhZSyojLVcGiun6pXCohSLDlQ0JWFRgjWDi2KDxoLKWEsSVk5VEotSLAqqwCJjVVtjEVhPVMba7I2FlLFyqsJY1BVWBFVgRcbabo1Fn6BKsDYbY+EkrPyC9t4EVrebYdFzrPFYWCQs+mgsqIxV18I69tbLYPWFRadhkbDoBCyojFWTsHKqYlj9vrEeuVarl7HIWNvqJazFxlhIGSunKolFwqIVtWNFwsKtDWuxMBZOxsqpSmNRikWtWNFIWJRhBZWwhnWClb/1wlhRV1jRCVijkbAowYLKWMOhsVKqB2rtnqWBIIrCsGSKRUQXgxaCprANBAXzC0wlhkS2Sa119P9/m+EMHHfOndyAZFbfau+UD8w0d3smtBoCq2lsrMWih7Vet4IV62OhHCtREQtUimVTKVZA9bFiNlbiAtUOq20zLORhbbeKdYuIVaZSrMCIFapgIRMLXJEKWOAiVuq+hAUqxVreGlj2s65YgRErhJpYjFhotk61SLF2g40VqRRruVSsApVgiVUA1fBYKWKlBCtmYW0RsUClWDaVYPEOMlD9PSyWYaEDsEBFLI+KWHzbpSNisQLWzMFCghVnD2uyNLDsNYRgRSrFwnxELGZjzWYOFhKsOO/DmkwMLG8NQZVUn6oCFrOwYg4WEqyYiQUqxbKpHCweVcJiioUcLJRhIcUClWAVqHwsHgyPhaYZ1rxpjTIslGNNELFKVLD5j1jTxAWq+bxpbC7F2mx+Yq1WimVTjX6BNRoaC1ygilgFLgMLXKAysGwqwcLoYQF3cCxwgQpYBS7BAheoBKtIRR0OHhaoKmONx4qF5sQqc2VYaIWI5VDRB5+KpfcSVLWxdnlYDpePVaJSrJCVqBSr0nZHsMDVlbEcLh+rQMVopVh9TlJVWoVlWODqus7BcrgUy6NivIM5FjkRqartDRVr3MUcLIdLsHwqUoBErBQLcyUspFjoAKzS73CKZVN9M2/HKhEDQRjHxeEQC+MZlL070PLIYW2VdzgLG9s8TfaxnWFslm/CDAsO/pttvupXJCSwt5hSGU936xWQjzWOgKUB1oRYNhdgeVRYS4VYusrH4oJY04RYNleL5VJhDRVg8ZGCdTwClhTCklosh8ul8rGeEYuPLCwOsSQfSwOsbS6fKo4FpWBJBtbh4GNpgLXJFaaiKBZRLpaGWFw/ls0VpaIgFlE6lrYAltSLZXMFqYJYZC1LDtayAJY01tqLBZdc4C+oRRXEImtZShKWBFjctdbaicVtY9kmQSxzWUoalmZgXYXLw9IAq+VqqfqxzGUp6ViLgaVcHpYGWBxiEdeNZS/L/8DS6ro2WJfL+QxYEmI97FqsPQWx5hmxYJmINQw+lnZaf7mUirE4wJIQa6dcSrUPYs0cfi4HsYj+AosLYp2Ui7F+mLVjnTaCMIrCUSxkYWmdiSEC0lAY2UYRLcL4ESylpE/Hm+S1c4Rc5YzExbuz5jS3/9r/R4qwogyLwHqjyrCgEhYwGRZUrbAowzpw3R9aHQqx4IIqxMJJWFXWr8aCqiUWRVgE1/9Yi0WERaUHVo0VKmFB1RiLnjIsEhY1xnIHKmNNRsF6esqwSFhUwbq5aYnFnBCLMiwSFhmLGmFRiDVrhUXGWq+NRcJCy1jUAAuZEGs2a4dFU2GRsSjDor5YdsmwoGqNNZ0KiypY63WERcdi7fdVqgwLqqGxOmORsMhY1BJrTxWTEGs5a4DVdcaiDIsqWN0AWFD1wVou22CRsdDKsMhYXdcXC6ceWFA1wyJjARBiXV8Li3pgYdgDC6q2WGQsyrBIWHQsFtsDC6b2WK+vxqIMi4zVvYtVv+sIC8QU6/l5HCwyFmVY9FGs+r3QWBBmWFCNh0UVrNUqxEIrx4LFXTLCgirCgmpcLDIWZVjIhlh1qktjQRVi4fQ5sCjDogSrTlXB2k1CrFI+ERZlWBRhmcpYu12IVYqxzk+KdX8fYdGHsfwb80YVYpVirPPzE2NREywshAVViFWKsKAaF4uMRYNjIWGsy12IdXEhLKjGxyJj0aBYOBgLtQgLKmPB1B7r5UVYZCxKsebvYWFlLCbCgspYd3fjYJGwyFgUYs3nH8ZiIiyohAXVeFhkrOnGWJRhUYxFFGJtL4QF1bhYZKzNxliUYVGMxWZY262xcBofaz4XFgmLVhkWRViMsK4qWFAZ6/b2NFgkLDIWgMNhMcICRlhQCQuqcbDOzoxFxto8GIsGwSJjQWWsshUWVMaCqgUWGYuM9fBgLDLW42N/LKCMVYqxcBIWVK2wKMMiYdFCWNQPa3JlLKgyLKhaYlGGRcaCR1h0PBY4xiqUYEHVGosyLDIWCYuOw2KMVSjCQmcELMqwyFg0DBZjrH/U28FqGzEQh/HSUoIDWZLOoUcdJEIK7mkh2HmP7dXv/xb9Y3zaT2NpsVih7xF+SKeZibGMBap2WApYKoc1A0sRSz2OpYgVI7EWYLWlYsBSGax5BpbKrhy1xxIVsZaFWK2pmLAQsRSwFLFUY6wYiSUqYjlUbZMOIpYi1scHsVRDrK8vYIkKWD7VLlzAUkdgKWKpNliiIlZYgOVT7cdFrOMRWKoBVgbtSgWsEIjlUu3KRSwFLPUgVvaFyQlYQQHLo9qdi1iKWE9PD2Blv2OMxAoBWD5VFy5iKWCpjVjrVlTECgFYPlU3LmIpYKkM1svLXSwREUtUxDocgOVTdeUilgKWIpbysQRDrBiJdVDA8qi6cxFLAUsRS+WxBEMsi8ASFbCKVP25juvqsBSxBEMsM2LJCVhFqv5cxJrnAlb9VdiVilgpAauKqj8XsVQrLDNiJQWsBlRduOZrGazTVqyzESslYDWg6sY13yLW6bQF63wmVkrAakDVg6uMpSqxREUsM2D5VANwlbBUBZaoiGVGLJdqBK4ylipi2ZlYpoDlUQ3B1QTLjFhmwPKpBuIi1rQFyxSwDFg+1VhcxJqmWiyzOiyXajguYqkaLLNKLI9qSC5iqUZYPtWwXMBSl61YiVg+1dhcxLpctmClRCyXanguYqlarKSAVaAam4tYqgYrKdWBqicXsNRUwgrpVgeqvlzEkts9rBCAVU01PhexlIcVArDyVP/bs3sUBIIgiMImJoLS4AE28VIdef9byKLgT231jun0e3FFX1oCMAuXYK0p1kolWJ5qXi7F0ndnWQTLU03NtYuVKVgNqBxXiZW5geWoWnBZrEzB8lSduBQrU7A8VSuuESxP1Y5rH8tRNeZSrJqqM5diQWW5FAsqz6VYngquH6yA6l2NFRFQfeaxYm2ACq6MZwNUcMUrpaICS6mowFIq8lgHjbaxzJgUqxjTN9YIAFx/UME1TkXHTlRERERERERERERERPQA5AxbYBj3yp8AAAAASUVORK5CYII=;" parent="1" vertex="1">
                    <mxGeometry x="141.17000000000002" y="64" width="64" height="64" as="geometry"/>
                </mxCell>
                <mxCell id="181" value="" style="shape=image;verticalLabelPosition=bottom;labelBackgroundColor=#ffffff;verticalAlign=top;aspect=fixed;imageAspect=0;image=data:image/png,iVBORw0KGgoAAAANSUhEUgAAASwAAAEsCAMAAABOo35HAAABKVBMVEUAAAATEQ4UEg4YFRIYFhIZFhIaFxMaFxIbFhIaFhIfHBgfHBYgHRchHRciHhgiHhkhHhgiHhcjHhcjHxgnIxwpJBwpJB0nJB0qJB0pJR4qJR4rJh4xLCUyLSQ0LiU1LiQ3LiQ1LyU0LyY2MCY3MCY3MSc4MihAMhlHMxlGNBxINx1PNxdNOhVWOxdZPBVXQBJfQBZiQRVlQxNkRRhhRh5eQyFcRSVfSCZoSR5oShtqShltRxRmTBtvTh1yTh51TxxyVBdzUiJ3ViV8XSGDWx+CVhyGWBmLXyWJYSSPYSKMZxyNZCmSai2faSKkbB6hcCaodyyBYC5qTiZbQhxYPhpQPB1DMhI3KhVISEhRUVFeXl5kZGRra2t0dHSEhISbm5uioqKkpKTJycnF1XlRAAAAAXRSTlMAQObYZgAAEBJJREFUeNrs0LEJwCAQAMCfQ9Dm998xmCAYY2GfuxEuAAAAAACAHyklOFNuwVnVcZeqoy6yLGqwl92rqgu+cpirdl3kbFTtumi5qKvg0bqLPTvGWRwG4ih+id0SITRHcYEIidnc/zKb181/rB3JfJGyhrySwmJ+VTw217p1crmUijxVynVSkaPKuU4qclInl2RbQnXfWl2PrZOLoCKhIk9FJ5e5hIo81cllIagkiOjk2mY1qZQiVHVLrJ7Pp1qZ2bdQkVCRUJGnIqGib6EioSKhIk9FQkXfQkVQSVBJUPmE6qO5mgtyCU3TVGPPkMU+lYpSKjq5oCJKqE4uqLR/U51c16tp81yk12uiDq5STLvdPoSKhIocFXVwQUVCRR9CRUJFjqqDCyoioaKxqSSoJKioh6tIQjU0l11Dj1kDKOf6U2MldAtdxqQioaKUioSKurguNCYVCRWlVCRUXVwXojGpSKgIqjRH1cF18Y1JRY/QEnX+ND9QF9eY60HZotC8JVQUZfbmsq0hqEioSKhIVPbhEioagoqEioSKRGRHLnMNQUVQSUsMgL25hrhi21Zc7QkVs3ZxtVTTVspFFvsvqchTkVD1cbVUND6XuTwVCRXlXJRQDc9lIah8QpVwZU00PhfrBIktio/P8W6unIoDx+OCioSKHBV1c+VUNA6XUpFQkaN6hyunGo/rqkElOaperpxqPC6zq3a/qxXrA8ombblyqterwRQqDizS8S9BUJFQkVBRwlWp5UqpqMEUKvJUZLEDqEioSKgSLplQS6mowWwOclQHc5kElQQVZVyVEq6MihrM5hCo6Fgui813rdaX1oyOlW+aFq3WFIum2BJ7asViB1CRUJFQkacioSKhon25ClnsACoSKhIq8lQkVCRU+3IVIosdQEVQSVBJUPkaD6Haj+uA767fFlpnjeGlBZGs5E31ba66xIq2WujX/lQkVOSpSKgopSKhop9xVcq4VhIq2p+KhIo8FQkVpVQkVD/jqpRxrURCRftTkVARVL7mz6ZUJFTvc1XKuFafUNH+VLSGSvf9ePpLu13oxhEDARiePb6CuMz4LsVnDzO9Q+GW066UX+q4Wmc0sidoWMN39p4DF/m7hJHre9gEFUe5PoXjRikl18ePiurV31BUQ9i5OEP4uVhE41wUKqohwhfnKaq7d5Ng3XBBBRdUNi5F5eeCKs5FhqKCC6obLqgSYcEFFVxQWbmg8nNBFeEiEy6oCKgIqBJiDVwwESjZuVBychFxrjDjUxgwEQOVDWtiRrs/VcmiOD8XHT9+qGTddaJjShNE0+hkXYuK66LQ6b+hhz8JajStbrJtJ3qKBwdBRr8UIhkWc4Vq+BzjGuYtRi6+5TKBRuiJNJ+hEmrQBJ+gEqpBRQZUvYgDy8zF8CJczNnOxRcuBYXeSPMdU6YGTfANVKhCpTKgssZMCCOXdDdScMm7gEvuq83UyVTCJgIumTdq/8pC1G4rBCm4pEBKqNEETSLFouiRIgMpx8qycwWX9KenomLd6hqLcDEVs5mEXIReXURgM3B1YY2FSlY/S1FxdBJ02mKVDUuvfxbyv1zrta6xGCYBl7Bn4BqNpol0qja46gmqSkTKgQuqI9UpW9SB5eSCSuCCSqjBBOCCSjJyQSVwQUWnAZUCNmB5uaASuKCiBlRwQZWVi0nDBRWd+qjA8nMRcIU12sjUMnG1k7Wo2NnRaT+VH4u52gdW16SzcNGfXt8nJ0PHeqnZqfxYHz/6uRhxVi7aHrigovMI1cuXInas7FyMNisX7cIFFVwGKjuWn2slOvb2Ij8z2rjm84DrOhz29LatdHWl07WByo7l51rBxaOuuDYbpmLhggouSvURvig4i9BecKs/POQgIRxyPFR+LLhejnBBxeqCaggTF1R81SVwcQCBi7ZuuKDi3DVK9chC5cciXo5xQSVwQWXnggguAREuqOCiHbiggmuM6lGWE3xn5qItuHaggmtyKxdUAhdUcEEF13V4ltuFCi4z1TwBlnRWLlY9Sz84pq7XMhnnQkN0aJz/r9f3Ljk4CNosSysVVl4sPxdLHy7OPi6uCBWbESryI1SPXVRgpeeCCi6o3FyR6+CCirIxqsc+KrCSc0ElcEElfq7Ra+CCSig3U1VQWbCScy2XwUx3d4XwcpHBMXejnzy2t4NHyE5ViTiwvFxPI1zsoURcUAnHEqjY+xGqlwYqM5af6+kYF1QJuaASuKCCy/AzoIcKrGxcUKXkgkrgggouB1UeLO7gVq6pEAEXUx091YPT90H5aqUyTqAiOgsVD0R6rKn4uaajXGyiUS7mA5dQNnBBdWJY9maqLgGWTA1cDMvIBVWEi/nART5cyak68WDl54IqwsV84IIKrgxUJqz8XMuQ60ynVzwTEGG6LltRsRNS9QYq4D1UYBm5NuLnWoZcZ2dqmWie+Vw/U9Y1uxCqHYOAmeptl+HZcGPlevDAygUVqwkqDhZQsTvtVG/fCuGo6MHKzwUVXFDBBRVcWan8WPm59J9l4Ynfi/f2vAJl6aAyYOXnQoKDBCtL32u7Tq80OTrCMxVVNizi928r17MRLqg4d0EFEV+5h0HF8otQPbFS8QonB1YmrmdjXFDBBRVMUMEFFVxjVE+yUNmx2tbKtTFzQQXXdhG/d83PoKKCmaqyUjWNB8vPtTFw6fMC22lrK/ZH1sPD4I/WZWmlqhJRgZWf622Ei+0El/ojK1T6j9Z/2LsLHTmOIIzjs6Q9CvNBGCzyU/iBzWwxmJkZxGZezw6EU3Irnftn59MXNBws9093VdW4vzsKSqnqmlBxLD3XlzmuX6iC6/VJ1qAKLjBgrKbiWLGKm3KtYq4k8pw8nU6y/kIVXHqqXbs6BHgB1yrlWlhIwvqxY3+4fOnZMycVx+JcVdWZKzJgcDGq9ynVdMqpOJafK6iCC1K9r6TiWJzrhp7rF6rgslBZKvgblOuTT3CoT/rPZTkbVdt2oBJgDYeU61V3rmhwWWqoSko1GhEsHderDBddDhcNDq5MBqRUpYCKYfm52jZpqp7qBqDiWHqup08pVxL4Gj3VDUrFsTKNQ1zfLc3IleaJpulA9QWl+uwzdTbkXBs3FsUS5fr88wxXZ6ovBFQci3NdSqiKQsClp7qVoZJgca5LlxKqHFddUy5KNRhQqluACmNxrpUc189UwbXQgctBZangVzJcbZuMfy5kuECZml4PqcpST8WxInpwrriXgMtGNRgQLAlXxNu4R56rB0j8VAKsLNdqjituneXqUS491Rqgwlica3UV3XY6XVmhXE/TC9RhfW2NU3Gs/LgA54oBEsz1NOFSU4GXAbD0XEGV5WoB12xUe/cKqACWjCuoslwt4BJRrQAqjqXnyswpAi4tFY8DHEvPVczGZaEacCqOxbmaZlaude84oVQ3AFXYy7H6Bq517jiZUKobHagkq2j6lKsoKFeZuSOmKinV8jKlCiuOxbnGHbjKDBekKg1UCItzjRlX0xzAXDNTHRBQ6QJ8HLWEueLLA5RrNEoaAakOdKDawKg4VrIpHHKFWoarynA5qTYIsqGAK6iyXFWOS081AlQcS8+ViSuAC1PtpVQjQAWwJFziJSWUaq+RimPlB/OCq52Za90QO6VUq4AqZp/kWBXnahkXTt5xLaValVJxrNCiXEUh4BJTjceIimP5ua5ezaDAS2/d8lIFlpyrSS/YhLlmplqmVLHHSI8VXBPO1TTJj9omytU0SbiBVMsdqC7JsaKfxrnit3IGLhtVWHEsPVdQZbkuXsxyGan0WMHFh7aSWL9pGXNhqjUDFcTiXOzPMuWiVGsWKo7FuVoBl4HKkA0JVyvgImWsn4pvGqBchYBLTjUiVBxLx1VQrtVVwCWhGiEFjiXnAmUf5OJUA0rVtmoszsX+XKJcyU7PilINhFQcy8+V3xhbVR2oFinVhg0CLD0XWCgeXJktjJRqUUDFsThXv0+55imXlCrsARXAcnHNUy4blRzLz+WgKjkVx+Jcd+6ouWIxtpyqtGwayHMNRVx+Kr7tV8c1pFzjMefyU3EszjWn53JQ9QAVxuJccxmuBw9eu+TRo/ffp1wLyYNRqn6fUvUs2357PcpV/cgVVD9+BFwxSh3uHaheAKooljGWnqv6iSuoZuBKqIIPUr0QUHEszlXkuILqz3PpqYYZKgkW5ypyXJkxS8BFqUYjSjUEVBiLc/U5VzEjl4OquWR6t188Vg+5ej0RVVlSqsawacDG5aeqNZsGcGEj4GJUS4Aq/iCqsOJYnKvWc1GqpQ5ULaDCWJyrhlw81KfJowZUYYqoWkrVadPAwMLV76/TBj3Vt3Whz4YDPddChstJ9a0gG3q4FjJcTioxlp+LUo3HHiqO5eeyUQmwVJmxkHEtUqoKUEUrBFg6rkLDtbhIqSoBFcAScI1GlKuf4cJULxgVHyzkWH6ufoYLUr0wUDEsHur1XGIqGC30WKWDazpNHt9A1RdihRbk4os4+0WGy0kFBACWg6vIcDmpBFicazqlXEPMhakKC1VgGbmGlItSFRoqPVYczy7nKk1U/HBUjuXnKoPLSKXHunuXcg2EXH6qqiJYOq4B5WqaDBekWlhwUXEsP9fMVH1K9c03lIpj+bkybWBUfQGVMsCfOEG5SgGXj2r79g4BXsBVEq7w4FTDoZOKY3Gufp9y9SkXp5pQqroGVADLx9WnXJRqoqTiWJzrvIHLQLV5u6WCPy/nGo3sVJvjayHWw4eUqxRwyam+plRNQ7B0XKWAS0z1tYAqj8W5Tuu5HFQ7ABXG4lyn9VyzUs3NUaodgApgybiqDlxOqjjqmWPpuSrANdNK0rZ1UnEsznVUwGWgupahkmBxrqN6LkrVNJTqGqDCWJzrgYHLQFW/tFTwDzJcsKpHeT9VgRfWNaWqlRW8n8tPpcfiXCdPCrgY1Ryl2rlTQJXF4lxP9FyUaq4D1UtAhbH4nyd6rlHyPaVaXqZUIKxjLD9Xvn9Y1y4qjiXnOn2acrUZrizV2EAFsfxcbYYrQzU2U3EsPVdVUS5K9fXXHiqO5ecyUJmwONcJyrXusq05SnUNUFmxONcJyjUMLpABdd1lP1ZU9ZSrl+HCVE/dVIHl5+pluCDVUzWVHsvPxal2ACoDlpWraZLlS5BqB6CSYvlDfa/JcOmp9Fh+ribDZabiWD6uc5gLU+20UAWWkesc5UJU+mrdjxVcDynX2+seIW+i8mPFn4eU6+2ESzSy4Mfyc/mpOJaf69gxwBVUgmrdjuXn4lSToLJg+bnAH0g1KQozlp9LR2XH8nMdPJhcwN4XkVP5sfxcnOoloHJi+bk4lTis67H8XJzKj+Xn2r8/vURfgvqx/Fx+Kj8WH5EILiGVH8vPpaPyY/m5kkLggZJKj+XnypeYDx4YqOxYkjNTgiuospT/fizOpaPyY/m58lT//3nz+3bomwhgGAAC2G++8Cec3vtsCYJmZdIchdVzVti7zwpn11nh2jkr3NtnhQ9dP6p0qfquqAIAAAAAgJq00+rZctcVUOMAAAAASUVORK5CYII=;" parent="1" vertex="1">
                    <mxGeometry x="77.17000000000002" y="64" width="64" height="64" as="geometry"/>
                </mxCell>
                <mxCell id="186" value="" style="edgeStyle=orthogonalEdgeStyle;rounded=0;orthogonalLoop=1;jettySize=auto;html=1;fontSize=6;" parent="1" source="182" target="185" edge="1">
                    <mxGeometry relative="1" as="geometry"/>
                </mxCell>
                <mxCell id="182" value="&lt;h4&gt;&lt;font face=&quot;Consolas&quot;&gt;@EventHandler&lt;/font&gt;&lt;/h4&gt;&lt;h4&gt;&lt;font face=&quot;Consolas&quot;&gt;public void onInventoryClickEvent(InventoryClickEvent objEvent);&lt;/font&gt;&lt;/h4&gt;" style="text;html=1;resizable=0;autosize=1;align=center;verticalAlign=middle;points=[];fillColor=none;strokeColor=none;rounded=0;rotation=0;fontSize=6;labelBackgroundColor=#000000;labelBorderColor=#3333FF;" parent="1" vertex="1">
                    <mxGeometry x="-152" y="328" width="240" height="48" as="geometry"/>
                </mxCell>
                <mxCell id="188" value="" style="edgeStyle=orthogonalEdgeStyle;rounded=0;orthogonalLoop=1;jettySize=auto;html=1;fontSize=6;" parent="1" source="185" target="187" edge="1">
                    <mxGeometry relative="1" as="geometry"/>
                </mxCell>
                <mxCell id="197" style="edgeStyle=orthogonalEdgeStyle;rounded=0;orthogonalLoop=1;jettySize=auto;html=1;" edge="1" parent="1" source="185" target="195">
                    <mxGeometry relative="1" as="geometry"/>
                </mxCell>
                <mxCell id="185" value="&lt;h4&gt;&lt;font face=&quot;Consolas&quot;&gt;if (objEvent.getClickedInventory().getTitle().equalsIgnoreCase(...))&lt;/font&gt;&lt;/h4&gt;&lt;h4&gt;&lt;font face=&quot;Consolas&quot;&gt;{ onClickItem();&amp;nbsp;&lt;/font&gt;&lt;font face=&quot;Consolas&quot; style=&quot;font-weight: normal&quot;&gt;objEvent.setCancelled(true)&amp;nbsp;&lt;/font&gt;&lt;span style=&quot;font-weight: normal&quot;&gt;};&lt;/span&gt;&lt;/h4&gt;" style="text;html=1;resizable=0;autosize=1;align=center;verticalAlign=middle;points=[];fillColor=none;strokeColor=none;rounded=0;rotation=0;fontSize=6;labelBackgroundColor=#000000;labelBorderColor=#3333FF;" parent="1" vertex="1">
                    <mxGeometry x="-448" y="328" width="256" height="48" as="geometry"/>
                </mxCell>
                <mxCell id="187" value="&lt;h4&gt;&lt;font face=&quot;Consolas&quot;&gt;switch(objEvent.getCurrentItem().getType())&lt;/font&gt;&lt;/h4&gt;&lt;div&gt;&lt;font face=&quot;Consolas&quot;&gt;{ case Material.SMTH: Logic; }&lt;/font&gt;&lt;/div&gt;" style="text;html=1;resizable=0;autosize=1;align=center;verticalAlign=middle;points=[];fillColor=none;strokeColor=none;rounded=0;rotation=0;fontSize=6;labelBackgroundColor=#000000;labelBorderColor=#3333FF;" parent="1" vertex="1">
                    <mxGeometry x="-672" y="336" width="160" height="32" as="geometry"/>
                </mxCell>
                <mxCell id="193" value="" style="edgeStyle=orthogonalEdgeStyle;rounded=0;orthogonalLoop=1;jettySize=auto;html=1;fontSize=6;" parent="1" source="191" target="192" edge="1">
                    <mxGeometry relative="1" as="geometry"/>
                </mxCell>
                <mxCell id="191" value="&lt;h4&gt;&lt;font face=&quot;Consolas&quot;&gt;this is possible to make a menu item class&lt;/font&gt;&lt;/h4&gt;&lt;div&gt;&lt;font face=&quot;Consolas&quot;&gt;that incapsulates the logic for any action&lt;/font&gt;&lt;/div&gt;&lt;div&gt;&lt;font face=&quot;Consolas&quot;&gt;whenever it gets clicked;&lt;/font&gt;&lt;/div&gt;" style="text;html=1;resizable=0;autosize=1;align=center;verticalAlign=middle;points=[];fillColor=none;strokeColor=none;rounded=0;rotation=0;fontSize=6;labelBackgroundColor=#000000;labelBorderColor=#00994D;spacing=0;spacingRight=0;" parent="1" vertex="1">
                    <mxGeometry x="-768" y="376" width="160" height="48" as="geometry"/>
                </mxCell>
                <mxCell id="192" value="&lt;h4&gt;&lt;font face=&quot;Consolas&quot;&gt;&lt;span style=&quot;font-weight: 400&quot;&gt;MineGuisItem class is abstract but it's inherits&lt;/span&gt;&lt;/font&gt;&lt;/h4&gt;&lt;h4&gt;&lt;font face=&quot;Consolas&quot;&gt;&lt;span style=&quot;font-weight: 400&quot;&gt;will implement onClick(InventoryClickEvent) method;&lt;/span&gt;&lt;/font&gt;&lt;/h4&gt;" style="text;html=1;resizable=0;autosize=1;align=center;verticalAlign=middle;points=[];fillColor=none;strokeColor=none;rounded=0;rotation=0;fontSize=6;labelBackgroundColor=#000000;labelBorderColor=#00994D;spacing=0;spacingRight=0;" parent="1" vertex="1">
                    <mxGeometry x="-544" y="376" width="192" height="48" as="geometry"/>
                </mxCell>
                <mxCell id="195" value="&lt;font face=&quot;Consolas&quot;&gt;In new versions we do not have Inventory.getTitle();&lt;br&gt;InventoryClickEvent.getView().getTitle();&lt;br&gt;&lt;/font&gt;" style="text;html=1;resizable=0;autosize=1;align=center;verticalAlign=middle;points=[];fillColor=none;strokeColor=none;rounded=0;rotation=0;fontSize=6;labelBackgroundColor=#000000;labelBorderColor=#00994D;spacing=0;spacingRight=0;" vertex="1" parent="1">
                    <mxGeometry x="-480" y="271.34" width="192" height="16" as="geometry"/>
                </mxCell>
            </root>
        </mxGraphModel>
    </diagram>
</mxfile>